<svg width="202" height="49" viewBox="0 0 202 49" fill="none" xmlns="http://www.w3.org/2000/svg">
<path d="M98.4987 26.5405C94.5261 26.5405 91.2803 29.731 91.2803 34.1158C91.2803 38.5006 94.5261 41.6911 98.4987 41.6911C102.471 41.6911 105.717 38.4828 105.717 34.1158C105.717 29.7489 102.471 26.5405 98.4987 26.5405ZM98.4987 38.7145C96.318 38.7145 94.4415 36.8251 94.4415 34.1158C94.4415 31.4065 96.318 29.5171 98.4987 29.5171C100.679 29.5171 102.556 31.3887 102.556 34.1158C102.556 36.8429 100.679 38.7145 98.4987 38.7145ZM82.7602 26.5405C78.7875 26.5405 75.5418 29.731 75.5418 34.1158C75.5418 38.5006 78.7875 41.6911 82.7602 41.6911C86.7329 41.6911 89.9786 38.4828 89.9786 34.1158C89.9786 29.7489 86.7329 26.5405 82.7602 26.5405ZM82.7602 38.7145C80.5795 38.7145 78.703 36.8251 78.703 34.1158C78.703 31.4065 80.5795 29.5171 82.7602 29.5171C84.9409 29.5171 86.8174 31.3887 86.8174 34.1158C86.8174 36.8429 84.9409 38.7145 82.7602 38.7145ZM64.0295 28.8576V32.066H71.3324C71.1127 33.8841 70.5379 35.2031 69.6757 36.1121C68.6107 37.2351 66.954 38.4649 64.0464 38.4649C59.5496 38.4649 56.0334 34.6505 56.0334 29.9093C56.0334 25.168 59.5496 21.3536 64.0464 21.3536C66.4638 21.3536 68.2388 22.3518 69.5405 23.6529L71.6874 21.3893C69.8617 19.5534 67.4443 18.1452 64.0295 18.1452C57.8761 18.1452 52.7031 23.4212 52.7031 29.9271C52.7031 36.433 57.8761 41.709 64.0295 41.709C67.3597 41.709 69.8617 40.5682 71.8227 38.4115C73.8344 36.2904 74.4598 33.2959 74.4598 30.8896C74.4598 30.141 74.4091 29.4458 74.2908 28.8755H64.0295V28.8576ZM140.626 31.353C140.034 29.6597 138.209 26.5227 134.473 26.5227C130.737 26.5227 127.694 29.5884 127.694 34.098C127.694 38.3402 130.737 41.6733 134.828 41.6733C138.124 41.6733 140.034 39.5522 140.812 38.3223L138.361 36.5934C137.549 37.8589 136.434 38.6966 134.828 38.6966C133.222 38.6966 132.072 37.9124 131.345 36.3973L140.964 32.2086L140.643 31.353H140.626ZM130.821 33.8841C130.737 30.9609 132.968 29.4637 134.574 29.4637C135.825 29.4637 136.89 30.1232 137.245 31.0679L130.821 33.8841ZM123.011 41.2277H126.172V18.9473H123.011V41.2277ZM117.838 28.216H117.737C117.027 27.3248 115.674 26.5227 113.95 26.5227C110.349 26.5227 107.053 29.8558 107.053 34.1336C107.053 38.4115 110.349 41.6911 113.95 41.6911C115.674 41.6911 117.027 40.889 117.737 39.9622H117.838V41.0494C117.838 43.9548 116.367 45.5055 114.001 45.5055C112.073 45.5055 110.873 44.0439 110.383 42.8141L107.627 44.0261C108.422 46.0402 110.518 48.5 114.001 48.5C117.703 48.5 120.83 46.2007 120.83 40.6038V26.9861H117.838V28.216ZM114.22 38.6966C112.04 38.6966 110.214 36.7716 110.214 34.1336C110.214 31.4956 112.04 29.5171 114.22 29.5171C116.401 29.5171 118.058 31.4778 118.058 34.1336C118.058 36.7894 116.367 38.6966 114.22 38.6966ZM147.878 18.9473V41.2277H151.039V32.779H155.452C158.951 32.779 162.383 30.1053 162.383 25.8632C162.383 21.621 158.951 18.9473 155.452 18.9473H147.878ZM155.519 29.6954H151.039V22.0488H155.519C157.886 22.0488 159.221 24.1164 159.221 25.8632C159.221 27.6099 157.886 29.6776 155.519 29.6776V29.6954ZM175.011 26.487C172.729 26.487 170.362 27.5565 169.381 29.8914L172.188 31.1213C172.779 29.8914 173.895 29.4815 175.061 29.4815C176.684 29.4815 178.358 30.5153 178.375 32.3512V32.5829C177.8 32.2443 176.583 31.7273 175.078 31.7273C172.052 31.7273 168.993 33.4741 168.993 36.736C168.993 39.7126 171.461 41.6376 174.233 41.6376C176.346 41.6376 177.53 40.6395 178.257 39.4631H178.358V41.192H181.401V32.6542C181.401 28.6972 178.595 26.487 174.977 26.487H175.011ZM174.622 38.6966C173.591 38.6966 172.154 38.1441 172.154 36.8073C172.154 35.0961 173.946 34.4366 175.501 34.4366C176.887 34.4366 177.546 34.7575 178.375 35.1853C178.138 37.2529 176.448 38.7145 174.622 38.7145V38.6966ZM192.507 26.9683L188.89 36.629H188.788L185.035 26.9683H181.637L187.267 40.4791L184.055 47.9831H187.351L196.024 26.9683H192.507ZM164.09 41.2277H167.251V18.9473H164.09V41.2277Z" fill="white"/>
<path d="M18.3358 22.3884L0.332031 42.5298C0.889896 44.7222 2.78326 46.3264 5.03162 46.3264C5.92758 46.3264 6.77283 46.0769 7.49975 45.6134L7.55046 45.5778L27.8026 33.2612L18.3189 22.3705L18.3358 22.3884Z" fill="#EA4335"/>
<path d="M36.546 18.9659H36.5291L27.7892 13.6008L17.9336 22.8516L27.823 33.2788L36.5291 27.985C38.0505 27.1116 39.0817 25.4183 39.0817 23.4754C39.0817 21.5326 38.0674 19.8393 36.546 18.9837V18.9659Z" fill="#FBBC04"/>
<path d="M0.333111 4.31413C0.231681 4.74191 0.164062 5.1697 0.164062 5.63313V41.2282C0.164062 41.6917 0.214777 42.1194 0.333111 42.5472L18.9455 22.9227L0.333111 4.31413Z" fill="#4285F4"/>
<path d="M18.4711 23.422L27.7857 13.6009L7.55046 1.2308C6.82355 0.767365 5.96139 0.5 5.03162 0.5C2.78326 0.5 0.889896 2.12201 0.332031 4.29657L18.4711 23.4042V23.422Z" fill="#34A853"/>
<path d="M197.573 9.99854V4.28514H199.76C200.173 4.28514 200.516 4.35024 200.79 4.48043C201.065 4.60875 201.271 4.78451 201.406 5.00769C201.544 5.23087 201.613 5.4838 201.613 5.7665C201.613 5.99898 201.568 6.19798 201.479 6.3635C201.39 6.52717 201.27 6.66015 201.119 6.76244C200.968 6.86473 200.8 6.93819 200.614 6.98283V7.03862C200.817 7.04978 201.011 7.11208 201.197 7.22553C201.385 7.33712 201.538 7.49521 201.657 7.69979C201.776 7.90437 201.836 8.15173 201.836 8.44186C201.836 8.73757 201.764 9.00353 201.621 9.23973C201.478 9.47407 201.262 9.65912 200.974 9.79489C200.686 9.93065 200.323 9.99854 199.886 9.99854H197.573ZM198.608 9.13372H199.721C200.097 9.13372 200.368 9.06211 200.533 8.91891C200.701 8.77384 200.784 8.58786 200.784 8.36096C200.784 8.19171 200.742 8.03921 200.659 7.90344C200.575 7.76581 200.456 7.65794 200.302 7.57983C200.147 7.49986 199.963 7.45987 199.749 7.45987H198.608V9.13372ZM198.608 6.71501H199.632C199.811 6.71501 199.972 6.68246 200.115 6.61737C200.258 6.55042 200.37 6.45649 200.452 6.33561C200.536 6.21286 200.578 6.06779 200.578 5.90041C200.578 5.67909 200.5 5.49682 200.343 5.35362C200.189 5.21041 199.959 5.13881 199.654 5.13881H198.608V6.71501Z" fill="white"/>
<path d="M194.503 9.99854H193.465V5.14996H192.517C192.26 5.14996 192.049 5.18809 191.884 5.26434C191.72 5.33874 191.598 5.44847 191.518 5.59353C191.44 5.73674 191.401 5.9097 191.401 6.11243C191.401 6.31515 191.44 6.48625 191.518 6.62574C191.596 6.76337 191.717 6.86845 191.881 6.94098C192.046 7.01165 192.256 7.04699 192.511 7.04699H193.901V7.90623H192.372C191.933 7.90623 191.563 7.8337 191.261 7.68863C190.96 7.5417 190.731 7.33433 190.575 7.06652C190.421 6.79684 190.344 6.47881 190.344 6.11243C190.344 5.7479 190.42 5.42894 190.572 5.15554C190.727 4.88029 190.954 4.66641 191.253 4.5139C191.553 4.3614 191.921 4.28514 192.358 4.28514H194.503V9.99854ZM191.549 7.40966H192.679L191.289 9.99854H190.134L191.549 7.40966Z" fill="white"/>
<path d="M184.462 4.28514H185.489V8.17963H185.542L188.228 4.28514H189.157V9.99854H188.122V6.10685H188.075L185.38 9.99854H184.462V4.28514Z" fill="white"/>
<path d="M183.619 9.13372L183.544 11.3488H182.539V9.99854H182.138V9.13372H183.619ZM178.332 9.99854V4.28514H179.326V9.1393H181.892V4.28514H182.894V9.99854H178.332Z" fill="white"/>
<path d="M173.381 9.99854H172.277L174.288 4.28514H175.566L177.58 9.99854H176.475L174.949 5.45684H174.905L173.381 9.99854ZM173.418 7.75837H176.43V8.58972H173.418V7.75837Z" fill="white"/>
<path d="M168.229 9.99854V4.28514H170.371C170.81 4.28514 171.178 4.36698 171.476 4.53064C171.775 4.69431 172.001 4.91935 172.154 5.20576C172.308 5.49031 172.385 5.81392 172.385 6.17659C172.385 6.54298 172.308 6.86845 172.154 7.153C171.999 7.43755 171.772 7.66166 171.47 7.82533C171.169 7.98713 170.798 8.06804 170.357 8.06804H168.937V7.21716H170.218C170.474 7.21716 170.685 7.17253 170.848 7.08326C171.012 6.99398 171.133 6.87124 171.211 6.71501C171.291 6.55878 171.331 6.37931 171.331 6.17659C171.331 5.97387 171.291 5.79533 171.211 5.64096C171.133 5.48659 171.011 5.36663 170.845 5.28108C170.682 5.19367 170.471 5.14996 170.212 5.14996H169.264V9.99854H168.229Z" fill="white"/>
<path d="M162.791 5.15275V4.28514H167.35V5.15275H165.584V9.99854H164.557V5.15275H162.791Z" fill="white"/>
<path d="M162.095 6.21286H161.051C161.022 6.04175 160.967 5.89018 160.887 5.75813C160.807 5.62422 160.707 5.51077 160.588 5.41778C160.469 5.32479 160.333 5.25504 160.181 5.20855C160.03 5.16019 159.868 5.13602 159.693 5.13602C159.382 5.13602 159.107 5.21413 158.867 5.37035C158.627 5.52472 158.439 5.75162 158.303 6.05105C158.168 6.34862 158.1 6.71222 158.1 7.14184C158.1 7.5789 158.168 7.94715 158.303 8.24658C158.441 8.54415 158.629 8.76919 158.867 8.9217C159.107 9.07234 159.381 9.14767 159.69 9.14767C159.861 9.14767 160.021 9.12535 160.17 9.08071C160.32 9.03422 160.455 8.96633 160.574 8.87706C160.695 8.78779 160.797 8.67806 160.878 8.54787C160.962 8.41768 161.02 8.2689 161.051 8.10151L162.095 8.10709C162.056 8.37863 161.971 8.63342 161.841 8.87148C161.713 9.10954 161.544 9.3197 161.336 9.50196C161.128 9.68237 160.884 9.82371 160.605 9.926C160.326 10.0264 160.016 10.0767 159.676 10.0767C159.174 10.0767 158.726 9.96041 158.331 9.72793C157.937 9.49545 157.626 9.15976 157.4 8.72084C157.173 8.28192 157.059 7.75558 157.059 7.14184C157.059 6.52624 157.174 5.99991 157.402 5.56285C157.631 5.12393 157.943 4.78823 158.337 4.55575C158.731 4.32327 159.178 4.20703 159.676 4.20703C159.994 4.20703 160.29 4.25167 160.563 4.34094C160.837 4.43021 161.08 4.56133 161.294 4.73429C161.508 4.9054 161.684 5.11556 161.821 5.36477C161.961 5.61213 162.052 5.89483 162.095 6.21286Z" fill="white"/>
<path d="M151.381 4.28514H152.408V8.17963H152.461L155.148 4.28514H156.077V9.99854H155.042V6.10685H154.994L152.299 9.99854H151.381V4.28514Z" fill="white"/>
<path d="M150.506 4.28514V5.15275H147.867V9.99854H146.832V4.28514H150.506Z" fill="white"/>
<path d="M142.06 9.99854V4.28514H145.776V5.15275H143.095V6.70385H145.584V7.57146H143.095V9.13093H145.798V9.99854H142.06Z" fill="white"/>
<path d="M137.004 9.99854V4.28514H139.147C139.586 4.28514 139.954 4.36698 140.252 4.53064C140.551 4.69431 140.777 4.91935 140.93 5.20576C141.084 5.49031 141.161 5.81392 141.161 6.17659C141.161 6.54298 141.084 6.86845 140.93 7.153C140.775 7.43755 140.547 7.66166 140.246 7.82533C139.945 7.98713 139.574 8.06804 139.133 8.06804H137.713V7.21716H138.994C139.25 7.21716 139.46 7.17253 139.624 7.08326C139.788 6.99398 139.909 6.87124 139.987 6.71501C140.067 6.55878 140.107 6.37931 140.107 6.17659C140.107 5.97387 140.067 5.79533 139.987 5.64096C139.909 5.48659 139.787 5.36663 139.621 5.28108C139.458 5.19367 139.246 5.14996 138.988 5.14996H138.039V9.99854H137.004Z" fill="white"/>
<path d="M133.934 9.99854H132.897V5.14996H131.948C131.691 5.14996 131.48 5.18809 131.315 5.26434C131.151 5.33874 131.029 5.44847 130.949 5.59353C130.871 5.73674 130.832 5.9097 130.832 6.11243C130.832 6.31515 130.871 6.48625 130.949 6.62574C131.027 6.76337 131.148 6.86845 131.312 6.94098C131.478 7.01165 131.688 7.04699 131.942 7.04699H133.332V7.90623H131.803C131.364 7.90623 130.994 7.8337 130.693 7.68863C130.391 7.5417 130.163 7.33433 130.006 7.06652C129.852 6.79684 129.775 6.47881 129.775 6.11243C129.775 5.7479 129.851 5.42894 130.004 5.15554C130.158 4.88029 130.385 4.66641 130.684 4.5139C130.984 4.3614 131.352 4.28514 131.789 4.28514H133.934V9.99854ZM130.98 7.40966H132.11L130.721 9.99854H129.566L130.98 7.40966Z" fill="white"/>
<path d="M124.765 9.99854H123.66L125.672 4.28514H126.95L128.964 9.99854H127.859L126.333 5.45684H126.288L124.765 9.99854ZM124.801 7.75837H127.814V8.58972H124.801V7.75837Z" fill="white"/>
<path d="M118.186 9.99854V4.28514H119.221V6.70385H121.868V4.28514H122.906V9.99854H121.868V7.57146H119.221V9.99854H118.186Z" fill="white"/>
<path d="M113.631 6.49183H115.081C115.518 6.49183 115.893 6.56343 116.206 6.70664C116.52 6.84799 116.761 7.04792 116.928 7.30644C117.095 7.56495 117.179 7.86903 117.179 8.21868C117.179 8.57019 117.095 8.87985 116.928 9.14767C116.761 9.41362 116.52 9.62192 116.206 9.77257C115.893 9.92321 115.518 9.99854 115.081 9.99854H112.942V4.28514H113.979V9.15046H115.081C115.312 9.15046 115.507 9.10675 115.667 9.01934C115.827 8.93193 115.948 8.81662 116.03 8.67341C116.113 8.5302 116.155 8.37491 116.155 8.20752C116.155 7.96574 116.062 7.76023 115.876 7.59099C115.692 7.41989 115.427 7.33433 115.081 7.33433H113.631V6.49183Z" fill="white"/>
<path d="M106.867 9.99854V9.1393L107.029 9.13093C107.248 9.11791 107.422 9.03887 107.55 8.8938C107.681 8.74873 107.776 8.51532 107.838 8.19357C107.901 7.87182 107.943 7.44034 107.963 6.89913L108.058 4.28514H111.802V9.99854H110.789V5.13602H109.023L108.934 7.21995C108.908 7.84486 108.839 8.36282 108.728 8.77384C108.618 9.18486 108.437 9.49173 108.186 9.69446C107.937 9.89718 107.59 9.99854 107.146 9.99854H106.867Z" fill="white"/>
<path d="M102.466 9.99854V4.28514H106.182V5.15275H103.501V6.70385H105.989V7.57146H103.501V9.13093H106.204V9.99854H102.466Z" fill="white"/>
<path d="M97.0288 5.15275V4.28514H101.587V5.15275H99.8214V9.99854H98.7947V5.15275H97.0288Z" fill="white"/>
<path d="M91.457 4.28514H92.4836V8.17963H92.5367L95.2232 4.28514H96.1522V9.99854H95.1172V6.10685H95.0697L92.3748 9.99854H91.457V4.28514Z" fill="white"/>
<path d="M86.4013 9.99854V4.28514H88.5438C88.9827 4.28514 89.351 4.36698 89.6486 4.53064C89.948 4.69431 90.174 4.91935 90.3265 5.20576C90.4808 5.49031 90.558 5.81392 90.558 6.17659C90.558 6.54298 90.4808 6.86845 90.3265 7.153C90.1721 7.43755 89.9443 7.66166 89.643 7.82533C89.3417 7.98713 88.9707 8.06804 88.5299 8.06804H87.1099V7.21716H88.3904C88.647 7.21716 88.8572 7.17253 89.0209 7.08326C89.1845 6.99398 89.3054 6.87124 89.3835 6.71501C89.4635 6.55878 89.5035 6.37931 89.5035 6.17659C89.5035 5.97387 89.4635 5.79533 89.3835 5.64096C89.3054 5.48659 89.1836 5.36663 89.0181 5.28108C88.8544 5.19367 88.6433 5.14996 88.3848 5.14996H87.4363V9.99854H86.4013Z" fill="white"/>
<path d="M81.4502 9.99854H80.3455L82.3569 4.28514H83.6346L85.6488 9.99854H84.544L83.018 5.45684H82.9734L81.4502 9.99854ZM81.4865 7.75837H84.4994V8.58972H81.4865V7.75837Z" fill="white"/>
<path d="M75.5534 9.99854V4.28514H77.7405C78.1534 4.28514 78.4966 4.35024 78.77 4.48043C79.0452 4.60875 79.2507 4.78451 79.3865 5.00769C79.5241 5.23087 79.5929 5.4838 79.5929 5.7665C79.5929 5.99898 79.5483 6.19798 79.459 6.3635C79.3698 6.52717 79.2498 6.66015 79.0992 6.76244C78.9485 6.86473 78.7802 6.93819 78.5942 6.98283V7.03862C78.7969 7.04978 78.9913 7.11208 79.1773 7.22553C79.3651 7.33712 79.5185 7.49521 79.6376 7.69979C79.7566 7.90437 79.8161 8.15173 79.8161 8.44186C79.8161 8.73757 79.7445 9.00353 79.6013 9.23973C79.4581 9.47407 79.2424 9.65912 78.9541 9.79489C78.6658 9.93065 78.3031 9.99854 77.8661 9.99854H75.5534ZM76.5884 9.13372H77.7015C78.0772 9.13372 78.3478 9.06211 78.5133 8.91891C78.6807 8.77384 78.7644 8.58786 78.7644 8.36096C78.7644 8.19171 78.7225 8.03921 78.6388 7.90344C78.5551 7.76581 78.4361 7.65794 78.2818 7.57983C78.1274 7.49986 77.9433 7.45987 77.7294 7.45987H76.5884V9.13372ZM76.5884 6.71501H77.6122C77.7908 6.71501 77.9516 6.68246 78.0948 6.61737C78.238 6.55042 78.3506 6.45649 78.4324 6.33561C78.5161 6.21286 78.5579 6.06779 78.5579 5.90041C78.5579 5.67909 78.4798 5.49682 78.3236 5.35362C78.1692 5.21041 77.9396 5.13881 77.6345 5.13881H76.5884V6.71501Z" fill="white"/>
<path d="M69.0833 11.3767V9.15325H69.4655C69.5938 9.05096 69.7138 8.90682 69.8253 8.72084C69.9369 8.53485 70.0318 8.28006 70.1099 7.95645C70.188 7.63284 70.242 7.21437 70.2717 6.70106L70.4224 4.28514H74.0741V9.15325H74.7102V11.3711H73.717V9.99854H70.0764V11.3767H69.0833ZM70.6706 9.15325H73.081V5.15275H71.3541L71.2649 6.70106C71.2407 7.08977 71.2016 7.43755 71.1477 7.74443C71.0938 8.0513 71.0259 8.3219 70.944 8.55624C70.8622 8.78872 70.7711 8.98772 70.6706 9.15325Z" fill="white"/>
<path d="M64.6824 9.99854V4.28514H68.3984V5.15275H65.7174V6.70385H68.2059V7.57146H65.7174V9.13093H68.4207V9.99854H64.6824Z" fill="white"/>
<path d="M59.6267 9.99854V4.28514H61.7693C62.2082 4.28514 62.5764 4.36698 62.874 4.53064C63.1734 4.69431 63.3994 4.91935 63.5519 5.20576C63.7063 5.49031 63.7835 5.81392 63.7835 6.17659C63.7835 6.54298 63.7063 6.86845 63.5519 7.153C63.3976 7.43755 63.1697 7.66166 62.8684 7.82533C62.5671 7.98713 62.1961 8.06804 61.7553 8.06804H60.3353V7.21716H61.6158C61.8725 7.21716 62.0826 7.17253 62.2463 7.08326C62.41 6.99398 62.5309 6.87124 62.609 6.71501C62.689 6.55878 62.7289 6.37931 62.7289 6.17659C62.7289 5.97387 62.689 5.79533 62.609 5.64096C62.5309 5.48659 62.409 5.36663 62.2435 5.28108C62.0799 5.19367 61.8688 5.14996 61.6103 5.14996H60.6617V9.99854H59.6267Z" fill="white"/>
<path d="M58.3888 4.28514V9.99854H57.3622V5.14438H54.8626V9.99854H53.8359V4.28514H58.3888Z" fill="white"/>
</svg>
