<svg width="202" height="49" fill="none" xmlns="http://www.w3.org/2000/svg"><path d="M98.499 26.54c-3.973 0-7.219 3.191-7.219 7.576s3.246 7.575 7.219 7.575c3.972 0 7.218-3.208 7.218-7.575s-3.246-7.575-7.218-7.575Zm0 12.175c-2.181 0-4.057-1.89-4.057-4.6 0-2.709 1.876-4.598 4.057-4.598 2.18 0 4.057 1.872 4.057 4.599 0 2.727-1.877 4.599-4.057 4.599ZM82.76 26.54c-3.973 0-7.218 3.191-7.218 7.576s3.245 7.575 7.218 7.575 7.219-3.208 7.219-7.575-3.246-7.575-7.219-7.575Zm0 12.175c-2.18 0-4.057-1.89-4.057-4.6 0-2.709 1.876-4.598 4.057-4.598 2.18 0 4.057 1.872 4.057 4.599 0 2.727-1.876 4.599-4.057 4.599Zm-18.73-9.857v3.208h7.302c-.22 1.818-.794 3.137-1.656 4.046-1.065 1.123-2.722 2.353-5.63 2.353-4.496 0-8.013-3.815-8.013-8.556s3.517-8.555 8.013-8.555c2.418 0 4.193.998 5.494 2.299l2.147-2.264c-1.825-1.836-4.243-3.244-7.657-3.244-6.154 0-11.327 5.276-11.327 11.782S57.876 41.71 64.03 41.71c3.33 0 5.833-1.14 7.794-3.298 2.011-2.12 2.637-5.115 2.637-7.521 0-.749-.05-1.444-.17-2.015H64.03v-.017Zm76.596 2.495c-.592-1.693-2.417-4.83-6.153-4.83-3.736 0-6.779 3.065-6.779 7.575 0 4.242 3.043 7.575 7.134 7.575 3.296 0 5.206-2.12 5.984-3.35l-2.451-1.73c-.812 1.266-1.927 2.104-3.533 2.104-1.606 0-2.756-.785-3.483-2.3l9.619-4.188-.321-.856h-.017Zm-9.805 2.531c-.084-2.923 2.147-4.42 3.753-4.42 1.251 0 2.316.66 2.671 1.604l-6.424 2.816Zm-7.81 7.344h3.161v-22.28h-3.161v22.28Zm-5.173-13.012h-.101c-.71-.891-2.063-1.693-3.787-1.693-3.601 0-6.897 3.333-6.897 7.61 0 4.278 3.296 7.558 6.897 7.558 1.724 0 3.077-.802 3.787-1.729h.101v1.087c0 2.906-1.471 4.456-3.837 4.456-1.928 0-3.128-1.461-3.618-2.69l-2.756 1.211c.795 2.014 2.891 4.474 6.374 4.474 3.702 0 6.829-2.3 6.829-7.896V26.986h-2.992v1.23Zm-3.618 10.48c-2.18 0-4.006-1.924-4.006-4.562 0-2.638 1.826-4.617 4.006-4.617 2.181 0 3.838 1.96 3.838 4.617 0 2.655-1.691 4.563-3.838 4.563Zm33.658-19.749v22.28h3.161V32.78h4.413c3.499 0 6.931-2.674 6.931-6.916 0-4.242-3.432-6.916-6.931-6.916h-7.574Zm7.641 10.748h-4.48V22.05h4.48c2.367 0 3.702 2.067 3.702 3.814 0 1.747-1.335 3.815-3.702 3.815v.017Zm19.492-3.208c-2.282 0-4.649 1.07-5.63 3.404l2.807 1.23c.591-1.23 1.707-1.64 2.873-1.64 1.623 0 3.297 1.034 3.314 2.87v.232c-.575-.339-1.792-.856-3.297-.856-3.026 0-6.085 1.747-6.085 5.009 0 2.977 2.468 4.902 5.24 4.902 2.113 0 3.297-.998 4.024-2.175h.101v1.729h3.043v-8.538c0-3.957-2.806-6.167-6.424-6.167h.034Zm-.389 12.21c-1.031 0-2.468-.553-2.468-1.89 0-1.71 1.792-2.37 3.347-2.37 1.386 0 2.045.32 2.874.748-.237 2.068-1.927 3.53-3.753 3.53v-.018Zm17.885-11.729-3.617 9.661h-.102l-3.753-9.66h-3.398l5.63 13.51-3.212 7.504h3.296l8.673-21.015h-3.517Zm-28.417 14.26h3.161v-22.28h-3.161v22.28Z" fill="#fff"/><path d="M18.336 22.388.332 42.53c.558 2.192 2.451 3.796 4.7 3.796.896 0 1.74-.25 2.468-.713l.05-.035L27.803 33.26l-9.484-10.89.017.017Z" fill="#EA4335"/><path d="M36.546 18.966h-.017L27.79 13.6l-9.855 9.25 9.889 10.428 8.706-5.294c1.521-.873 2.553-2.567 2.553-4.51 0-1.942-1.015-3.636-2.536-4.491v-.018Z" fill="#FBBC04"/><path d="M.333 4.314a5.625 5.625 0 0 0-.169 1.32v35.594c0 .464.05.891.17 1.32l18.611-19.625L.334 4.314Z" fill="#4285F4"/><path d="m18.471 23.422 9.315-9.821L7.55 1.23A4.664 4.664 0 0 0 5.032.5C2.783.5.89 2.122.332 4.297l18.14 19.107v.018Z" fill="#34A853"/><path d="M197.573 9.999V4.285h2.187c.413 0 .756.065 1.03.195.275.129.481.305.616.528.138.223.207.476.207.758 0 .233-.045.432-.134.598a1.12 1.12 0 0 1-.36.398 1.526 1.526 0 0 1-.505.22v.057c.203.01.397.073.583.187.188.111.341.27.46.474.119.204.179.452.179.742 0 .296-.072.562-.215.798-.143.234-.359.42-.647.555-.288.136-.651.204-1.088.204h-2.313Zm1.035-.865h1.113c.376 0 .647-.072.812-.215a.703.703 0 0 0 .251-.558.86.86 0 0 0-.482-.781 1.191 1.191 0 0 0-.553-.12h-1.141v1.674Zm0-2.419h1.024c.179 0 .34-.033.483-.098a.814.814 0 0 0 .337-.281.752.752 0 0 0 .126-.436.707.707 0 0 0-.235-.546c-.154-.144-.384-.215-.689-.215h-1.046v1.576ZM194.503 9.999h-1.038V5.15h-.948c-.257 0-.468.038-.633.114a.763.763 0 0 0-.366.33 1.07 1.07 0 0 0-.117.518c0 .203.039.374.117.514a.749.749 0 0 0 .363.315c.165.07.375.106.63.106h1.39v.86h-1.529c-.439 0-.809-.073-1.111-.218a1.564 1.564 0 0 1-.686-.622 1.892 1.892 0 0 1-.231-.955c0-.364.076-.683.228-.956.155-.276.382-.49.681-.642.3-.153.668-.229 1.105-.229h2.145V10Zm-2.954-2.59h1.13l-1.39 2.59h-1.155l1.415-2.59ZM184.462 4.285h1.027V8.18h.053l2.686-3.895h.929V10h-1.035V6.107h-.047l-2.695 3.892h-.918V4.285ZM183.619 9.134l-.075 2.215h-1.005v-1.35h-.401v-.865h1.481Zm-5.287.865V4.285h.994V9.14h2.566V4.285h1.002V10h-4.562ZM173.381 9.999h-1.104l2.011-5.714h1.278L177.58 10h-1.105l-1.526-4.542h-.044l-1.524 4.542Zm.037-2.24h3.012v.83h-3.012v-.83ZM168.229 9.999V4.285h2.142c.439 0 .807.082 1.105.246.299.163.525.388.678.675.154.284.231.608.231.97 0 .367-.077.692-.231.977a1.655 1.655 0 0 1-.684.672c-.301.162-.672.243-1.113.243h-1.42v-.85h1.281c.256 0 .467-.045.63-.135a.843.843 0 0 0 .363-.368c.08-.156.12-.336.12-.538 0-.203-.04-.382-.12-.536a.813.813 0 0 0-.366-.36c-.163-.087-.374-.131-.633-.131h-.948v4.849h-1.035ZM162.791 5.153v-.868h4.559v.868h-1.766v4.846h-1.027V5.153h-1.766ZM162.095 6.213h-1.044a1.283 1.283 0 0 0-.164-.455 1.225 1.225 0 0 0-.706-.55 1.588 1.588 0 0 0-.488-.072 1.48 1.48 0 0 0-.826.234 1.54 1.54 0 0 0-.564.681c-.135.298-.203.661-.203 1.09 0 .438.068.806.203 1.106.138.297.326.522.564.675.24.15.514.226.823.226.171 0 .331-.023.48-.067.15-.047.285-.115.404-.204.121-.09.223-.199.304-.33.084-.13.142-.278.173-.445l1.044.005a2.25 2.25 0 0 1-.254.764 2.253 2.253 0 0 1-1.236 1.055c-.279.1-.589.15-.929.15a2.6 2.6 0 0 1-1.345-.348 2.428 2.428 0 0 1-.931-1.007c-.227-.44-.341-.965-.341-1.58 0-.615.115-1.141.343-1.578.229-.44.541-.775.935-1.007a2.586 2.586 0 0 1 1.339-.349c.318 0 .614.045.887.134.274.09.517.22.731.393.214.171.39.382.527.63.14.248.231.53.274.849ZM151.381 4.285h1.027V8.18h.053l2.687-3.895h.929V10h-1.035V6.107h-.048l-2.695 3.892h-.918V4.285ZM150.506 4.285v.868h-2.639v4.846h-1.035V4.285h3.674ZM142.06 9.999V4.285h3.716v.868h-2.681v1.55h2.489v.868h-2.489v1.56h2.703v.868h-3.738ZM137.004 9.999V4.285h2.143c.439 0 .807.082 1.105.246.299.163.525.388.678.675.154.284.231.608.231.97 0 .367-.077.692-.231.977a1.661 1.661 0 0 1-.684.672c-.301.162-.672.243-1.113.243h-1.42v-.85h1.281c.256 0 .466-.045.63-.135a.843.843 0 0 0 .363-.368c.08-.156.12-.336.12-.538 0-.203-.04-.382-.12-.536a.813.813 0 0 0-.366-.36c-.163-.087-.375-.131-.633-.131h-.949v4.849h-1.035ZM133.934 9.999h-1.037V5.15h-.949c-.257 0-.468.038-.633.114a.763.763 0 0 0-.366.33 1.07 1.07 0 0 0-.117.518c0 .203.039.374.117.514a.749.749 0 0 0 .363.315c.166.07.376.106.63.106h1.39v.86h-1.529c-.439 0-.809-.073-1.11-.218a1.566 1.566 0 0 1-.687-.622 1.892 1.892 0 0 1-.231-.955c0-.364.076-.683.229-.956.154-.276.381-.49.68-.642.3-.153.668-.229 1.105-.229h2.145V10Zm-2.954-2.59h1.13L130.721 10h-1.155l1.414-2.59ZM124.765 9.999h-1.105l2.012-5.714h1.278L128.964 10h-1.105l-1.526-4.542h-.045l-1.523 4.542Zm.036-2.24h3.013v.83h-3.013v-.83ZM118.186 9.999V4.285h1.035v2.419h2.647V4.285h1.038V10h-1.038V7.57h-2.647V10h-1.035ZM113.631 6.492h1.45c.437 0 .812.071 1.125.215.314.141.555.34.722.6.167.258.251.562.251.912 0 .351-.084.66-.251.929a1.69 1.69 0 0 1-.722.625c-.313.15-.688.226-1.125.226h-2.139V4.285h1.037V9.15h1.102c.231 0 .426-.043.586-.13a.907.907 0 0 0 .488-.812.803.803 0 0 0-.279-.617c-.184-.171-.449-.257-.795-.257h-1.45v-.842ZM106.867 9.999v-.86l.162-.008a.72.72 0 0 0 .521-.237c.131-.145.226-.379.288-.7a8.7 8.7 0 0 0 .125-1.295l.095-2.614h3.744V10h-1.013V5.136h-1.766l-.089 2.084c-.026.625-.095 1.143-.206 1.554-.11.41-.291.718-.542.92-.249.203-.596.305-1.04.305h-.279ZM102.466 9.999V4.285h3.716v.868h-2.681v1.55h2.488v.868h-2.488v1.56h2.703v.868h-3.738ZM97.029 5.153v-.868h4.558v.868h-1.766v4.846h-1.026V5.153h-1.766ZM91.457 4.285h1.027V8.18h.053l2.686-3.895h.93V10h-1.036V6.107h-.047l-2.695 3.892h-.918V4.285ZM86.401 9.999V4.285h2.143c.439 0 .807.082 1.105.246.299.163.525.388.677.675.155.284.232.608.232.97 0 .367-.077.692-.232.977a1.655 1.655 0 0 1-.683.672c-.301.162-.672.243-1.113.243h-1.42v-.85h1.28c.257 0 .467-.045.63-.135a.845.845 0 0 0 .364-.368c.08-.156.12-.336.12-.538 0-.203-.04-.382-.12-.536a.815.815 0 0 0-.366-.36c-.164-.087-.375-.131-.633-.131h-.949v4.849h-1.035ZM81.45 9.999h-1.105l2.012-5.714h1.278L85.649 10h-1.105l-1.526-4.542h-.045L81.45 9.999Zm.037-2.24h3.012v.83h-3.012v-.83ZM75.553 9.999V4.285h2.188c.412 0 .756.065 1.029.195.275.129.48.305.617.528.137.223.206.476.206.758 0 .233-.045.432-.134.598-.09.163-.21.296-.36.398-.15.103-.319.176-.505.22v.057c.203.01.397.073.583.187.188.111.341.27.46.474.12.204.18.452.18.742 0 .296-.072.562-.216.798-.143.234-.359.42-.647.555-.288.136-.65.204-1.088.204h-2.313Zm1.035-.865h1.114c.375 0 .646-.072.811-.215a.705.705 0 0 0 .251-.558.854.854 0 0 0-.482-.781 1.187 1.187 0 0 0-.553-.12h-1.14v1.674Zm0-2.419h1.024c.179 0 .34-.033.483-.098a.813.813 0 0 0 .337-.281.754.754 0 0 0 .126-.436.71.71 0 0 0-.234-.546c-.155-.144-.384-.215-.69-.215h-1.046v1.576ZM69.083 11.377V9.153h.383c.128-.102.248-.246.36-.432.11-.186.206-.44.284-.765a7.32 7.32 0 0 0 .162-1.255l.15-2.416h3.652v4.868h.636v2.218h-.993V10h-3.64v1.378h-.994Zm1.588-2.224h2.41v-4h-1.727l-.09 1.548a9.485 9.485 0 0 1-.116 1.043 5.203 5.203 0 0 1-.204.812 3.2 3.2 0 0 1-.273.597ZM64.682 9.999V4.285h3.716v.868h-2.68v1.55h2.488v.868h-2.489v1.56h2.704v.868h-3.739ZM59.627 9.999V4.285h2.142c.44 0 .807.082 1.105.246.3.163.525.388.678.675.154.284.231.608.231.97 0 .367-.077.692-.231.977a1.654 1.654 0 0 1-.684.672c-.3.162-.672.243-1.113.243h-1.42v-.85h1.28c.258 0 .468-.045.631-.135a.845.845 0 0 0 .363-.368c.08-.156.12-.336.12-.538 0-.203-.04-.382-.12-.536a.815.815 0 0 0-.366-.36c-.163-.087-.374-.131-.633-.131h-.948v4.849h-1.035ZM58.389 4.285V10h-1.027V5.144h-2.5V10h-1.026V4.285h4.553Z" fill="#fff"/></svg>