<svg width="1013" height="276" fill="none" xmlns="http://www.w3.org/2000/svg"><path d="M-.001 264.544c1.311-13.55 0-29.544 8.5-44.544 310.5-29 425.26-67.662 430.656-71.128 4.198-2.697 2.437-8.444-2.532-8.831-18.303-1.422-36.652-3.174-54.754-6.332-9.88-1.724-19.873-3.792-29.202-7.573-7.996-3.241-17.179-8.73-21.63-16.37-4.687-8.051-3.061-17.343 2.808-24.309 4.968-5.898 11.456-9.544 18.411-12.5 15.501-6.584 31.729-10.876 48.21-13.87 13.099-2.377 26.384-4.034 39.415-6.579 12.79-2.494 25.833-3.427 38.566-6.241 12.486-2.759 24.69-6.96 36.017-12.921 2.611-1.371 7.304-3.81 7.703-7.152.647-5.37-10.331-6.393-13.628-7.033-7.692-1.49-15.445-2.613-23.216-3.55-15.586-1.883-31.251-2.995-46.854-4.726-6.426-.713-12.874-1.252-19.277-2.18-.315-.044-3.9-.51-5.166-.78-.09-.017-.084-.152 0-.169 7.298-1.562 14.337-2.78 21.596-3.809C461.685.251 487.889-.833 514.16.627c22.338 1.242 44.333 4.506 65.299 12.854 9.486 3.775 17.251 9.876 23.199 18.028 2.532 3.466 4.603 7.606 5.638 11.747 2.262 9.033-1.486 16.747-9.83 21.898-9.307 5.742-20.797 8.186-31.347 10.815-11.011 2.747-22.13 5.078-33.243 7.471-4.259.916-8.53 1.838-12.694 3.124-3.032.933-8.012 2.888-7.871 6.882.039 1.18.647 2.27 1.553 3.034 4.068 3.438 8.929 5.578 13.74 7.719 5.407 2.404 10.989 4.376 16.532 6.438 10.809 4.016 21.708 7.797 32.528 11.786 30.435 11.224 54.539 24.645 82.335 41.577 26.367 16.062 41.665 36.629 69 51 12.767 6.713 45.131 15.157 58.5 20.5 11.614 4.64 26.139 6.017 38 10 14 4.701 74.832 13.416 85.5 15.5 51.783 10.118 100.391 14.926 101.501 14.999 0 .118-1000.41-11.455-1004-11.455H-.001Z" fill="url(#a)"/><defs><linearGradient id="a" x1="491.989" y1="-79.587" x2="500.412" y2="242.742" gradientUnits="userSpaceOnUse"><stop stop-color="#3D90E1"/><stop offset="1" stop-color="#E6EBF0"/></linearGradient></defs></svg>