<svg width="150" height="30" viewBox="0 0 150 30" fill="none" xmlns="http://www.w3.org/2000/svg">
<path d="M45.5975 8.6562C47.519 0.481374 57.9545 1.91153 62.1452 7.31432C64.0998 9.83916 63.7188 12.2404 61.7643 14.6063C58.3851 18.7026 53.4987 20.3799 48.5128 20.0974C43.4773 19.8149 38.1104 18.3848 33.5055 16.266C29.3313 14.3415 26.2504 11.6578 21.4633 11.4988C17.521 11.3753 12.8499 12.9643 10.3984 16.4073C7.10207 21.0332 6.70451 27.1776 0.641983 29.0668C0.0953522 29.2433 0.459778 30.2321 0.989838 29.9496C9.32169 25.8004 15.6327 16.9899 25.4884 16.937C28.2878 16.937 30.8718 16.7604 33.5387 17.7845C36.0233 18.7379 38.2264 20.1857 40.5123 21.5452C44.6036 23.9994 48.9269 26.1358 53.714 26.0829C60.8532 25.9946 69.5826 19.3029 68.8869 10.8985C68.39 4.80714 62.8409 1.08168 57.6066 0.181219C51.9251 -0.789873 46.1772 2.15871 45.349 8.62088C45.3325 8.77979 45.5312 8.77979 45.5644 8.6562H45.5975Z" fill="white"/>
<path d="M68.1077 21.2804C80.6966 22.3398 90.8008 15.2949 102.462 11.8343C107.117 10.4571 113.378 8.86807 117.999 10.8632C120.948 12.1345 123.731 14.2709 126.364 16.1248C131.035 19.3912 137.032 26.5949 143.293 24.4232C149.124 22.428 152.122 11.9049 148.279 6.83761C144.618 2.03512 134.183 4.13621 135.061 11.3223C135.127 11.799 135.756 11.746 135.823 11.3223C136.684 6.3962 142.73 8.62088 144.072 11.9932C145.33 15.1713 143.79 20.168 140.328 20.1151C133.404 20.0091 127.772 13.2292 123.416 8.3737C117.204 1.45246 109.336 1.47012 101.435 5.76058C96.2836 8.56792 92.1259 12.876 86.8585 15.6304C80.8125 18.7909 74.7169 20.0444 68.0746 20.8037C67.8095 20.839 67.8261 21.2804 68.0911 21.298L68.1077 21.2804Z" fill="white"/>
<path d="M99.2988 22.8695C98.8515 25.4826 100.906 27.2306 103.208 27.1776C105.742 27.107 108.939 25.2531 110.165 22.8695C112.269 18.8085 110.314 14.6946 106.289 13.6176C102.661 12.6465 98.0565 12.4523 94.3792 13.2292C93.6172 13.3881 93.7166 14.5004 94.4951 14.5004C99.3816 14.5534 103.456 15.1007 105.974 19.9739C106.902 21.7748 107.051 23.7699 105.212 24.9706C103.042 26.3831 101.021 25.5002 100.607 22.9224C100.491 22.1456 99.4313 22.0396 99.2822 22.8695H99.2988Z" fill="white"/>
</svg>
