<svg width="304" height="30" viewBox="0 0 304 30" fill="none" xmlns="http://www.w3.org/2000/svg">
<path d="M104.403 8.6562C102.481 0.481375 92.0455 1.91153 87.8548 7.31432C85.9002 9.83916 86.2812 12.2404 88.2357 14.6063C91.6149 18.7026 96.5013 20.3799 101.487 20.0974C106.523 19.8149 111.89 18.3848 116.494 16.266C120.669 14.3415 123.75 11.6578 128.537 11.4988C132.479 11.3753 137.15 12.9643 139.602 16.4073C142.898 21.0332 143.295 27.1776 149.358 29.0668C149.905 29.2433 149.54 30.2321 149.01 29.9496C140.678 25.8004 134.367 16.9899 124.512 16.937C121.712 16.937 119.128 16.7604 116.461 17.7845C113.977 18.7379 111.774 20.1857 109.488 21.5452C105.396 23.9994 101.073 26.1358 96.286 26.0829C89.1468 25.9946 80.4174 19.3029 81.1131 10.8985C81.61 4.80714 87.1591 1.08169 92.3934 0.181219C98.0749 -0.789873 103.823 2.15871 104.651 8.62088C104.668 8.77979 104.469 8.77979 104.436 8.6562H104.403Z" fill="#E8AC32"/>
<path d="M81.8923 21.2804C69.3034 22.3398 59.1992 15.2949 47.5379 11.8343C42.8834 10.4571 36.6221 8.86807 32.0006 10.8632C29.0522 12.1345 26.2694 14.2709 23.6357 16.1248C18.9645 19.3912 12.9682 26.5949 6.70693 24.4232C0.876301 22.428 -2.12184 11.9049 1.72108 6.83761C5.38179 2.03512 15.8173 4.13621 14.9394 11.3223C14.8731 11.799 14.2437 11.746 14.1774 11.3223C13.3161 6.3962 7.27012 8.62089 5.92841 11.9932C4.66952 15.1713 6.21001 20.168 9.67194 20.1151C16.5958 20.0091 22.2277 13.2292 26.5841 8.3737C32.7957 1.45246 40.6637 1.47012 48.5649 5.76058C53.7164 8.56792 57.8741 12.876 63.1415 15.6304C69.1875 18.7909 75.2831 20.0445 81.9254 20.8037C82.1905 20.839 82.1739 21.2804 81.9089 21.298L81.8923 21.2804Z" fill="#E8AC32"/>
<path d="M50.7012 22.8695C51.1485 25.4826 49.0945 27.2306 46.792 27.1776C44.2577 27.107 41.0608 25.2531 39.835 22.8695C37.7314 18.8085 39.686 14.6946 43.7111 13.6176C47.3387 12.6465 51.9435 12.4523 55.6208 13.2292C56.3828 13.3881 56.2834 14.5004 55.5049 14.5004C50.6184 14.5534 46.5436 15.1007 44.0258 19.9739C43.0982 21.7748 42.9491 23.7699 44.7878 24.9706C46.9577 26.3831 48.9785 25.5002 49.3926 22.9224C49.5086 22.1456 50.5687 22.0396 50.7178 22.8695H50.7012Z" fill="#E8AC32"/>
<path d="M199.597 8.6562C201.519 0.481374 211.954 1.91153 216.145 7.31432C218.1 9.83916 217.719 12.2404 215.764 14.6063C212.385 18.7026 207.499 20.3799 202.513 20.0974C197.477 19.8149 192.11 18.3848 187.506 16.266C183.331 14.3415 180.25 11.6578 175.463 11.4988C171.521 11.3753 166.85 12.9643 164.398 16.4073C161.102 21.0332 160.705 27.1776 154.642 29.0668C154.095 29.2433 154.46 30.2321 154.99 29.9496C163.322 25.8004 169.633 16.9899 179.488 16.937C182.288 16.937 184.872 16.7604 187.539 17.7845C190.023 18.7379 192.226 20.1857 194.512 21.5452C198.604 23.9994 202.927 26.1358 207.714 26.0829C214.853 25.9946 223.583 19.3029 222.887 10.8985C222.39 4.80714 216.841 1.08168 211.607 0.181219C205.925 -0.789873 200.177 2.15871 199.349 8.62088C199.332 8.77979 199.531 8.77979 199.564 8.6562H199.597Z" fill="#E8AC32"/>
<path d="M222.108 21.2804C234.697 22.3398 244.801 15.2949 256.462 11.8343C261.117 10.4571 267.378 8.86807 271.999 10.8632C274.948 12.1345 277.731 14.2709 280.364 16.1248C285.035 19.3912 291.032 26.5949 297.293 24.4232C303.124 22.428 306.122 11.9049 302.279 6.83761C298.618 2.03512 288.183 4.13621 289.061 11.3223C289.127 11.799 289.756 11.746 289.823 11.3223C290.684 6.3962 296.73 8.62088 298.072 11.9932C299.33 15.1713 297.79 20.168 294.328 20.1151C287.404 20.0091 281.772 13.2292 277.416 8.3737C271.204 1.45246 263.336 1.47012 255.435 5.76058C250.284 8.56792 246.126 12.876 240.858 15.6304C234.813 18.7909 228.717 20.0444 222.075 20.8037C221.81 20.839 221.826 21.2804 222.091 21.298L222.108 21.2804Z" fill="#E8AC32"/>
<path d="M253.299 22.8695C252.852 25.4826 254.906 27.2306 257.208 27.1776C259.742 27.107 262.939 25.2531 264.165 22.8695C266.269 18.8085 264.314 14.6946 260.289 13.6176C256.661 12.6465 252.056 12.4523 248.379 13.2292C247.617 13.3881 247.717 14.5004 248.495 14.5004C253.382 14.5534 257.456 15.1007 259.974 19.9739C260.902 21.7748 261.051 23.7699 259.212 24.9706C257.042 26.3831 255.021 25.5002 254.607 22.9224C254.491 22.1456 253.431 22.0396 253.282 22.8695H253.299Z" fill="#E8AC32"/>
</svg>
