<svg width="153" height="38" fill="none" xmlns="http://www.w3.org/2000/svg"><path d="M23.198 17.869c-.046-4.19 3.438-6.232 3.606-6.323-1.97-2.865-5.027-3.261-6.097-3.292-2.567-.274-5.058 1.524-6.356 1.524-1.3 0-3.347-1.509-5.517-1.463-2.796.046-5.41 1.661-6.83 4.16-2.95 5.104-.749 12.601 2.078 16.73 1.421 2.027 3.071 4.282 5.241 4.19 2.124-.09 2.919-1.34 5.47-1.34 2.553 0 3.27 1.34 5.486 1.295 2.277-.03 3.714-2.026 5.074-4.068 1.635-2.316 2.292-4.602 2.322-4.709-.046-.015-4.416-1.676-4.462-6.704h-.015ZM19.027 5.542c1.146-1.417 1.925-3.352 1.696-5.318-1.65.076-3.713 1.143-4.905 2.53-1.054 1.219-1.986 3.23-1.742 5.12 1.85.136 3.76-.93 4.951-2.332ZM49.987 28.291h-7.228l-1.742 5.12h-3.056l6.846-18.925h3.178l6.846 18.925h-3.117l-1.742-5.12h.015Zm-6.479-2.361h5.73l-2.827-8.305h-.076l-2.827 8.305ZM69.638 26.508c0 4.282-2.308 7.04-5.776 7.04-1.971 0-3.53-.884-4.355-2.407h-.061v6.826h-2.843V19.606h2.75v2.3h.047c.794-1.477 2.475-2.437 4.4-2.437 3.515 0 5.823 2.773 5.823 7.04h.015Zm-2.919 0c0-2.788-1.451-4.632-3.652-4.632-2.2 0-3.637 1.874-3.637 4.632 0 2.758 1.467 4.648 3.637 4.648s3.652-1.829 3.652-4.648ZM84.858 26.508c0 4.282-2.308 7.04-5.777 7.04-1.97 0-3.53-.884-4.355-2.407h-.06v6.826h-2.843V19.606h2.75v2.3h.046c.795-1.477 2.476-2.437 4.401-2.437 3.515 0 5.822 2.773 5.822 7.04h.016Zm-2.92 0c0-2.788-1.45-4.632-3.651-4.632-2.2 0-3.637 1.874-3.637 4.632 0 2.758 1.467 4.648 3.637 4.648s3.652-1.829 3.652-4.648ZM94.928 28.139c.214 1.874 2.032 3.108 4.538 3.108 2.507 0 4.111-1.234 4.111-2.925 0-1.463-1.039-2.347-3.499-2.956l-2.46-.595c-3.484-.838-5.104-2.468-5.104-5.104 0-3.261 2.857-5.5 6.907-5.5 4.049 0 6.754 2.239 6.845 5.5h-2.872c-.168-1.89-1.742-3.033-4.02-3.033-2.276 0-3.85 1.159-3.85 2.835 0 1.34.993 2.118 3.438 2.727l2.094.518c3.896.915 5.516 2.484 5.516 5.242 0 3.535-2.827 5.76-7.32 5.76-4.202 0-7.044-2.164-7.227-5.593h2.903v.016ZM112.714 16.345v3.26h2.629v2.24h-2.629v7.604c0 1.189.52 1.737 1.681 1.737.291 0 .749-.046.932-.06v2.224c-.32.076-.947.137-1.573.137-2.797 0-3.897-1.051-3.897-3.718v-7.908h-2.017v-2.24h2.017v-3.26h2.857v-.016ZM116.856 26.509c0-4.343 2.567-7.07 6.555-7.07 3.989 0 6.556 2.727 6.556 7.07 0 4.342-2.537 7.07-6.556 7.07-4.018 0-6.555-2.713-6.555-7.07Zm10.238 0c0-2.972-1.375-4.74-3.667-4.74s-3.668 1.768-3.668 4.74c0 2.97 1.36 4.738 3.668 4.738 2.307 0 3.667-1.737 3.667-4.738ZM132.335 19.606h2.705v2.346h.061c.428-1.554 1.696-2.498 3.331-2.498.412 0 .749.06.978.106v2.652c-.229-.092-.718-.168-1.268-.168-1.834 0-2.965 1.234-2.965 3.17v8.182h-2.842v-13.79ZM152.49 29.358c-.382 2.499-2.827 4.22-5.96 4.22-4.019 0-6.525-2.681-6.525-7.009 0-4.327 2.506-7.13 6.403-7.13s6.235 2.62 6.235 6.81v.976h-9.765v.167c0 2.362 1.482 3.901 3.729 3.901 1.574 0 2.811-.747 3.193-1.935h2.69Zm-9.597-4.114h6.923c-.062-2.118-1.422-3.505-3.393-3.505-1.971 0-3.377 1.417-3.53 3.505ZM45.904 9.335V1.534h-4.569v7.801h-1.42V.238h7.38v9.097h-1.406.015ZM56.173 5.891c0 2.18-1.1 3.55-2.842 3.55-.978 0-1.758-.426-2.124-1.157H51.1v3.321h-1.36V2.463h1.314v1.128h.107c.413-.778 1.222-1.25 2.154-1.25 1.758 0 2.858 1.356 2.858 3.535v.015Zm-1.39 0c0-1.447-.688-2.33-1.834-2.33-1.146 0-1.864.898-1.864 2.33 0 1.433.718 2.332 1.849 2.332 1.13 0 1.848-.869 1.848-2.332ZM63.95 7.476c-.305 1.234-1.405 1.981-2.979 1.981-1.971 0-3.178-1.341-3.178-3.535s1.238-3.58 3.178-3.58 3.072 1.31 3.072 3.458v.472h-4.86v.077c.046 1.203.749 1.965 1.834 1.965.825 0 1.39-.29 1.635-.838h1.314-.015Zm-1.313-2.21c-.03-1.081-.688-1.782-1.696-1.782-1.009 0-1.712.7-1.788 1.783h3.484ZM65.097 11.133v-2.94h.55c.504-.305.733-1.143.795-2.073l.26-3.657h4.95v5.714h1.07v2.94h-1.253V9.32H66.35v1.798h-1.268l.015.015Zm2.796-7.512-.183 2.59c-.061.778-.23 1.463-.535 1.89v.107h3.148V3.62h-2.43ZM73.929 7.385h1.344c.138.61.703.914 1.498.914.901 0 1.467-.396 1.467-1.021 0-.655-.504-.975-1.467-.975h-1.024V5.25h1.009c.825 0 1.237-.32 1.237-.883 0-.503-.397-.884-1.237-.884-.764 0-1.314.32-1.406.868h-1.314c.137-1.219 1.161-2.01 2.704-2.01 1.635 0 2.568.73 2.568 1.889 0 .685-.444 1.249-1.085 1.401v.107c.886.213 1.344.777 1.344 1.539 0 1.31-1.115 2.164-2.811 2.164-1.498 0-2.72-.686-2.843-2.073l.016.016ZM81.157 7.385c0-1.235.917-1.95 2.552-2.042l1.864-.107v-.594c0-.731-.474-1.128-1.406-1.128-.764 0-1.283.275-1.436.762h-1.314c.137-1.173 1.253-1.935 2.811-1.935 1.727 0 2.705.853 2.705 2.3v4.694H85.62v-.96h-.107c-.413.686-1.161 1.082-2.063 1.082-1.33 0-2.292-.792-2.292-2.057v-.015Zm4.431-.58v-.578l-1.68.106c-.948.061-1.376.381-1.376.99 0 .61.535.976 1.269.976 1.023 0 1.787-.655 1.787-1.493ZM90.54 6.333v3.002h-1.36V2.478h1.36v2.789h.305l2.475-2.789h1.605L91.96 5.663l3.087 3.672h-1.696l-2.506-3.002h-.306ZM96.086 7.385c0-1.235.917-1.95 2.552-2.042l1.864-.107v-.594c0-.731-.474-1.128-1.406-1.128-.764 0-1.283.275-1.436.762h-1.314c.137-1.173 1.253-1.935 2.811-1.935 1.727 0 2.705.853 2.705 2.3v4.694h-1.314v-.96h-.107c-.413.686-1.162 1.082-2.063 1.082-1.33 0-2.292-.792-2.292-2.057v-.015Zm4.416-.58v-.578l-1.68.106c-.948.061-1.376.381-1.376.99 0 .61.535.976 1.268.976 1.024 0 1.788-.655 1.788-1.493ZM103.726 7.385h1.345c.137.61.703.914 1.497.914.902 0 1.467-.396 1.467-1.021 0-.655-.504-.975-1.467-.975h-1.023V5.25h1.008c.825 0 1.238-.32 1.238-.883 0-.503-.397-.884-1.238-.884-.764 0-1.314.32-1.406.868h-1.314c.138-1.219 1.162-2.01 2.705-2.01 1.635 0 2.567.73 2.567 1.889 0 .685-.443 1.249-1.085 1.401v.107c.886.213 1.345.777 1.345 1.539 0 1.31-1.116 2.164-2.812 2.164-1.497 0-2.72-.686-2.842-2.073l.015.016ZM115.08 2.463h3.102c1.345 0 2.139.686 2.139 1.752 0 .701-.489 1.326-1.161 1.448v.107c.886.106 1.467.746 1.467 1.584 0 1.204-.902 1.981-2.414 1.981h-3.133V2.463Zm1.345 1.036v1.783h1.344c.826 0 1.208-.32 1.208-.899 0-.533-.337-.884-1.07-.884h-1.498.016Zm0 2.773v2.012h1.604c.81 0 1.238-.35 1.238-1.006 0-.686-.489-1.006-1.406-1.006h-1.436Z" fill="#fff"/></svg>