<svg width="1920" height="560" viewBox="0 0 1920 560" fill="none" xmlns="http://www.w3.org/2000/svg">
<g clip-path="url(#clip0_109_2435)">
<path d="M-100.5 40.3463C-93.5 33.8463 380 -21.6537 498 9.34632C616 40.3463 670 45.8467 790 268.347C910 490.847 1142.5 466.347 1242 400.347C1394.5 272.18 1752.7 20.746 1965.5 40.3463" stroke="url(#paint0_linear_109_2435)" stroke-width="3"/>
<path d="M1490 234.5C1202.5 504 992 461 981 456.5C1000.33 521.667 1129.2 600.4 1490 394C1850.8 187.6 2044.33 366.333 2096 481.5V115.5C1989.83 65.3337 1720 18.9004 1490 234.5Z" fill="#F0CA62" fill-opacity="0.3"/>
<path d="M-40 560.5C-52.796 549.324 -62.2544 537.88 -68.6953 526.253L-407 122.499C2.5 17.9996 433.833 22.9993 547.5 36.9993C769.5 81.499 838.5 323.5 853.5 417.5C865.5 492.7 925.833 503.166 954.5 499C739.5 538.5 782 165.5 547.5 168C328.835 170.331 -157.64 365.693 -68.6953 526.253L-40 560.5Z" fill="#F0CA62" fill-opacity="0.3"/>
<path d="M44.0853 131.218C46.3799 129.352 47.8504 126.604 48.4249 123.7C48.9586 126.73 50.5464 129.337 52.8395 130.994C55.1235 132.662 58.1015 133.369 60.9049 132.927C60.4909 131.841 60.088 130.765 59.6648 129.691C60.7583 130.084 61.8518 130.477 62.9453 130.87C63.4992 128.173 63.4965 125.336 62.6468 122.737C61.7971 120.138 60.0486 117.772 57.6435 116.434C60.2656 117.167 63.117 116.484 65.2924 114.967C67.4658 113.43 69.0229 111.145 70.0195 108.68C68.8343 108.603 67.6705 108.432 66.5078 108.169C67.5121 107.239 68.4699 106.253 69.3608 105.212C67.4744 104.15 65.4803 103.242 63.3626 102.848C61.245 102.454 58.9653 102.599 57.0199 103.54C55.6023 104.224 54.4162 105.284 53.2728 106.36C53.7612 105.287 54.0221 104.401 54.1372 103.488C54.2487 102.853 54.2796 102.542 54.2796 102.542C54.8137 98.1877 53.0839 93.6176 49.8072 90.7068C49.4998 92.0585 48.9523 93.3625 48.197 94.5334C47.9647 93.3172 47.7415 92.0899 47.5092 90.8737C45.5678 91.8553 44.1868 93.7439 43.414 95.7768C42.6412 97.8098 42.3974 100.016 42.2216 102.184C42.1088 103.639 42.0314 105.142 42.5139 106.508C40.6286 104.104 37.8861 102.563 34.9937 102.206C32.1013 101.848 29.059 102.673 26.7341 104.44C27.6576 105.29 28.5921 106.15 29.5064 107.012C28.1872 107.03 26.8728 107.202 25.5926 107.513C26.5939 110.404 28.4383 113.017 30.9351 114.766C33.441 116.504 36.6156 117.335 39.6362 116.81C36.8612 117.854 34.9025 120.22 33.8407 122.855C32.779 125.49 32.5533 128.401 32.7314 131.251C34.0567 130.566 35.4104 129.961 36.7883 129.393C36.4547 130.686 36.1302 131.968 35.7966 133.261C38.6529 133.981 41.8038 133.115 44.0984 131.248L44.0853 131.218ZM44.8985 118.981C44.9977 118.428 45.4506 118.035 46.0002 118.001C46.0002 118.001 45.9982 117.98 45.9962 117.96C45.9962 117.96 45.9962 117.96 46.0054 117.949L46.5689 115.558C46.5689 115.558 46.5963 115.524 46.5943 115.504C46.3461 115.375 46.1253 115.213 45.9522 115.015C45.9522 115.015 45.9522 115.015 45.9431 115.026L43.9088 116.416C43.9088 116.416 43.8794 116.429 43.8499 116.442C43.9973 116.899 43.8535 117.415 43.4443 117.732C42.9306 118.132 42.1845 118.042 41.7857 117.528C41.387 117.015 41.4774 116.269 41.9912 115.869C42.4389 115.528 43.0442 115.539 43.4564 115.877C43.4655 115.866 43.4838 115.844 43.493 115.833L45.5272 114.442C45.5272 114.442 45.5567 114.429 45.5769 114.427C45.481 114.181 45.4256 113.93 45.4311 113.674L42.9949 113.373C42.9949 113.373 42.9615 113.346 42.9412 113.348C42.7489 113.787 42.2971 114.088 41.7912 114.046C41.1322 114.009 40.6372 113.454 40.6748 112.794C40.7123 112.135 41.2677 111.64 41.9268 111.677C42.4824 111.703 42.934 112.13 43.0264 112.653C43.0376 112.662 43.067 112.649 43.0873 112.647L45.5235 112.948C45.5235 112.948 45.5458 112.966 45.5661 112.964C45.6455 112.731 45.7695 112.534 45.9158 112.356C45.9158 112.356 45.9158 112.356 45.9047 112.346L44.205 110.58C44.205 110.58 44.1918 110.55 44.1695 110.532C43.7413 110.759 43.2131 110.699 42.8303 110.347C42.3565 109.903 42.314 109.16 42.7569 108.665C43.2018 108.191 43.9451 108.147 44.4393 108.59C44.8554 108.968 44.9356 109.575 44.6641 110.042C44.6753 110.051 44.6975 110.07 44.7087 110.079L46.4084 111.846C46.4084 111.846 46.4307 111.864 46.4438 111.893C46.6367 111.772 46.8427 111.68 47.0638 111.637L46.8334 109.192C46.8334 109.192 46.8294 109.151 46.8386 109.14C46.3784 109.042 45.9936 108.671 45.9032 108.168C45.7987 107.523 46.2407 106.916 46.8858 106.81C47.5309 106.705 48.1376 107.147 48.242 107.792C48.3274 108.347 48.0193 108.859 47.5282 109.072C47.5393 109.081 47.5413 109.101 47.5433 109.121L47.7737 111.567C47.7737 111.567 47.7666 111.598 47.7686 111.618C47.8 111.625 47.8406 111.621 47.872 111.629C48.0494 111.662 48.2196 111.727 48.3696 111.794C48.3696 111.794 48.3696 111.794 48.3787 111.783L49.6678 109.688C49.6678 109.688 49.6952 109.655 49.7044 109.644C49.3825 109.287 49.3103 108.761 49.5524 108.307C49.8636 107.723 50.5798 107.509 51.1634 107.819C51.747 108.13 51.9608 108.846 51.6496 109.43C51.3912 109.927 50.819 110.148 50.2939 110.015C50.2848 110.027 50.2868 110.047 50.2685 110.069L48.9795 112.164C48.9795 112.164 48.9612 112.186 48.952 112.197C49.11 112.345 49.2293 112.518 49.3304 112.713C49.3304 112.713 49.3304 112.713 49.3396 112.701L51.6286 111.819C51.6286 111.819 51.6692 111.814 51.6894 111.812C51.6527 111.335 51.913 110.858 52.3747 110.659C52.9724 110.384 53.6737 110.642 53.9475 111.24C54.2214 111.837 53.9627 112.539 53.365 112.814C52.8556 113.049 52.2657 112.882 51.9378 112.464C51.9287 112.475 51.9104 112.497 51.8901 112.499L49.6011 113.382C49.6011 113.382 49.5606 113.386 49.5403 113.388C49.5674 113.56 49.5651 113.744 49.5425 113.931C49.5425 113.931 49.5425 113.931 49.5536 113.94L51.9346 114.512C51.9346 114.512 51.968 114.54 51.9883 114.538C52.2344 114.124 52.7123 113.882 53.2131 113.976C53.8599 114.096 54.2888 114.709 54.1773 115.344C54.0566 115.991 53.4435 116.421 52.8079 116.31C52.2554 116.211 51.8718 115.748 51.8291 115.209C51.8179 115.2 51.7885 115.213 51.7774 115.204L49.3964 114.632C49.3964 114.632 49.363 114.604 49.3427 114.606C49.2155 114.875 49.0235 115.109 48.7849 115.286C48.7849 115.286 48.7849 115.286 48.796 115.295L50.1069 117.377C50.1069 117.377 50.1201 117.407 50.1332 117.436C50.5917 117.309 51.1096 117.472 51.4061 117.883C51.7865 118.419 51.6647 119.158 51.1287 119.539C50.5927 119.92 49.8537 119.799 49.4733 119.263C49.1414 118.805 49.1849 118.206 49.5435 117.792C49.5323 117.783 49.5101 117.764 49.4989 117.755L48.1881 115.673C48.1881 115.673 48.1749 115.644 48.1729 115.624C47.8858 115.724 47.5724 115.765 47.251 115.726C47.251 115.726 47.2511 115.726 47.2419 115.737L46.6784 118.128C46.6784 118.128 46.651 118.161 46.653 118.182C47.0663 118.427 47.3079 118.905 47.223 119.395C47.1023 120.042 46.5003 120.481 45.8535 120.361C45.2068 120.241 44.7687 119.639 44.8894 118.992L44.8985 118.981Z" fill="#D7A438" fill-opacity="0.52"/>
<path d="M1459.09 362.218C1461.38 360.352 1462.85 357.604 1463.42 354.7C1463.96 357.73 1465.55 360.337 1467.84 361.994C1470.12 363.662 1473.1 364.369 1475.9 363.927C1475.49 362.841 1475.09 361.765 1474.66 360.691C1475.76 361.084 1476.85 361.477 1477.95 361.87C1478.5 359.173 1478.5 356.336 1477.65 353.737C1476.8 351.138 1475.05 348.772 1472.64 347.434C1475.27 348.167 1478.12 347.484 1480.29 345.967C1482.47 344.43 1484.02 342.145 1485.02 339.68C1483.83 339.603 1482.67 339.432 1481.51 339.169C1482.51 338.239 1483.47 337.253 1484.36 336.212C1482.47 335.15 1480.48 334.242 1478.36 333.848C1476.24 333.454 1473.97 333.599 1472.02 334.54C1470.6 335.224 1469.42 336.284 1468.27 337.36C1468.76 336.287 1469.02 335.401 1469.14 334.488C1469.25 333.853 1469.28 333.542 1469.28 333.542C1469.81 329.188 1468.08 324.618 1464.81 321.707C1464.5 323.059 1463.95 324.362 1463.2 325.533C1462.96 324.317 1462.74 323.09 1462.51 321.874C1460.57 322.855 1459.19 324.744 1458.41 326.777C1457.64 328.81 1457.4 331.016 1457.22 333.184C1457.11 334.639 1457.03 336.142 1457.51 337.508C1455.63 335.104 1452.89 333.563 1449.99 333.206C1447.1 332.848 1444.06 333.673 1441.73 335.44C1442.66 336.29 1443.59 337.15 1444.51 338.012C1443.19 338.03 1441.87 338.202 1440.59 338.513C1441.59 341.404 1443.44 344.017 1445.94 345.766C1448.44 347.504 1451.62 348.335 1454.64 347.81C1451.86 348.854 1449.9 351.22 1448.84 353.855C1447.78 356.49 1447.55 359.401 1447.73 362.251C1449.06 361.566 1450.41 360.961 1451.79 360.393C1451.45 361.686 1451.13 362.968 1450.8 364.261C1453.65 364.981 1456.8 364.115 1459.1 362.248L1459.09 362.218ZM1459.9 349.981C1460 349.428 1460.45 349.035 1461 349.001C1461 349.001 1461 348.98 1461 348.96C1461 348.96 1461 348.96 1461.01 348.949L1461.57 346.558C1461.57 346.558 1461.6 346.524 1461.59 346.504C1461.35 346.375 1461.13 346.213 1460.95 346.015C1460.95 346.015 1460.95 346.015 1460.94 346.026L1458.91 347.416C1458.91 347.416 1458.88 347.429 1458.85 347.442C1459 347.899 1458.85 348.415 1458.44 348.732C1457.93 349.132 1457.18 349.042 1456.79 348.528C1456.39 348.015 1456.48 347.269 1456.99 346.869C1457.44 346.528 1458.04 346.539 1458.46 346.877C1458.47 346.866 1458.48 346.844 1458.49 346.833L1460.53 345.442C1460.53 345.442 1460.56 345.429 1460.58 345.427C1460.48 345.181 1460.43 344.93 1460.43 344.674L1457.99 344.373C1457.99 344.373 1457.96 344.346 1457.94 344.348C1457.75 344.787 1457.3 345.088 1456.79 345.046C1456.13 345.009 1455.64 344.454 1455.67 343.794C1455.71 343.135 1456.27 342.64 1456.93 342.677C1457.48 342.703 1457.93 343.13 1458.03 343.653C1458.04 343.662 1458.07 343.649 1458.09 343.647L1460.52 343.948C1460.52 343.948 1460.55 343.966 1460.57 343.964C1460.65 343.731 1460.77 343.534 1460.92 343.356C1460.92 343.356 1460.92 343.356 1460.9 343.346L1459.2 341.58C1459.2 341.58 1459.19 341.55 1459.17 341.532C1458.74 341.759 1458.21 341.699 1457.83 341.347C1457.36 340.903 1457.31 340.16 1457.76 339.665C1458.2 339.191 1458.95 339.147 1459.44 339.59C1459.86 339.968 1459.94 340.575 1459.66 341.042C1459.68 341.051 1459.7 341.07 1459.71 341.079L1461.41 342.846C1461.41 342.846 1461.43 342.864 1461.44 342.893C1461.64 342.772 1461.84 342.68 1462.06 342.637L1461.83 340.192C1461.83 340.192 1461.83 340.151 1461.84 340.14C1461.38 340.042 1460.99 339.671 1460.9 339.168C1460.8 338.523 1461.24 337.916 1461.89 337.81C1462.53 337.705 1463.14 338.147 1463.24 338.792C1463.33 339.347 1463.02 339.859 1462.53 340.072C1462.54 340.081 1462.54 340.101 1462.54 340.121L1462.77 342.567C1462.77 342.567 1462.77 342.598 1462.77 342.618C1462.8 342.625 1462.84 342.621 1462.87 342.629C1463.05 342.662 1463.22 342.727 1463.37 342.794C1463.37 342.794 1463.37 342.794 1463.38 342.783L1464.67 340.688C1464.67 340.688 1464.7 340.655 1464.7 340.644C1464.38 340.287 1464.31 339.761 1464.55 339.307C1464.86 338.723 1465.58 338.509 1466.16 338.819C1466.75 339.13 1466.96 339.846 1466.65 340.43C1466.39 340.927 1465.82 341.148 1465.29 341.015C1465.28 341.027 1465.29 341.047 1465.27 341.069L1463.98 343.164C1463.98 343.164 1463.96 343.186 1463.95 343.197C1464.11 343.345 1464.23 343.518 1464.33 343.713C1464.33 343.713 1464.33 343.713 1464.34 343.701L1466.63 342.819C1466.63 342.819 1466.67 342.814 1466.69 342.812C1466.65 342.335 1466.91 341.858 1467.37 341.659C1467.97 341.384 1468.67 341.642 1468.95 342.24C1469.22 342.837 1468.96 343.539 1468.37 343.814C1467.86 344.049 1467.27 343.882 1466.94 343.464C1466.93 343.475 1466.91 343.497 1466.89 343.499L1464.6 344.382C1464.6 344.382 1464.56 344.386 1464.54 344.388C1464.57 344.56 1464.57 344.744 1464.54 344.931C1464.54 344.931 1464.54 344.931 1464.55 344.94L1466.93 345.512C1466.93 345.512 1466.97 345.54 1466.99 345.538C1467.23 345.124 1467.71 344.882 1468.21 344.976C1468.86 345.096 1469.29 345.709 1469.18 346.344C1469.06 346.991 1468.44 347.421 1467.81 347.31C1467.26 347.211 1466.87 346.748 1466.83 346.209C1466.82 346.2 1466.79 346.213 1466.78 346.204L1464.4 345.632C1464.4 345.632 1464.36 345.604 1464.34 345.606C1464.22 345.875 1464.02 346.109 1463.78 346.286C1463.78 346.286 1463.78 346.286 1463.8 346.295L1465.11 348.377C1465.11 348.377 1465.12 348.407 1465.13 348.436C1465.59 348.309 1466.11 348.472 1466.41 348.883C1466.79 349.419 1466.66 350.158 1466.13 350.539C1465.59 350.92 1464.85 350.799 1464.47 350.263C1464.14 349.805 1464.18 349.206 1464.54 348.792C1464.53 348.783 1464.51 348.764 1464.5 348.755L1463.19 346.673C1463.19 346.673 1463.17 346.644 1463.17 346.624C1462.89 346.724 1462.57 346.765 1462.25 346.726C1462.25 346.726 1462.25 346.726 1462.24 346.737L1461.68 349.128C1461.68 349.128 1461.65 349.161 1461.65 349.182C1462.07 349.427 1462.31 349.905 1462.22 350.395C1462.1 351.042 1461.5 351.481 1460.85 351.361C1460.21 351.241 1459.77 350.639 1459.89 349.992L1459.9 349.981Z" fill="#D7A438" fill-opacity="0.52"/>
<path d="M1767.03 243.5C1767.83 241.468 1767.78 239.167 1767.1 237.089C1768.54 238.846 1770.5 239.95 1772.58 240.187C1774.65 240.434 1776.83 239.812 1778.47 238.512C1777.81 237.963 1777.16 237.416 1776.5 236.878C1777.35 236.735 1778.19 236.592 1779.04 236.45C1778.42 234.513 1777.39 232.687 1775.91 231.322C1774.42 229.956 1772.44 229.066 1770.4 229.075C1772.36 228.597 1773.94 227.126 1774.8 225.362C1775.64 223.586 1775.81 221.551 1775.56 219.603C1774.77 219.983 1773.96 220.294 1773.12 220.545C1773.43 219.583 1773.69 218.602 1773.88 217.609C1772.29 217.608 1770.67 217.746 1769.17 218.259C1767.66 218.771 1766.25 219.69 1765.33 221C1764.67 221.953 1764.29 223.065 1763.94 224.171C1763.87 223.304 1763.72 222.639 1763.46 222.01C1763.3 221.56 1763.21 221.349 1763.21 221.349C1761.98 218.352 1759.21 216.036 1756.05 215.349C1756.34 216.33 1756.46 217.368 1756.39 218.395C1755.8 217.696 1755.22 216.987 1754.63 216.288C1753.73 217.622 1753.53 219.338 1753.77 220.927C1754 222.515 1754.65 224.023 1755.32 225.483C1755.77 226.461 1756.26 227.456 1757.07 228.161C1754.99 227.295 1752.66 227.296 1750.67 228.113C1748.68 228.93 1747.02 230.562 1746.16 232.541C1747.07 232.754 1747.98 232.969 1748.88 233.193C1748.04 233.682 1747.25 234.269 1746.54 234.933C1748.23 236.431 1750.36 237.446 1752.6 237.668C1754.85 237.88 1757.19 237.266 1758.95 235.835C1757.54 237.511 1757.13 239.743 1757.4 241.824C1757.67 243.905 1758.58 245.86 1759.73 247.631C1760.33 246.71 1760.99 245.83 1761.67 244.966C1761.92 245.919 1762.18 246.862 1762.43 247.815C1764.53 247.245 1766.24 245.547 1767.04 243.514L1767.03 243.5ZM1763.12 235.327C1762.98 234.936 1763.13 234.519 1763.47 234.298C1763.47 234.298 1763.47 234.285 1763.46 234.273C1763.46 234.273 1763.46 234.273 1763.46 234.262L1762.96 232.519C1762.96 232.519 1762.96 232.488 1762.95 232.475C1762.75 232.482 1762.55 232.458 1762.36 232.393C1762.36 232.393 1762.36 232.393 1762.36 232.403L1761.55 234.035C1761.55 234.035 1761.54 234.054 1761.53 234.073C1761.79 234.313 1761.88 234.698 1761.73 235.05C1761.55 235.493 1761.03 235.705 1760.59 235.519C1760.15 235.333 1759.94 234.82 1760.12 234.377C1760.29 233.995 1760.68 233.783 1761.07 233.851C1761.07 233.841 1761.07 233.82 1761.08 233.81L1761.88 232.178C1761.88 232.178 1761.9 232.159 1761.91 232.15C1761.76 232.026 1761.63 231.885 1761.54 231.718L1759.86 232.406C1759.86 232.406 1759.83 232.401 1759.82 232.409C1759.86 232.762 1759.67 233.119 1759.33 233.275C1758.9 233.49 1758.38 233.312 1758.16 232.874C1757.95 232.436 1758.13 231.916 1758.56 231.701C1758.93 231.517 1759.38 231.628 1759.62 231.931C1759.63 231.933 1759.65 231.914 1759.66 231.905L1761.34 231.217C1761.34 231.217 1761.36 231.221 1761.37 231.212C1761.34 231.033 1761.35 230.862 1761.38 230.694C1761.38 230.694 1761.38 230.694 1761.37 230.692L1759.63 230.17C1759.63 230.17 1759.61 230.156 1759.59 230.152C1759.4 230.453 1759.04 230.606 1758.66 230.518C1758.2 230.403 1757.9 229.94 1758.01 229.461C1758.12 228.995 1758.58 228.698 1759.06 228.804C1759.47 228.897 1759.74 229.259 1759.73 229.658C1759.74 229.66 1759.76 229.663 1759.78 229.665L1761.51 230.187C1761.51 230.187 1761.53 230.191 1761.55 230.205C1761.63 230.057 1761.73 229.923 1761.86 229.816L1760.82 228.325C1760.82 228.325 1760.8 228.3 1760.81 228.29C1760.48 228.394 1760.09 228.294 1759.85 228.003C1759.55 227.625 1759.62 227.074 1759.99 226.773C1760.37 226.472 1760.92 226.537 1761.22 226.914C1761.48 227.24 1761.47 227.682 1761.23 227.996C1761.24 227.998 1761.25 228.01 1761.25 228.023L1762.29 229.514C1762.29 229.514 1762.29 229.536 1762.3 229.549C1762.33 229.542 1762.35 229.525 1762.37 229.518C1762.5 229.475 1762.63 229.456 1762.75 229.444C1762.75 229.444 1762.75 229.444 1762.75 229.434L1762.83 227.619C1762.83 227.619 1762.83 227.588 1762.83 227.577C1762.5 227.464 1762.26 227.151 1762.25 226.771C1762.24 226.283 1762.62 225.886 1763.11 225.874C1763.6 225.863 1764 226.247 1764.01 226.735C1764.02 227.149 1763.73 227.498 1763.35 227.603C1763.35 227.613 1763.35 227.626 1763.35 227.647L1763.28 229.462C1763.28 229.462 1763.28 229.483 1763.27 229.493C1763.43 229.531 1763.57 229.599 1763.7 229.688C1763.7 229.688 1763.7 229.688 1763.71 229.678L1764.86 228.281C1764.86 228.281 1764.88 228.263 1764.9 228.255C1764.7 227.96 1764.7 227.559 1764.92 227.264C1765.21 226.871 1765.75 226.783 1766.14 227.069C1766.54 227.354 1766.62 227.9 1766.34 228.293C1766.1 228.628 1765.65 228.734 1765.29 228.584C1765.29 228.595 1765.29 228.615 1765.27 228.624L1764.12 230.021C1764.12 230.021 1764.1 230.038 1764.08 230.047C1764.16 230.148 1764.23 230.267 1764.28 230.395C1764.28 230.395 1764.28 230.395 1764.29 230.397L1766.03 229.904C1766.03 229.904 1766.06 229.91 1766.08 229.901C1766.08 229.546 1766.3 229.217 1766.66 229.096C1767.12 228.939 1767.62 229.178 1767.78 229.628C1767.93 230.088 1767.69 230.587 1767.24 230.745C1766.85 230.882 1766.44 230.722 1766.22 230.391C1766.21 230.389 1766.19 230.408 1766.18 230.406L1764.44 230.899C1764.44 230.899 1764.41 230.894 1764.4 230.903C1764.41 231.122 1764.37 231.342 1764.28 231.542C1764.28 231.542 1764.28 231.542 1764.29 231.544L1765.89 232.41C1765.89 232.41 1765.91 232.424 1765.93 232.438C1766.18 232.19 1766.57 232.108 1766.91 232.265C1767.35 232.473 1767.54 232.993 1767.33 233.432C1767.13 233.871 1766.61 234.061 1766.17 233.854C1765.79 233.678 1765.6 233.277 1765.68 232.881C1765.67 232.879 1765.65 232.875 1765.64 232.873L1764.04 232.008C1764.04 232.008 1764.02 231.993 1764.01 231.981C1763.86 232.149 1763.68 232.29 1763.46 232.38C1763.46 232.38 1763.46 232.38 1763.45 232.391L1763.96 234.134C1763.96 234.134 1763.95 234.166 1763.96 234.178C1764.31 234.186 1764.64 234.407 1764.77 234.753C1764.92 235.213 1764.69 235.713 1764.23 235.87C1763.77 236.027 1763.27 235.798 1763.12 235.338L1763.12 235.327Z" fill="#D7A438" fill-opacity="0.52"/>
<path d="M1920.93 100.228C1922.12 97.2024 1922.05 93.777 1921.04 90.6843C1923.18 93.3002 1926.11 94.9435 1929.2 95.2955C1932.29 95.6632 1935.52 94.7369 1937.97 92.8025C1936.99 91.9853 1936.02 91.171 1935.04 90.3695C1936.3 90.1571 1937.56 89.9447 1938.82 89.7323C1937.89 86.849 1936.36 84.132 1934.15 82.0992C1931.93 80.0665 1928.98 78.741 1925.96 78.7544C1928.86 78.044 1931.23 75.8534 1932.5 73.2277C1933.75 70.5836 1934.01 67.5549 1933.64 64.6558C1932.46 65.2208 1931.25 65.6838 1930 66.0578C1930.46 64.6261 1930.85 63.165 1931.14 61.6873C1928.76 61.686 1926.36 61.8903 1924.12 62.6538C1921.88 63.4174 1919.77 64.7843 1918.41 66.7341C1917.42 68.1531 1916.86 69.808 1916.34 71.4556C1916.23 70.1645 1916 69.1746 1915.62 68.238C1915.39 67.5685 1915.25 67.2545 1915.25 67.2545C1913.41 62.7936 1909.29 59.3461 1904.59 58.3222C1905.02 59.7831 1905.2 61.3277 1905.1 62.8568C1904.23 61.8165 1903.35 60.7606 1902.47 59.7203C1901.14 61.7069 1900.84 64.2608 1901.19 66.6254C1901.55 68.99 1902.5 71.2351 1903.5 73.4076C1904.18 74.863 1904.91 76.3451 1906.11 77.3936C1903.01 76.1058 1899.55 76.1073 1896.59 77.3228C1893.62 78.5383 1891.15 80.9678 1889.87 83.914C1891.22 84.2315 1892.58 84.5517 1893.92 84.8848C1892.66 85.6133 1891.49 86.4859 1890.44 87.4742C1892.95 89.7053 1896.13 91.2153 1899.46 91.5462C1902.8 91.8615 1906.29 90.948 1908.9 88.817C1906.81 91.3124 1906.2 94.635 1906.61 97.7325C1907.01 100.83 1908.36 103.741 1910.07 106.376C1910.97 105.006 1911.94 103.696 1912.95 102.41C1913.33 103.829 1913.71 105.232 1914.09 106.651C1917.21 105.802 1919.76 103.274 1920.96 100.249L1920.93 100.228ZM1915.12 88.0618C1914.91 87.4787 1915.13 86.8579 1915.64 86.529C1915.64 86.529 1915.63 86.5107 1915.62 86.4923C1915.62 86.4923 1915.62 86.4923 1915.62 86.4767L1914.87 83.8817C1914.87 83.8817 1914.88 83.8348 1914.87 83.8165C1914.56 83.8266 1914.26 83.79 1913.99 83.6936C1913.99 83.6936 1913.99 83.6936 1913.99 83.7092L1912.79 86.1375C1912.79 86.1375 1912.76 86.166 1912.74 86.1944C1913.13 86.5525 1913.27 87.1246 1913.05 87.649C1912.77 88.3084 1912.01 88.6244 1911.35 88.3472C1910.69 88.07 1910.38 87.306 1910.65 86.6466C1910.9 86.0781 1911.48 85.7631 1912.06 85.8649C1912.06 85.8493 1912.07 85.818 1912.07 85.8024L1913.27 83.3741C1913.27 83.3741 1913.29 83.3457 1913.31 83.3328C1913.09 83.1483 1912.9 82.938 1912.77 82.6892L1910.27 83.7136C1910.27 83.7136 1910.22 83.7053 1910.2 83.7182C1910.26 84.2425 1909.99 84.7743 1909.48 85.0067C1908.83 85.3264 1908.05 85.0612 1907.73 84.4092C1907.42 83.7573 1907.68 82.9831 1908.33 82.6634C1908.88 82.3896 1909.54 82.5548 1909.91 83.0065C1909.93 83.0093 1909.95 82.9808 1909.97 82.968L1912.46 81.9436C1912.46 81.9436 1912.49 81.949 1912.51 81.9362C1912.46 81.6699 1912.48 81.4146 1912.52 81.1648C1912.52 81.1648 1912.52 81.1648 1912.51 81.1621L1909.92 80.3847C1909.92 80.3847 1909.9 80.3636 1909.86 80.3581C1909.58 80.8063 1909.04 81.0333 1908.48 80.903C1907.79 80.7323 1907.35 80.0427 1907.51 79.3301C1907.68 78.6358 1908.36 78.1939 1909.08 78.3518C1909.68 78.4903 1910.08 79.0284 1910.07 79.6225C1910.09 79.6253 1910.12 79.6308 1910.14 79.6335L1912.72 80.4108C1912.72 80.4108 1912.75 80.4163 1912.78 80.4375C1912.9 80.217 1913.04 80.0177 1913.23 79.8579L1911.7 77.6386C1911.7 77.6386 1911.67 77.6019 1911.67 77.5863C1911.18 77.7407 1910.61 77.592 1910.25 77.1586C1909.8 76.5967 1909.9 75.7766 1910.46 75.3284C1911.02 74.8801 1911.84 74.9764 1912.29 75.5383C1912.67 76.024 1912.65 76.6806 1912.3 77.1491C1912.31 77.1518 1912.32 77.1702 1912.34 77.1885L1913.88 79.4078C1913.88 79.4078 1913.89 79.4418 1913.9 79.4601C1913.93 79.45 1913.97 79.4243 1914 79.4142C1914.19 79.3508 1914.39 79.3214 1914.57 79.3048C1914.57 79.3048 1914.57 79.3048 1914.57 79.2892L1914.68 76.5875C1914.68 76.5875 1914.69 76.5407 1914.69 76.5251C1914.19 76.3562 1913.84 75.8915 1913.82 75.3259C1913.81 74.5986 1914.38 74.007 1915.11 73.9904C1915.83 73.9737 1916.42 74.5448 1916.44 75.2721C1916.46 75.8874 1916.03 76.4073 1915.46 76.5635C1915.45 76.5791 1915.47 76.5974 1915.46 76.6287L1915.35 79.3304C1915.35 79.3304 1915.35 79.3616 1915.34 79.3772C1915.58 79.4341 1915.78 79.5351 1915.99 79.6673C1915.99 79.6673 1915.99 79.6673 1915.99 79.6517L1917.71 77.5723C1917.71 77.5723 1917.74 77.5465 1917.76 77.5337C1917.47 77.0957 1917.46 76.4988 1917.8 76.0589C1918.22 75.4738 1919.03 75.3433 1919.62 75.7683C1920.2 76.1934 1920.33 77.0052 1919.91 77.5902C1919.54 78.0899 1918.89 78.248 1918.35 78.024C1918.35 78.0396 1918.34 78.0708 1918.32 78.0836L1916.61 80.1631C1916.61 80.1631 1916.57 80.1888 1916.55 80.2016C1916.67 80.3513 1916.77 80.5295 1916.84 80.7205C1916.84 80.7205 1916.84 80.7205 1916.86 80.7232L1919.45 79.9889C1919.45 79.9889 1919.5 79.9972 1919.52 79.9844C1919.53 79.4554 1919.86 78.9659 1920.39 78.7858C1921.07 78.5524 1921.81 78.9086 1922.05 79.578C1922.28 80.263 1921.92 81.0051 1921.26 81.2412C1920.67 81.4443 1920.06 81.2065 1919.72 80.7135C1919.71 80.7107 1919.69 80.7392 1919.67 80.7364L1917.08 81.4707C1917.08 81.4707 1917.04 81.4624 1917.02 81.4753C1917.04 81.8013 1916.98 82.1291 1916.85 82.4276C1916.85 82.4276 1916.85 82.4276 1916.86 82.4304L1919.24 83.7192C1919.24 83.7192 1919.27 83.7403 1919.3 83.7615C1919.67 83.3922 1920.25 83.27 1920.76 83.504C1921.41 83.8125 1921.7 84.5866 1921.39 85.2405C1921.08 85.8944 1920.3 86.1764 1919.65 85.868C1919.09 85.6073 1918.81 85.0105 1918.93 84.42C1918.91 84.4172 1918.88 84.4117 1918.86 84.409L1916.49 83.1201C1916.49 83.1201 1916.46 83.0989 1916.44 83.0806C1916.22 83.3313 1915.95 83.5399 1915.62 83.6749C1915.62 83.6749 1915.62 83.6749 1915.61 83.6905L1916.36 86.2855C1916.36 86.2855 1916.35 86.3324 1916.37 86.3508C1916.89 86.3635 1917.38 86.6912 1917.57 87.2064C1917.8 87.8914 1917.46 88.6363 1916.77 88.8697C1916.09 89.103 1915.35 88.7624 1915.11 88.0774L1915.12 88.0618Z" fill="#D7A438" fill-opacity="0.52"/>
<path d="M0.334547 340.344C3.21146 338.004 5.05524 334.559 5.77547 330.918C6.44456 334.716 8.43542 337.985 11.3105 340.062C14.174 342.153 17.9078 343.041 21.4227 342.486C20.9036 341.125 20.3984 339.776 19.8679 338.429C21.2389 338.922 22.6098 339.415 23.9808 339.908C24.6752 336.526 24.672 332.969 23.6066 329.711C22.5413 326.452 20.3491 323.485 17.3335 321.808C20.6211 322.727 24.1961 321.87 26.9236 319.969C29.6486 318.041 31.6008 315.176 32.8503 312.086C31.3643 311.99 29.9051 311.775 28.4474 311.445C29.7066 310.28 30.9074 309.043 32.0244 307.738C29.6593 306.406 27.1591 305.268 24.504 304.774C21.849 304.28 18.9907 304.462 16.5517 305.642C14.7743 306.499 13.2873 307.828 11.8536 309.177C12.466 307.832 12.7932 306.721 12.9374 305.577C13.0772 304.78 13.116 304.391 13.116 304.391C13.7857 298.931 11.6169 293.201 7.50857 289.552C7.12323 291.246 6.43666 292.881 5.48974 294.349C5.19846 292.825 4.91866 291.286 4.62738 289.761C2.19337 290.992 0.461896 293.359 -0.507063 295.908C-1.47602 298.457 -1.78167 301.223 -2.00208 303.941C-2.14353 305.766 -2.24058 307.65 -1.63557 309.362C-3.99933 306.348 -7.43781 304.417 -11.0642 303.969C-14.6907 303.52 -18.505 304.554 -21.4199 306.77C-20.2621 307.836 -19.0904 308.914 -17.9441 309.994C-19.5981 310.017 -21.2461 310.232 -22.8511 310.623C-21.5957 314.248 -19.2832 317.524 -16.1528 319.717C-13.0109 321.895 -9.03072 322.938 -5.24363 322.279C-8.72281 323.588 -11.1786 326.554 -12.5098 329.858C-13.841 333.162 -14.1239 336.812 -13.9007 340.385C-12.239 339.526 -10.5418 338.767 -8.81424 338.056C-9.23251 339.677 -9.63934 341.284 -10.0576 342.905C-6.47641 343.808 -2.52591 342.722 0.351006 340.381L0.334547 340.344ZM1.35414 325.001C1.47855 324.308 2.04636 323.815 2.73549 323.772C2.73549 323.772 2.73297 323.747 2.73047 323.721C2.73047 323.721 2.73048 323.721 2.74194 323.707L3.44844 320.709C3.44844 320.709 3.48284 320.667 3.48034 320.642C3.16912 320.48 2.89226 320.277 2.67526 320.028C2.67526 320.028 2.67528 320.028 2.66382 320.042L0.113293 321.785C0.113293 321.785 0.076386 321.802 0.039492 321.818C0.224207 322.391 0.0439345 323.038 -0.469042 323.436C-1.11313 323.936 -2.04865 323.824 -2.54854 323.18C-3.04844 322.536 -2.93508 321.6 -2.29099 321.1C-1.72966 320.672 -0.970705 320.686 -0.453938 321.11C-0.442473 321.096 -0.419535 321.068 -0.408071 321.054L2.14245 319.311C2.14245 319.311 2.17935 319.294 2.20478 319.292C2.08449 318.983 2.01505 318.669 2.02192 318.347L-1.03252 317.97C-1.03252 317.97 -1.07444 317.936 -1.09987 317.938C-1.34101 318.489 -1.90736 318.866 -2.54168 318.813C-3.36797 318.767 -3.98854 318.071 -3.94147 317.245C-3.8944 316.418 -3.198 315.797 -2.3717 315.843C-1.67506 315.877 -1.1089 316.411 -0.99297 317.067C-0.979003 317.079 -0.94211 317.062 -0.916678 317.06L2.13776 317.437C2.13776 317.437 2.16571 317.459 2.19114 317.457C2.29076 317.165 2.44623 316.918 2.62965 316.694C2.62965 316.694 2.62965 316.694 2.61569 316.683L0.484611 314.468C0.484611 314.468 0.468152 314.431 0.440218 314.408C-0.0967339 314.692 -0.759007 314.617 -1.23888 314.177C-1.83299 313.619 -1.88619 312.687 -1.33092 312.067C-0.773132 311.472 0.158843 311.418 0.778386 311.973C1.30016 312.448 1.40068 313.208 1.06031 313.794C1.07427 313.806 1.1022 313.828 1.11617 313.84L3.24728 316.055C3.24728 316.055 3.27521 316.078 3.29168 316.115C3.53347 315.962 3.79174 315.847 4.06897 315.794L3.78011 312.728C3.78011 312.728 3.7751 312.677 3.78657 312.663C3.20957 312.54 2.72722 312.075 2.61379 311.444C2.48285 310.635 3.03704 309.874 3.84582 309.742C4.6546 309.61 5.41527 310.164 5.54622 310.973C5.65318 311.668 5.26696 312.31 4.65121 312.577C4.66518 312.588 4.66769 312.614 4.6702 312.639L4.95906 315.705C4.95906 315.705 4.9501 315.745 4.9526 315.77C4.992 315.779 5.04284 315.774 5.08223 315.783C5.30465 315.825 5.51811 315.906 5.70614 315.991C5.70614 315.991 5.70615 315.99 5.71761 315.977L7.33381 313.35C7.33381 313.35 7.36818 313.309 7.37964 313.295C6.97606 312.847 6.88559 312.188 7.18906 311.618C7.57924 310.886 8.47724 310.617 9.20891 311.007C9.94059 311.396 10.2087 312.294 9.81849 313.026C9.49459 313.649 8.77711 313.926 8.11882 313.76C8.10736 313.774 8.10989 313.8 8.08696 313.828L6.47076 316.454C6.47076 316.454 6.44784 316.482 6.43637 316.496C6.63441 316.682 6.78407 316.898 6.91082 317.142C6.91082 317.142 6.91083 317.142 6.92229 317.128L9.79219 316.021C9.79219 316.021 9.84305 316.016 9.86848 316.013C9.82238 315.414 10.1488 314.817 10.7276 314.567C11.477 314.223 12.3562 314.546 12.6996 315.296C13.043 316.045 12.7186 316.924 11.9693 317.269C11.3306 317.563 10.591 317.354 10.1799 316.83C10.1685 316.844 10.1456 316.872 10.1201 316.874L7.25023 317.981C7.25023 317.981 7.19937 317.987 7.17394 317.989C7.20792 318.204 7.20501 318.435 7.17667 318.669C7.17667 318.669 7.17667 318.669 7.19064 318.681L10.1759 319.399C10.1759 319.399 10.2178 319.433 10.2432 319.43C10.5517 318.912 11.151 318.608 11.7788 318.726C12.5897 318.876 13.1275 319.645 12.9877 320.442C12.8364 321.253 12.0677 321.792 11.2708 321.653C10.5781 321.529 10.0972 320.947 10.0436 320.272C10.0296 320.261 9.99272 320.277 9.97875 320.266L6.99348 319.548C6.99348 319.548 6.95161 319.514 6.92617 319.516C6.76673 319.853 6.52596 320.147 6.22685 320.369C6.22685 320.369 6.22685 320.369 6.24082 320.38L7.88435 322.991C7.88435 322.991 7.90084 323.028 7.9173 323.064C8.4922 322.905 9.14154 323.11 9.51323 323.625C9.9902 324.297 9.83744 325.224 9.16542 325.701C8.4934 326.179 7.56685 326.027 7.08988 325.355C6.67379 324.78 6.72834 324.03 7.17794 323.51C7.16397 323.499 7.13604 323.476 7.12207 323.464L5.47853 320.854C5.47853 320.854 5.46209 320.817 5.45959 320.792C5.0996 320.917 4.70665 320.969 4.30371 320.92C4.30371 320.92 4.30374 320.92 4.29227 320.934L3.58578 323.931C3.58578 323.931 3.55137 323.973 3.55388 323.999C4.0721 324.307 4.37501 324.906 4.26852 325.52C4.11723 326.331 3.36243 326.881 2.55155 326.731C1.74067 326.58 1.1914 325.826 1.3427 325.015L1.35414 325.001Z" fill="#D7A438" fill-opacity="0.52"/>
<path d="M617.383 94.3714C619.133 93.8864 620.636 92.7031 621.674 91.2111C621.228 93.0464 621.48 94.9038 622.361 96.3999C623.235 97.9001 624.736 99.0312 626.422 99.4724C626.456 98.76 626.494 98.0555 626.521 97.3472C627.039 97.8375 627.557 98.3278 628.075 98.8181C629.051 97.4374 629.748 95.8413 629.91 94.1705C630.071 92.4997 629.67 90.7385 628.647 89.3939C629.941 90.4515 631.713 90.7694 633.31 90.4518C634.911 90.1222 636.349 89.2204 637.516 88.0794C636.869 87.7445 636.256 87.3618 635.667 86.9274C636.461 86.652 637.242 86.3331 637.999 85.9669C637.2 84.9052 636.302 83.9037 635.208 83.161C634.114 82.4182 632.796 81.9384 631.47 81.9887C630.505 82.0243 629.577 82.3286 628.669 82.6524C629.208 82.1694 629.572 81.7352 629.862 81.2502C630.081 80.92 630.175 80.7531 630.175 80.7531C631.547 78.4355 631.699 75.4395 630.573 72.9959C630.067 73.6804 629.438 74.279 628.725 74.7516C628.894 74.0104 629.071 73.2652 629.239 72.5241C627.906 72.5982 626.664 73.3204 625.729 74.2736C624.794 75.2267 624.114 76.4072 623.482 77.5834C623.06 78.3741 622.646 79.2003 622.582 80.087C622.113 78.271 620.95 76.7297 619.411 75.8164C617.873 74.9032 615.959 74.6182 614.216 75.0398C614.526 75.7455 614.84 76.459 615.142 77.1686C614.396 76.8542 613.614 76.6272 612.817 76.4873C612.669 78.3597 613.063 80.2832 614.037 81.8814C615.018 83.4757 616.599 84.7248 618.427 85.1728C616.61 85.0768 614.926 85.9253 613.68 87.146C612.434 88.3667 611.591 89.9481 610.989 91.5948C611.903 91.5359 612.814 91.5285 613.728 91.5488C613.222 92.1938 612.724 92.8348 612.218 93.4798C613.648 94.5877 615.633 94.8762 617.383 94.3912L617.383 94.3714ZM620.852 87.6889C621.044 87.4025 621.396 87.2929 621.713 87.409C621.713 87.409 621.717 87.3971 621.721 87.3852C621.721 87.3852 621.721 87.3852 621.729 87.3811L622.634 86.1751C622.634 86.1751 622.658 86.163 622.662 86.1511C622.554 86.0175 622.47 85.8718 622.421 85.7179C622.421 85.7179 622.421 85.7179 622.413 85.7219L620.927 86.003C620.927 86.003 620.907 86.0032 620.888 86.0033C620.858 86.2963 620.65 86.5512 620.342 86.6289C619.955 86.727 619.557 86.4929 619.459 86.106C619.361 85.7191 619.596 85.3215 619.983 85.2234C620.319 85.1416 620.657 85.2971 620.805 85.5886C620.813 85.5846 620.829 85.5766 620.837 85.5725L622.323 85.2914C622.323 85.2914 622.343 85.2912 622.355 85.2951C622.362 85.1329 622.392 84.9783 622.458 84.8354L621.162 84.0666C621.162 84.0666 621.15 84.0429 621.138 84.0391C620.922 84.2386 620.594 84.2967 620.32 84.1486C619.958 83.9656 619.816 83.5316 620 83.1701C620.183 82.8086 620.618 82.6666 620.979 82.8496C621.285 83.0014 621.434 83.3522 621.357 83.6693C621.361 83.6772 621.381 83.6771 621.393 83.6809L622.689 84.4497C622.689 84.4497 622.697 84.4655 622.709 84.4693C622.811 84.3577 622.929 84.2777 623.055 84.2133C623.055 84.2133 623.055 84.2133 623.051 84.2055L622.53 82.7934C622.53 82.7934 622.53 82.7736 622.522 82.7579C622.225 82.7801 621.943 82.6162 621.814 82.3245C621.657 81.9579 621.816 81.5293 622.187 81.3601C622.554 81.2029 622.983 81.3616 623.152 81.7321C623.293 82.0474 623.189 82.4083 622.921 82.6043C622.925 82.6122 622.933 82.6279 622.937 82.6358L623.458 84.0479C623.458 84.0479 623.466 84.0636 623.466 84.0834C623.605 84.0625 623.743 84.0614 623.878 84.0919L624.35 82.6599C624.35 82.6599 624.358 82.6361 624.366 82.6321C624.131 82.4639 624.006 82.1603 624.079 81.8551C624.179 81.4665 624.577 81.2339 624.966 81.3336C625.355 81.4333 625.587 81.8309 625.487 82.2194C625.398 82.5525 625.099 82.7646 624.771 82.7633C624.775 82.7712 624.771 82.7831 624.767 82.795L624.295 84.227C624.295 84.227 624.283 84.2429 624.279 84.2548C624.295 84.2665 624.319 84.2743 624.335 84.286C624.426 84.3486 624.506 84.427 624.574 84.5016C624.574 84.5016 624.574 84.5016 624.582 84.4976L625.822 83.637C625.822 83.637 625.846 83.6249 625.854 83.6209C625.76 83.3408 625.849 83.0275 626.097 82.8316C626.416 82.5798 626.872 82.6354 627.123 82.9538C627.375 83.2722 627.319 83.7276 627 83.9795C626.733 84.1953 626.356 84.1786 626.094 83.975C626.086 83.979 626.082 83.9909 626.066 83.9989L624.826 84.8596C624.826 84.8596 624.81 84.8676 624.802 84.8717C624.854 84.9939 624.879 85.1203 624.888 85.2547C624.888 85.2547 624.888 85.2547 624.896 85.2507L626.4 85.3176C626.4 85.3176 626.424 85.3253 626.436 85.3291C626.533 85.0514 626.797 84.8475 627.106 84.849C627.509 84.8417 627.84 85.1595 627.847 85.5629C627.854 85.9664 627.536 86.2974 627.132 86.3046C626.788 86.3114 626.497 86.0724 626.416 85.7566C626.408 85.7606 626.392 85.7686 626.38 85.7648L624.875 85.6979C624.875 85.6979 624.852 85.6902 624.84 85.6863C624.813 85.7894 624.766 85.8926 624.707 85.992C624.707 85.992 624.707 85.992 624.711 85.9999L625.909 86.908C625.909 86.908 625.922 86.9316 625.933 86.9355C626.174 86.7634 626.502 86.7449 626.761 86.9208C627.095 87.1476 627.185 87.5978 626.966 87.928C626.739 88.2621 626.288 88.3528 625.958 88.134C625.672 87.9425 625.57 87.5872 625.679 87.2738C625.675 87.2659 625.655 87.2661 625.651 87.2582L624.453 86.3501C624.453 86.3501 624.441 86.3265 624.429 86.3226C624.291 86.4424 624.125 86.5269 623.948 86.5679C623.948 86.5679 623.948 86.5679 623.952 86.5758L624.176 88.0694C624.176 88.0694 624.176 88.0891 624.177 88.1089C624.466 88.1501 624.717 88.3696 624.782 88.6737C624.865 89.0686 624.614 89.4544 624.219 89.5367C623.824 89.6191 623.438 89.369 623.356 88.9741C623.282 88.6344 623.454 88.3087 623.757 88.1638C623.753 88.1559 623.745 88.1401 623.741 88.1322L623.517 86.6387C623.517 86.6387 623.516 86.6189 623.52 86.607C623.334 86.5927 623.148 86.5388 622.977 86.4373C622.977 86.4373 622.977 86.4373 622.969 86.4413L622.063 87.6474C622.063 87.6474 622.04 87.6595 622.036 87.6714C622.208 87.9113 622.226 88.2395 622.058 88.4941C621.831 88.8282 621.384 88.9268 621.05 88.7001C620.716 88.4734 620.617 88.0271 620.845 87.6929L620.852 87.6889Z" fill="#D7A438" fill-opacity="0.52"/>
<path d="M514.35 143.228C515.05 141.826 515.159 140.179 514.802 138.652C515.721 139.998 517.057 140.909 518.525 141.208C519.992 141.514 521.583 141.205 522.839 140.379C522.402 139.946 521.973 139.514 521.534 139.088C522.148 139.039 522.761 138.99 523.375 138.941C523.053 137.519 522.432 136.15 521.454 135.082C520.477 134.013 519.116 133.253 517.663 133.133C519.089 132.914 520.316 131.962 521.034 130.754C521.747 129.538 521.999 128.095 521.942 126.688C521.353 126.91 520.754 127.082 520.136 127.208C520.417 126.541 520.664 125.856 520.866 125.159C519.724 125.058 518.564 125.056 517.456 125.328C516.348 125.601 515.279 126.168 514.546 127.047C514.012 127.687 513.671 128.457 513.354 129.226C513.355 128.602 513.288 128.118 513.144 127.652C513.059 127.321 513.006 127.164 513.006 127.164C512.313 124.946 510.48 123.119 508.263 122.43C508.41 123.149 508.43 123.898 508.322 124.628C507.944 124.092 507.568 123.549 507.191 123.012C506.468 123.91 506.214 125.123 506.285 126.273C506.356 127.423 506.721 128.54 507.109 129.625C507.373 130.352 507.664 131.094 508.195 131.647C506.76 130.899 505.1 130.755 503.626 131.214C502.152 131.673 500.864 132.736 500.129 134.096C500.76 134.305 501.399 134.516 502.028 134.732C501.395 135.029 500.799 135.399 500.249 135.828C501.364 137.005 502.824 137.863 504.411 138.161C506 138.453 507.713 138.161 509.056 137.247C507.945 138.357 507.517 139.927 507.58 141.43C507.643 142.934 508.17 144.387 508.878 145.724C509.368 145.104 509.889 144.516 510.43 143.941C510.552 144.638 510.675 145.328 510.796 146.024C512.332 145.748 513.663 144.642 514.363 143.24L514.35 143.228ZM512.07 137.145C511.997 136.857 512.129 136.568 512.387 136.432C512.387 136.432 512.382 136.423 512.376 136.413C512.376 136.413 512.376 136.413 512.378 136.406L512.128 135.129C512.128 135.129 512.134 135.107 512.129 135.097C511.981 135.089 511.839 135.059 511.712 135.002C511.712 135.002 511.712 135.002 511.71 135.009L511.032 136.124C511.032 136.124 511.021 136.137 511.009 136.15C511.18 136.338 511.223 136.618 511.095 136.861C510.935 137.166 510.555 137.285 510.25 137.125C509.946 136.964 509.826 136.584 509.987 136.279C510.129 136.016 510.423 135.89 510.696 135.963C510.698 135.956 510.702 135.941 510.704 135.933L511.382 134.818C511.382 134.818 511.393 134.805 511.402 134.8C511.302 134.702 511.221 134.593 511.167 134.468L509.926 134.855C509.926 134.855 509.904 134.849 509.895 134.855C509.898 135.109 509.746 135.352 509.492 135.443C509.166 135.569 508.806 135.409 508.68 135.083C508.554 134.757 508.714 134.396 509.04 134.27C509.314 134.161 509.625 134.269 509.784 134.501C509.792 134.503 509.803 134.49 509.812 134.485L511.053 134.098C511.053 134.098 511.068 134.102 511.078 134.096C511.065 133.966 511.082 133.844 511.113 133.726C511.113 133.726 511.113 133.726 511.106 133.724L509.9 133.243C509.9 133.243 509.887 133.232 509.873 133.228C509.715 133.431 509.447 133.517 509.186 133.431C508.86 133.32 508.677 132.971 508.783 132.635C508.894 132.309 509.243 132.126 509.579 132.232C509.862 132.324 510.033 132.599 510.004 132.884C510.012 132.885 510.026 132.889 510.034 132.891L511.24 133.373C511.24 133.373 511.255 133.377 511.267 133.388C511.334 133.287 511.413 133.198 511.511 133.129L510.865 131.999C510.865 131.999 510.854 131.981 510.856 131.973C510.613 132.027 510.346 131.931 510.193 131.708C510.001 131.42 510.082 131.03 510.37 130.839C510.659 130.647 511.048 130.728 511.239 131.016C511.402 131.265 511.365 131.58 511.174 131.79C511.182 131.791 511.187 131.801 511.192 131.81L511.838 132.94C511.838 132.94 511.841 132.957 511.847 132.966C511.863 132.963 511.882 132.952 511.899 132.948C511.992 132.926 512.088 132.92 512.175 132.92C512.175 132.92 512.175 132.92 512.177 132.912L512.341 131.62C512.341 131.62 512.347 131.598 512.349 131.59C512.116 131.488 511.966 131.251 511.984 130.979C512.007 130.629 512.305 130.369 512.655 130.391C513.004 130.414 513.264 130.713 513.241 131.062C513.225 131.359 512.997 131.59 512.715 131.641C512.713 131.648 512.718 131.658 512.714 131.672L512.55 132.965C512.55 132.965 512.546 132.979 512.544 132.987C512.653 133.024 512.748 133.081 512.839 133.153C512.839 133.153 512.839 133.153 512.841 133.145L513.753 132.219C513.753 132.219 513.772 132.209 513.781 132.203C513.659 131.981 513.68 131.694 513.86 131.497C514.088 131.234 514.483 131.205 514.745 131.434C515.008 131.662 515.037 132.057 514.808 132.32C514.614 132.545 514.293 132.593 514.043 132.463C514.041 132.471 514.037 132.485 514.028 132.491L513.116 133.417C513.116 133.417 513.097 133.428 513.088 133.433C513.139 133.51 513.178 133.599 513.208 133.694C513.208 133.694 513.208 133.694 513.215 133.696L514.489 133.453C514.489 133.453 514.511 133.459 514.52 133.453C514.549 133.2 514.727 132.979 514.989 132.914C515.327 132.831 515.668 133.033 515.753 133.364C515.836 133.703 515.634 134.044 515.303 134.129C515.015 134.202 514.728 134.062 514.59 133.812C514.583 133.81 514.571 133.823 514.564 133.821L513.29 134.064C513.29 134.064 513.268 134.058 513.259 134.064C513.256 134.221 513.214 134.376 513.138 134.514C513.138 134.514 513.138 134.514 513.145 134.516L514.233 135.234C514.233 135.234 514.245 135.246 514.258 135.257C514.452 135.095 514.737 135.061 514.97 135.195C515.271 135.37 515.373 135.753 515.198 136.054C515.022 136.355 514.639 136.458 514.339 136.283C514.079 136.134 513.969 135.836 514.051 135.557C514.044 135.555 514.029 135.551 514.022 135.549L512.935 134.831C512.935 134.831 512.922 134.82 512.916 134.81C512.8 134.921 512.658 135.01 512.494 135.061C512.494 135.061 512.494 135.061 512.492 135.068L512.742 136.345C512.742 136.345 512.736 136.367 512.742 136.377C512.995 136.405 513.216 136.583 513.282 136.838C513.365 137.176 513.17 137.519 512.832 137.603C512.493 137.686 512.151 137.491 512.068 137.153L512.07 137.145Z" fill="#D7A438" fill-opacity="0.52"/>
<path d="M762.443 355.445C764.007 355.538 765.565 354.993 766.829 354.065C765.952 355.438 765.638 357.025 765.94 358.492C766.234 359.961 767.142 361.304 768.395 362.135C768.622 361.563 768.85 360.999 769.07 360.428C769.356 360.973 769.642 361.518 769.928 362.063C771.11 361.209 772.125 360.101 772.724 358.782C773.323 357.464 773.488 355.914 773.029 354.531C773.789 355.756 775.147 356.51 776.539 356.697C777.938 356.876 779.364 356.542 780.635 355.937C780.2 355.482 779.807 354.999 779.448 354.479C780.173 354.476 780.9 354.434 781.62 354.347C781.264 353.257 780.811 352.189 780.126 351.277C779.44 350.365 778.499 349.605 777.403 349.275C776.605 349.034 775.762 349.023 774.93 349.034C775.505 348.79 775.924 348.538 776.296 348.223C776.567 348.015 776.691 347.905 776.691 347.905C778.458 346.396 779.42 343.993 779.184 341.684C778.58 342.101 777.899 342.414 777.185 342.601C777.53 342.043 777.882 341.484 778.227 340.926C777.118 340.614 775.903 340.856 774.873 341.373C773.843 341.89 772.958 342.663 772.113 343.446C771.548 343.974 770.98 344.533 770.679 345.239C770.804 343.625 770.285 342.042 769.285 340.867C768.284 339.691 766.801 338.923 765.261 338.781C765.317 339.443 765.374 340.113 765.422 340.777C764.901 340.312 764.326 339.908 763.715 339.571C763.07 341.058 762.855 342.738 763.203 344.315C763.558 345.891 764.499 347.352 765.866 348.229C764.409 347.642 762.798 347.864 761.44 348.512C760.082 349.161 758.951 350.216 758 351.392C758.763 351.599 759.508 351.847 760.249 352.12C759.655 352.505 759.07 352.889 758.477 353.274C759.333 354.578 760.873 355.368 762.437 355.461L762.443 355.445ZM767.143 350.96C767.379 350.78 767.697 350.789 767.924 350.972C767.924 350.972 767.93 350.964 767.937 350.955C767.937 350.955 767.937 350.955 767.944 350.954L769.02 350.223C769.02 350.223 769.043 350.219 769.049 350.211C768.999 350.072 768.971 349.929 768.974 349.79C768.974 349.79 768.974 349.79 768.967 349.791L767.675 349.605C767.675 349.605 767.659 349.6 767.642 349.594C767.536 349.825 767.295 349.975 767.022 349.952C766.679 349.924 766.42 349.622 766.448 349.279C766.476 348.936 766.779 348.677 767.122 348.705C767.419 348.732 767.651 348.953 767.691 349.233C767.699 349.232 767.714 349.23 767.721 349.228L769.013 349.414C769.013 349.414 769.029 349.42 769.038 349.426C769.089 349.296 769.157 349.178 769.251 349.08L768.408 348.09C768.408 348.09 768.405 348.067 768.396 348.061C768.164 348.163 767.88 348.119 767.697 347.922C767.453 347.671 767.459 347.277 767.71 347.033C767.96 346.79 768.355 346.795 768.599 347.046C768.806 347.255 768.829 347.583 768.678 347.82C768.679 347.828 768.695 347.833 768.704 347.84L769.547 348.83C769.547 348.83 769.549 348.845 769.558 348.851C769.672 348.789 769.791 348.756 769.912 348.739C769.912 348.739 769.912 348.739 769.911 348.732L769.881 347.433C769.881 347.433 769.886 347.417 769.884 347.402C769.635 347.337 769.451 347.125 769.427 346.85C769.401 346.507 769.651 346.202 770.001 346.168C770.345 346.142 770.65 346.391 770.685 346.741C770.711 347.038 770.525 347.303 770.252 347.388C770.253 347.396 770.255 347.411 770.256 347.418L770.287 348.717C770.287 348.717 770.289 348.732 770.284 348.748C770.403 348.769 770.516 348.807 770.617 348.87L771.403 347.833C771.403 347.833 771.416 347.816 771.424 347.815C771.279 347.612 771.262 347.329 771.407 347.1C771.597 346.811 771.987 346.732 772.277 346.922C772.566 347.112 772.645 347.502 772.454 347.791C772.289 348.038 771.985 348.128 771.718 348.035C771.719 348.042 771.712 348.051 771.706 348.06L770.92 349.097C770.92 349.097 770.906 349.106 770.899 349.115C770.909 349.129 770.926 349.142 770.936 349.156C770.993 349.233 771.036 349.319 771.071 349.399C771.071 349.399 771.071 349.399 771.078 349.398L772.332 349.042C772.332 349.042 772.354 349.039 772.362 349.038C772.364 348.783 772.524 348.552 772.781 348.461C773.112 348.345 773.468 348.518 773.585 348.848C773.701 349.178 773.528 349.534 773.198 349.651C772.919 349.752 772.616 349.633 772.459 349.394C772.451 349.395 772.445 349.403 772.43 349.406L771.177 349.761C771.177 349.761 771.161 349.764 771.154 349.765C771.162 349.879 771.147 349.989 771.117 350.101C771.117 350.101 771.117 350.101 771.124 350.1L772.334 350.575C772.334 350.575 772.351 350.588 772.36 350.595C772.517 350.395 772.789 350.302 773.041 350.39C773.372 350.497 773.553 350.849 773.446 351.18C773.339 351.511 772.987 351.692 772.655 351.586C772.372 351.495 772.202 351.218 772.224 350.938C772.216 350.939 772.201 350.941 772.192 350.935L770.983 350.46C770.983 350.46 770.966 350.447 770.957 350.44C770.906 350.517 770.839 350.588 770.763 350.653C770.763 350.653 770.763 350.653 770.765 350.66L771.489 351.736C771.489 351.736 771.492 351.759 771.501 351.765C771.745 351.692 772.018 351.769 772.18 351.985C772.389 352.263 772.337 352.656 772.066 352.864C771.787 353.073 771.394 353.022 771.186 352.751C771.005 352.514 771.022 352.196 771.198 351.97C771.197 351.963 771.181 351.957 771.18 351.95L770.455 350.874C770.455 350.874 770.452 350.851 770.444 350.845C770.298 350.904 770.139 350.927 769.982 350.91C769.982 350.91 769.982 350.91 769.983 350.918L769.749 352.2C769.749 352.2 769.744 352.216 769.739 352.232C769.963 352.347 770.107 352.596 770.075 352.863C770.032 353.208 769.72 353.453 769.374 353.409C769.028 353.366 768.783 353.054 768.827 352.709C768.861 352.411 769.093 352.193 769.381 352.16C769.38 352.152 769.378 352.137 769.377 352.13L769.611 350.848C769.611 350.848 769.616 350.831 769.623 350.823C769.475 350.759 769.338 350.663 769.226 350.532C769.226 350.532 769.226 350.532 769.219 350.534L768.143 351.265C768.143 351.265 768.12 351.268 768.114 351.277C768.187 351.521 768.11 351.794 767.901 351.954C767.623 352.164 767.231 352.119 767.021 351.841C766.812 351.562 766.856 351.171 767.135 350.961L767.143 350.96Z" fill="#D7A438" fill-opacity="0.52"/>
<path d="M135.787 190.752C131.812 190.385 127.89 187.925 125.285 184.165C122.921 180.772 121.578 176.22 121.498 171.385C121.498 170.622 120.907 170 120.182 170C119.483 170 118.893 170.594 118.839 171.329C118.329 181.14 111.077 190.498 101.999 193.071C101.354 193.24 100.951 193.891 101.005 194.569C101.059 195.248 101.596 195.785 102.24 195.841C106.699 196.209 111.05 198.386 114.112 201.807C117.039 205.058 118.812 209.441 119.027 213.908C119.027 214.162 119.027 214.417 119.027 214.671C119.054 215.435 119.645 216 120.37 216C120.37 216 120.397 216 120.424 216C121.149 216 121.74 215.35 121.713 214.558C121.713 214.304 121.713 214.049 121.713 213.766C121.605 204.747 127.756 195.898 136.028 193.41C136.646 193.212 137.049 192.59 136.995 191.911C136.941 191.233 136.431 190.696 135.787 190.639V190.752ZM120.155 206.557C119.188 204.097 117.818 201.835 116.099 199.913C113.655 197.199 110.54 195.163 107.155 194.032C112.93 190.95 117.63 185.409 119.967 179.047C120.692 181.564 121.766 183.882 123.136 185.861C125.258 188.915 128.159 191.233 131.301 192.533C126.091 195.446 122.008 200.676 120.155 206.585V206.557Z" fill="#E9BD5F"/>
<path d="M1595.79 345.752C1591.81 345.385 1587.89 342.925 1585.28 339.165C1582.92 335.772 1581.58 331.22 1581.5 326.385C1581.5 325.622 1580.91 325 1580.18 325C1579.48 325 1578.89 325.594 1578.84 326.329C1578.33 336.14 1571.08 345.498 1562 348.071C1561.35 348.24 1560.95 348.891 1561 349.569C1561.06 350.248 1561.6 350.785 1562.24 350.841C1566.7 351.209 1571.05 353.386 1574.11 356.807C1577.04 360.058 1578.81 364.441 1579.03 368.908C1579.03 369.162 1579.03 369.417 1579.03 369.671C1579.05 370.435 1579.64 371 1580.37 371C1580.37 371 1580.4 371 1580.42 371C1581.15 371 1581.74 370.35 1581.71 369.558C1581.71 369.304 1581.71 369.049 1581.71 368.766C1581.61 359.747 1587.76 350.898 1596.03 348.41C1596.65 348.212 1597.05 347.59 1597 346.911C1596.94 346.233 1596.43 345.696 1595.79 345.639V345.752ZM1580.15 361.557C1579.19 359.097 1577.82 356.835 1576.1 354.913C1573.66 352.199 1570.54 350.163 1567.16 349.032C1572.93 345.95 1577.63 340.409 1579.97 334.047C1580.69 336.564 1581.77 338.882 1583.14 340.861C1585.26 343.915 1588.16 346.233 1591.3 347.533C1586.09 350.446 1582.01 355.676 1580.15 361.585V361.557Z" fill="#E9BD5F"/>
<path d="M1792.79 104.752C1788.81 104.385 1784.89 101.925 1782.28 98.1647C1779.92 94.772 1778.58 90.2201 1778.5 85.3854C1778.5 84.622 1777.91 84 1777.18 84C1776.48 84 1775.89 84.5937 1775.84 85.3288C1775.33 95.1395 1768.08 104.498 1759 107.071C1758.35 107.24 1757.95 107.891 1758 108.569C1758.06 109.248 1758.6 109.785 1759.24 109.841C1763.7 110.209 1768.05 112.386 1771.11 115.807C1774.04 119.058 1775.81 123.441 1776.03 127.908C1776.03 128.162 1776.03 128.417 1776.03 128.671C1776.05 129.435 1776.64 130 1777.37 130C1777.37 130 1777.4 130 1777.42 130C1778.15 130 1778.74 129.35 1778.71 128.558C1778.71 128.304 1778.71 128.049 1778.71 127.766C1778.61 118.747 1784.76 109.898 1793.03 107.41C1793.65 107.212 1794.05 106.59 1794 105.911C1793.94 105.233 1793.43 104.696 1792.79 104.639V104.752ZM1777.15 120.557C1776.19 118.097 1774.82 115.835 1773.1 113.913C1770.66 111.199 1767.54 109.163 1764.16 108.032C1769.93 104.95 1774.63 99.4087 1776.97 93.0473C1777.69 95.5636 1778.77 97.882 1780.14 99.8611C1782.26 102.915 1785.16 105.233 1788.3 106.533C1783.09 109.446 1779.01 114.676 1777.15 120.585V120.557Z" fill="#E9BD5F"/>
<path d="M1894.06 214.241C1890.96 213.953 1887.91 212.028 1885.89 209.085C1884.05 206.43 1883.01 202.868 1882.94 199.084C1882.94 198.487 1882.48 198 1881.92 198C1881.38 198 1880.92 198.465 1880.87 199.04C1880.48 206.718 1874.84 214.042 1867.78 216.055C1867.28 216.188 1866.96 216.697 1867 217.228C1867.05 217.759 1867.46 218.179 1867.96 218.224C1871.43 218.511 1874.82 220.215 1877.2 222.892C1879.48 225.437 1880.85 228.867 1881.02 232.363C1881.02 232.562 1881.02 232.761 1881.02 232.96C1881.04 233.557 1881.5 234 1882.07 234C1882.07 234 1882.09 234 1882.11 234C1882.67 234 1883.13 233.491 1883.11 232.872C1883.11 232.672 1883.11 232.473 1883.11 232.252C1883.03 225.194 1887.81 218.268 1894.24 216.321C1894.72 216.166 1895.04 215.679 1895 215.148C1894.95 214.617 1894.56 214.197 1894.06 214.152V214.241ZM1881.9 226.61C1881.15 224.685 1880.08 222.915 1878.74 221.41C1876.84 219.286 1874.42 217.693 1871.79 216.808C1876.28 214.396 1879.93 210.059 1881.75 205.081C1882.32 207.05 1883.15 208.864 1884.22 210.413C1885.87 212.803 1888.12 214.617 1890.57 215.635C1886.51 217.914 1883.34 222.007 1881.9 226.632V226.61Z" fill="#E9BD5F"/>
<path d="M1145.79 481.752C1141.81 481.385 1137.89 478.925 1135.28 475.165C1132.92 471.772 1131.58 467.22 1131.5 462.385C1131.5 461.622 1130.91 461 1130.18 461C1129.48 461 1128.89 461.594 1128.84 462.329C1128.33 472.14 1121.08 481.498 1112 484.071C1111.35 484.24 1110.95 484.891 1111 485.569C1111.06 486.248 1111.6 486.785 1112.24 486.841C1116.7 487.209 1121.05 489.386 1124.11 492.807C1127.04 496.058 1128.81 500.441 1129.03 504.908C1129.03 505.162 1129.03 505.417 1129.03 505.671C1129.05 506.435 1129.64 507 1130.37 507C1130.37 507 1130.4 507 1130.42 507C1131.15 507 1131.74 506.35 1131.71 505.558C1131.71 505.304 1131.71 505.049 1131.71 504.766C1131.61 495.747 1137.76 486.898 1146.03 484.41C1146.65 484.212 1147.05 483.59 1147 482.911C1146.94 482.233 1146.43 481.696 1145.79 481.639V481.752ZM1130.15 497.557C1129.19 495.097 1127.82 492.835 1126.1 490.913C1123.66 488.199 1120.54 486.163 1117.16 485.032C1122.93 481.95 1127.63 476.409 1129.97 470.047C1130.69 472.564 1131.77 474.882 1133.14 476.861C1135.26 479.915 1138.16 482.233 1141.3 483.533C1136.09 486.446 1132.01 491.676 1130.15 497.585V497.557Z" fill="#E9BD5F"/>
<path d="M1139.26 482.632C1136.83 482.408 1134.43 480.911 1132.84 478.622C1131.4 476.557 1130.58 473.786 1130.53 470.843C1130.53 470.379 1130.17 470 1129.72 470C1129.3 470 1128.93 470.361 1128.9 470.809C1128.59 476.781 1124.16 482.477 1118.61 484.043C1118.22 484.146 1117.97 484.542 1118 484.955C1118.04 485.368 1118.36 485.695 1118.76 485.73C1121.48 485.953 1124.14 487.278 1126.01 489.361C1127.8 491.34 1128.89 494.007 1129.02 496.726C1129.02 496.881 1129.02 497.036 1129.02 497.191C1129.03 497.656 1129.39 498 1129.84 498C1129.84 498 1129.85 498 1129.87 498C1130.31 498 1130.67 497.604 1130.66 497.122C1130.66 496.967 1130.66 496.813 1130.66 496.64C1130.59 491.151 1134.35 485.764 1139.41 484.25C1139.78 484.129 1140.03 483.75 1140 483.337C1139.96 482.924 1139.65 482.597 1139.26 482.563V482.632ZM1129.71 492.252C1129.11 490.755 1128.28 489.378 1127.23 488.208C1125.73 486.556 1123.83 485.317 1121.76 484.628C1125.29 482.752 1128.16 479.379 1129.59 475.507C1130.03 477.039 1130.69 478.45 1131.53 479.655C1132.82 481.513 1134.6 482.924 1136.52 483.716C1133.33 485.489 1130.84 488.672 1129.71 492.269V492.252Z" fill="#E9BD5F"/>
<path d="M180.797 82.0338C179.106 81.8738 177.438 80.803 176.33 79.1661C175.324 77.6892 174.753 75.7077 174.719 73.6031C174.719 73.2708 174.468 73 174.159 73C173.862 73 173.611 73.2585 173.588 73.5785C173.371 77.8492 170.286 81.923 166.425 83.043C166.151 83.1168 165.979 83.3999 166.002 83.6953C166.025 83.9907 166.253 84.2245 166.528 84.2491C168.424 84.4091 170.275 85.3568 171.577 86.846C172.822 88.2614 173.576 90.1691 173.668 92.1137C173.668 92.2244 173.668 92.3352 173.668 92.446C173.679 92.7783 173.931 93.0244 174.239 93.0244C174.239 93.0244 174.25 93.0244 174.262 93.0244C174.57 93.0244 174.822 92.7413 174.81 92.3967C174.81 92.286 174.81 92.1752 174.81 92.0521C174.765 88.126 177.381 84.2737 180.899 83.1907C181.162 83.1045 181.334 82.8338 181.311 82.5384C181.288 82.243 181.071 82.0091 180.797 81.9845V82.0338ZM174.148 88.9137C173.736 87.8429 173.154 86.8583 172.423 86.0214C171.383 84.8399 170.058 83.9537 168.618 83.4614C171.074 82.1199 173.074 79.7076 174.068 76.9384C174.376 78.0338 174.833 79.043 175.416 79.9046C176.318 81.2338 177.552 82.243 178.889 82.8091C176.672 84.0768 174.936 86.3537 174.148 88.926V88.9137Z" fill="#E9BD5F"/>
<path d="M695.797 203.034C694.106 202.874 692.438 201.803 691.33 200.166C690.324 198.689 689.753 196.708 689.719 194.603C689.719 194.271 689.468 194 689.159 194C688.862 194 688.611 194.258 688.588 194.578C688.371 198.849 685.286 202.923 681.425 204.043C681.151 204.117 680.979 204.4 681.002 204.695C681.025 204.991 681.253 205.225 681.528 205.249C683.424 205.409 685.275 206.357 686.577 207.846C687.822 209.261 688.576 211.169 688.668 213.114C688.668 213.224 688.668 213.335 688.668 213.446C688.679 213.778 688.931 214.024 689.239 214.024C689.239 214.024 689.25 214.024 689.262 214.024C689.57 214.024 689.822 213.741 689.81 213.397C689.81 213.286 689.81 213.175 689.81 213.052C689.765 209.126 692.381 205.274 695.899 204.191C696.162 204.105 696.334 203.834 696.311 203.538C696.288 203.243 696.071 203.009 695.797 202.985V203.034ZM689.148 209.914C688.736 208.843 688.154 207.858 687.423 207.021C686.383 205.84 685.058 204.954 683.618 204.461C686.074 203.12 688.074 200.708 689.068 197.938C689.376 199.034 689.833 200.043 690.416 200.905C691.318 202.234 692.552 203.243 693.889 203.809C691.672 205.077 689.936 207.354 689.148 209.926V209.914Z" fill="#E9BD5F"/>
<path d="M789.797 268.034C788.106 267.874 786.438 266.803 785.33 265.166C784.324 263.689 783.753 261.708 783.719 259.603C783.719 259.271 783.468 259 783.159 259C782.862 259 782.611 259.258 782.588 259.578C782.371 263.849 779.286 267.923 775.425 269.043C775.151 269.117 774.979 269.4 775.002 269.695C775.025 269.991 775.253 270.225 775.528 270.249C777.424 270.409 779.275 271.357 780.577 272.846C781.822 274.261 782.576 276.169 782.668 278.114C782.668 278.224 782.668 278.335 782.668 278.446C782.679 278.778 782.931 279.024 783.239 279.024C783.239 279.024 783.25 279.024 783.262 279.024C783.57 279.024 783.822 278.741 783.81 278.397C783.81 278.286 783.81 278.175 783.81 278.052C783.765 274.126 786.381 270.274 789.899 269.191C790.162 269.105 790.334 268.834 790.311 268.538C790.288 268.243 790.071 268.009 789.797 267.985V268.034ZM783.148 274.914C782.736 273.843 782.154 272.858 781.423 272.021C780.383 270.84 779.058 269.954 777.618 269.461C780.074 268.12 782.074 265.708 783.068 262.938C783.376 264.034 783.833 265.043 784.416 265.905C785.318 267.234 786.552 268.243 787.889 268.809C785.672 270.077 783.936 272.354 783.148 274.926V274.914Z" fill="#E9BD5F"/>
</g>
<defs>
<linearGradient id="paint0_linear_109_2435" x1="-100.5" y1="223.237" x2="1965.5" y2="223.237" gradientUnits="userSpaceOnUse">
<stop stop-color="#F6EBDA"/>
<stop offset="0.465" stop-color="#FFD792"/>
<stop offset="1" stop-color="#ECB14C"/>
</linearGradient>
<clipPath id="clip0_109_2435">
<rect width="1920" height="560" fill="white"/>
</clipPath>
</defs>
</svg>
