<svg width="373" height="104" viewBox="0 0 373 104" fill="none" xmlns="http://www.w3.org/2000/svg">
<path d="M99.2552 24.3965V91.5562C51.3143 92.9637 10.5057 98.4613 1.59402 103.977L27.1557 61.1538L0 35.1764C1.05835 30.1204 45.3998 25.5262 99.2552 24.3965Z" fill="#F7E1A3"/>
<path d="M49.6265 26.5841L49.3633 82.6382C68.9066 85.1589 81.6087 87.1846 99.2541 91.5562V24.3965C81.049 24.7773 64.4731 25.6384 49.6265 26.5823V26.5841Z" fill="#EBBA5F"/>
<path d="M273.746 24.3965V91.5562C321.687 92.9637 362.496 98.4613 371.407 103.977L345.846 61.1538L373.001 35.1764C371.943 30.1204 327.602 25.5262 273.746 24.3965Z" fill="#F7E1A3"/>
<path d="M323.374 26.5841L323.637 82.6382C304.094 85.1589 291.391 87.1846 273.746 91.5562V24.3965C291.951 24.7773 308.527 25.6384 323.374 26.5823V26.5841Z" fill="#EBBA5F"/>
<path d="M323.145 82.5685C323.145 61.7402 48.9297 61.7402 48.9297 82.5685V11.1583C48.9297 -3.71942 323.145 -3.71942 323.145 11.1583V82.5704V82.5685Z" fill="url(#paint0_radial_93_701)"/>
<path d="M82.8186 41.0314L83.2711 41.3471C82.3222 43.2594 80.4378 44.4808 77.9777 44.8508C76.0805 45.1362 74.1663 44.7418 72.7784 43.7353C71.3185 42.6757 70.3035 40.8882 69.993 38.8242C69.6795 36.7393 70.1072 34.9054 71.0949 33.3924C72.2066 31.7115 73.8961 30.7538 75.835 30.4622C76.6481 30.3399 77.4946 30.2979 78.363 30.4018C78.8197 30.4611 79.5036 30.614 79.858 30.5607C80.2541 30.5012 80.5709 30.1977 80.6302 29.741L81.0471 29.6783L81.9466 34.3827L81.467 34.4548C81.0444 33.3458 80.6407 32.7882 80.0349 32.3037C78.9702 31.4618 77.7951 31.0202 76.44 31.224C73.2918 31.6975 71.8188 34.5201 72.3613 38.1269C72.7062 40.4202 73.472 41.968 74.6118 42.8839C75.6765 43.7258 77.11 44.0432 78.5486 43.8269C80.425 43.5447 81.4776 42.7468 82.8186 41.0314Z" fill="#4D7DAC"/>
<path d="M92.4505 36.0178L92.095 36.0633C91.6198 34.5087 90.998 33.8018 89.325 34.0159C88.7812 34.0854 88.6772 34.2688 88.7414 34.7707L89.5922 41.4209C89.6992 42.2574 89.964 42.4998 91.0412 42.447L91.0814 42.7607L86.7316 43.3172L86.6914 43.0035C87.7473 42.7834 87.972 42.7121 87.8168 41.4992L86.9847 34.9954C86.9098 34.4099 86.7318 34.3476 86.1881 34.4172C84.5569 34.6259 84.1331 35.4665 84.0646 37.0906L83.709 37.1361L83.4364 34.1741L91.9687 33.0825L92.4505 36.0178Z" fill="#4D7DAC"/>
<path d="M104.155 31.7041L104.19 32.0185C103.13 32.2202 102.914 32.3713 103.05 33.6077L103.713 39.6221C103.838 40.7537 104.101 40.8307 105.14 40.8223L105.174 41.1366L100.836 41.6151L100.802 41.3007C101.84 41.1013 102.066 40.8431 101.965 39.921L101.373 34.5563L98.0504 40.3952C98.1429 41.2334 98.4035 41.4804 99.4815 41.4464L99.5161 41.7607L95.1573 42.2415L95.1226 41.9272C96.1821 41.7255 96.408 41.6581 96.274 40.4427L95.6105 34.4283C95.4857 33.2967 95.2111 33.1149 94.1727 33.1234L94.1381 32.809L98.4759 32.3306L98.5106 32.6449C97.3905 32.8745 97.2483 33.1235 97.3454 34.0037L97.9372 39.3684L101.262 33.5504C101.165 32.6703 100.909 32.4652 99.8308 32.4993L99.7962 32.1849L104.155 31.7041Z" fill="#4D7DAC"/>
<path d="M115.787 30.5941L115.817 30.909C114.754 31.0929 114.535 31.2404 114.65 32.4789L115.213 38.5035C115.319 39.6371 115.58 39.7185 116.619 39.7275L116.648 40.0423L112.303 40.4479L112.273 40.1331C113.315 39.9511 113.545 39.6967 113.459 38.7731L112.862 32.3706C112.787 31.5729 112.651 31.4797 111.938 31.5463L110.468 31.6835C109.943 31.7324 109.711 31.9659 109.78 32.7006L110.168 36.8569C110.303 38.3054 110.475 40.8303 108.334 41.0301C107.494 41.1085 106.845 40.9574 106.766 40.1177C106.714 39.5509 107.175 39.2749 107.49 39.2455C108.287 39.1711 108.33 40.3105 108.75 40.2713C109.716 40.1812 109.575 37.9922 109.436 36.5018L109.109 32.9961C109.003 31.8626 108.731 31.6762 107.693 31.6672L107.663 31.3524L115.787 30.5941Z" fill="#4D7DAC"/>
<path d="M121.509 34.311L122.896 34.2029C125.103 34.0309 126.949 34.6485 127.099 36.5822C127.229 38.2428 125.81 39.3049 123.729 39.467L118.853 39.8469L118.828 39.5316C119.893 39.364 120.121 39.304 120.026 38.0848L119.556 32.0523C119.468 30.9173 119.199 30.7267 118.161 30.7019L118.137 30.3866L122.488 30.0476L122.512 30.3629C121.385 30.5564 121.235 30.8007 121.304 31.6835L121.509 34.311ZM121.555 34.8995L121.825 38.3677C121.864 38.8721 121.939 39.0144 122.59 38.9636C124.209 38.8375 125.314 38.3707 125.182 36.6682C125.049 34.9656 123.867 34.7194 122.5 34.8258L121.555 34.8995Z" fill="#4D7DAC"/>
<path d="M133.351 30.257C133.392 30.8881 132.901 31.4487 132.27 31.4903C131.639 31.5318 131.057 31.0419 131.016 30.4108C130.971 29.7376 131.443 29.1995 132.116 29.1551C132.747 29.1135 133.309 29.6258 133.351 30.257ZM133.849 37.8094C133.89 38.4405 133.399 39.0011 132.768 39.0427C132.137 39.0843 131.555 38.5944 131.513 37.9632C131.469 37.29 131.941 36.7519 132.614 36.7075C133.245 36.6659 133.807 37.1783 133.849 37.8094Z" fill="#4D7DAC"/>
<path d="M157.263 37.5209L151.365 37.7835L151.347 37.3833C153.05 37.2231 153.311 36.9371 153.24 35.3364L153.054 31.1661L152.275 31.2008L147.721 37.9457L144.309 38.0976L144.292 37.6974C144.985 37.6244 145.729 37.2747 146.224 36.5562L149.89 31.2014C147.413 31.0163 145.677 29.9539 145.576 27.6792C145.442 24.6673 147.964 23.9641 151.187 23.8207L156.642 23.5778L156.66 23.978C155.107 24.1737 154.907 24.4359 154.977 25.9945L155.379 35.0301C155.46 36.8415 155.596 37.0675 157.245 37.1208L157.263 37.5209ZM153.019 30.3657L152.808 25.6267C152.771 24.8053 152.486 24.5648 151.665 24.6013C150.696 24.6445 149.918 24.7213 149.299 25.0232C148.349 25.4876 147.816 26.3343 147.875 27.6402C147.959 29.5358 149.459 30.5242 151.776 30.421L153.019 30.3657Z" fill="#4D7DAC"/>
<path d="M161.23 27.7846L161.277 29.4073C162.171 28.2213 163.083 27.6885 164.264 27.6542C166.308 27.5948 167.837 29.4275 167.913 32.0407C168.002 35.0965 166.28 37.5088 163.772 37.5817C162.887 37.6075 162.269 37.4145 161.491 36.7411L161.588 40.0919C161.627 41.4195 161.908 41.6645 163.489 41.6396L163.498 41.9557L158.398 42.104L158.389 41.7879C159.629 41.6253 159.854 41.3867 159.822 40.2909L159.534 30.386C159.505 29.3956 159.352 29.1891 158.635 29.2099C158.445 29.2154 158.298 29.2197 158.109 29.2463L158.099 28.9091C159.248 28.5172 159.998 28.2212 161.102 27.7461L161.23 27.7846ZM161.306 30.3978L161.457 35.582C161.475 36.2142 162.7 36.9801 163.69 36.9513C165.208 36.9072 166.193 35.2545 166.126 32.9364C166.054 30.4707 164.975 28.8991 163.415 28.9444C162.446 28.9726 161.288 29.7656 161.306 30.3978Z" fill="#4D7DAC"/>
<path d="M179.707 37.0223L176.925 37.0639L174.575 33.641C173.821 32.5558 173.735 32.4728 173.038 32.3778L173.088 35.7085C173.099 36.4463 173.356 36.7377 174.2 36.7672L174.685 36.7811L174.69 37.0973L169.757 37.171L169.752 36.8548L170.342 36.8038C171.163 36.7283 171.328 36.4517 171.317 35.735L171.219 29.2C171.204 28.167 170.907 28.066 169.915 27.9754L169.911 27.6803L174.274 27.6151L174.279 27.9102C173.226 28.0314 172.978 28.3724 172.99 29.1313L173.029 31.7875C173.556 31.7796 174.039 31.6459 174.415 31.4084C175.021 31.0198 175.487 29.7477 175.958 28.8129C176.408 27.9206 177.013 27.4477 177.856 27.4351C178.678 27.4228 179.149 27.9007 179.157 28.4277C179.165 28.9758 178.749 29.3616 178.201 29.3698C177.738 29.3767 177.353 29.0661 177.058 29.0706C176.11 29.0847 176.222 30.9596 174.698 31.9945L174.699 32.0367C175.696 32.4646 176.441 32.9384 177.331 34.6119C177.765 35.4278 178.323 36.0942 178.579 36.3223C178.836 36.5504 179.217 36.6712 179.703 36.7061L179.707 37.0223Z" fill="#4D7DAC"/>
<path d="M190.011 35.6102L190.011 36.2005C189.379 37.0022 188.831 37.2135 188.115 37.2142C187.334 37.2148 186.87 36.7936 186.764 35.6763L186.743 35.6763C185.627 36.9422 184.509 37.2172 183.603 37.218C182.296 37.2191 181.388 36.4188 181.387 35.0273C181.386 33.931 182.039 33.1082 182.861 32.5593C183.493 32.1371 184.357 31.7358 186.739 30.8483L186.738 29.7098C186.737 28.4026 185.956 27.8762 185.007 27.877C184.164 27.8778 183.532 28.2789 183.532 28.8481C183.533 29.2276 183.659 29.2908 183.66 29.7335C183.66 30.1341 183.239 30.5983 182.691 30.5987C182.248 30.5991 181.784 30.1989 181.783 29.6297C181.783 29.0815 182.119 28.4066 182.857 27.9421C183.447 27.5621 184.332 27.3084 185.281 27.3076C186.462 27.3066 187.263 27.6432 187.77 28.2542C188.276 28.8651 188.445 29.3077 188.446 30.5938L188.45 34.6207C188.45 35.5905 188.725 36.0119 189.104 36.0116C189.442 36.0113 189.652 35.9057 190.011 35.6102ZM186.742 34.2637L186.739 31.4386C185.432 31.9035 184.484 32.4314 183.957 32.9168C183.452 33.381 183.241 33.7186 183.242 34.3721C183.243 35.4895 183.876 35.995 184.698 35.9943C185.12 35.9939 185.647 35.888 186.005 35.6558C186.616 35.2336 186.742 34.8751 186.742 34.2637Z" fill="#4D7DAC"/>
<path d="M202.009 27.6438L202.005 27.96C200.95 28.0299 200.695 28.1529 200.678 29.3967L200.595 35.4469C200.58 36.5853 200.832 36.652 201.863 36.7716L201.858 37.13L197.6 37.0716L197.604 36.7554C198.617 36.7271 198.808 36.5821 198.823 35.4859L198.861 32.7454L198.46 32.7399L195.133 37.0377L192.519 37.0019L192.524 36.6857C193.157 36.6311 193.692 36.0902 194.013 35.7151L196.564 32.6506C194.902 32.4169 193.607 31.4715 193.628 29.9536C193.657 27.8244 195.474 27.5542 197.667 27.5842L202.009 27.6438ZM198.869 32.1551L198.915 28.8454C198.922 28.3183 198.797 28.1901 198.291 28.1832C196.921 28.1644 195.568 28.441 195.545 30.1064C195.527 31.3924 196.445 32.1218 198.026 32.1435L198.869 32.1551Z" fill="#4D7DAC"/>
<path d="M222.711 27.858L222.699 28.174C221.621 28.2179 221.385 28.3356 221.338 29.5786L221.113 35.562C221.063 36.8893 221.274 36.8972 222.345 37.0219L222.224 40.2242L221.845 40.21C221.227 37.5706 220.69 37.2761 219.889 37.246L215.97 37.0986C215.275 37.0724 214.485 37.317 213.671 39.9025L213.292 39.8882L213.412 36.6859C215.14 36.7509 215.546 35.4792 215.644 32.8878L215.776 29.3694C215.819 28.2318 215.363 28.0036 214.335 27.8595L214.347 27.5434L222.711 27.858ZM219.342 35.5165L219.578 29.2382C219.609 28.4376 219.486 28.3275 218.77 28.3006L217.295 28.2451C216.768 28.2253 216.51 28.3632 216.482 29.1006L216.323 33.3353C216.288 34.2623 216.067 35.6465 215.571 36.4928L218.415 36.5998C218.963 36.6204 219.311 36.3592 219.342 35.5165Z" fill="#4D7DAC"/>
<path d="M234.454 28.898L234.437 29.2138C233.359 29.2403 233.121 29.3541 233.054 30.5962L232.729 36.6383C232.668 37.7752 232.915 37.894 233.941 38.0547L233.924 38.3705L229.566 38.1362L229.583 37.8205C230.64 37.7928 230.905 37.5748 230.955 36.6485L231.245 31.2591L227.016 36.479C226.971 37.3211 227.187 37.6072 228.257 37.7492L228.24 38.0649L223.861 37.8296L223.878 37.5138C224.956 37.4873 225.19 37.4576 225.255 36.2366L225.58 30.1945C225.641 29.0576 225.4 28.8335 224.374 28.6728L224.391 28.357L228.749 28.5913L228.732 28.9071C227.589 28.9512 227.408 29.1737 227.361 30.058L227.071 35.4474L231.299 30.2485C231.346 29.3643 231.127 29.1203 230.058 28.9784L230.075 28.6626L234.454 28.898Z" fill="#4D7DAC"/>
<path d="M246.668 29.7268L246.646 30.0423C245.568 30.0514 245.328 30.1614 245.241 31.4023L244.819 37.4384C244.739 38.5741 244.984 38.6969 246.007 38.8741L245.985 39.1896L241.632 38.8851L241.654 38.5697C242.711 38.5591 242.98 38.3454 243.045 37.42L243.252 34.4545L239.319 34.1795L239.109 37.187C239.05 38.0283 239.262 38.3179 240.329 38.477L240.307 38.7925L235.932 38.4865L235.954 38.1711C237.033 38.1619 237.267 38.1361 237.352 36.9162L237.775 30.8801C237.854 29.7444 237.616 29.5165 236.593 29.3392L236.615 29.0238L240.969 29.3282L240.947 29.6437C239.804 29.6694 239.619 29.889 239.557 30.7723L239.368 33.4854L243.301 33.7605L243.492 31.0264C243.554 30.143 243.338 29.8955 242.272 29.7364L242.294 29.4209L246.668 29.7268Z" fill="#4D7DAC"/>
<path d="M256.852 38.7088L256.802 39.2969C256.103 40.0408 255.538 40.2038 254.824 40.1423C254.047 40.0753 253.621 39.6154 253.612 38.4931L253.591 38.4913C252.369 39.6557 251.232 39.8328 250.329 39.755C249.027 39.6428 248.192 38.7668 248.312 37.3804C248.406 36.2882 249.128 35.5251 249.994 35.0495C250.66 34.6837 251.556 34.3588 254.006 33.6811L254.103 32.5468C254.215 31.2445 253.483 30.6524 252.538 30.571C251.698 30.4986 251.034 30.8434 250.985 31.4105C250.952 31.7886 251.073 31.8625 251.035 32.3036C251 32.7027 250.54 33.1286 249.994 33.0815C249.553 33.0435 249.125 32.6046 249.174 32.0375C249.221 31.4914 249.615 30.8481 250.39 30.4494C251.011 30.122 251.915 29.9459 252.86 30.0273C254.036 30.1287 254.806 30.5335 255.257 31.1861C255.709 31.8387 255.839 32.2943 255.729 33.5756L255.383 37.5876C255.3 38.5538 255.537 38.9975 255.915 39.03C256.251 39.059 256.47 38.9721 256.852 38.7088ZM253.712 37.0839L253.955 34.2692C252.613 34.6191 251.622 35.0628 251.055 35.5007C250.512 35.9194 250.273 36.2374 250.216 36.8885C250.12 38.0018 250.707 38.5602 251.526 38.6308C251.947 38.667 252.481 38.6072 252.858 38.4069C253.503 38.0393 253.66 37.6931 253.712 37.0839Z" fill="#4D7DAC"/>
<path d="M267.305 37.5536L267.58 37.7726C266.775 39.0038 266.293 39.5688 265.612 40.0074C264.838 40.5212 264.011 40.7328 263.109 40.64C260.781 40.4004 259.325 38.2795 259.604 35.5741C259.783 33.8334 260.561 32.4511 261.791 31.6239C262.701 31.0181 263.746 30.7442 264.732 30.8457C266.494 31.027 267.86 32.1638 267.739 33.3382C267.69 33.8206 267.208 34.1737 266.663 34.1176C266.202 34.0701 265.861 33.6747 265.756 33.0493L265.677 32.5749C265.547 31.7774 265.301 31.4976 264.546 31.4199C262.847 31.2451 261.54 32.6154 261.316 34.7965C261.068 37.2083 262.216 39.0221 264.146 39.2207C265.341 39.3437 266.148 38.9181 267.305 37.5536Z" fill="#4D7DAC"/>
<path d="M280.024 36.1063L279.668 36.0638C279.586 34.4403 279.155 33.6032 277.48 33.4032C276.936 33.3382 276.79 33.4907 276.73 33.9931L275.935 40.6502C275.835 41.4875 276.033 41.7872 277.091 41.9984L277.053 42.3124L272.699 41.7924L272.736 41.4783C273.814 41.5221 274.049 41.5078 274.194 40.2936L274.972 33.783C275.042 33.1969 274.884 33.0931 274.34 33.0281C272.707 32.8331 272.091 33.5452 271.629 35.1037L271.273 35.0611L271.731 32.1219L280.272 33.1421L280.024 36.1063Z" fill="#4D7DAC"/>
<path d="M292.722 34.748L292.679 35.0613C291.603 34.9994 291.356 35.0934 291.187 36.3259L290.369 42.3211C290.215 43.4491 290.451 43.5878 291.461 43.832L291.418 44.1453L287.094 43.5549L287.137 43.2416C288.192 43.3006 288.474 43.1051 288.6 42.186L289.33 36.8383L284.688 41.6944C284.574 42.53 284.767 42.8329 285.821 43.0619L285.778 43.3753L281.433 42.782L281.476 42.4687C282.552 42.5306 282.788 42.5202 282.953 41.3086L283.772 35.3134C283.926 34.1854 283.704 33.9423 282.694 33.6981L282.737 33.3847L287.061 33.9751L287.018 34.2884C285.876 34.2389 285.678 34.4459 285.558 35.3232L284.828 40.6708L289.467 35.8356C289.587 34.9583 289.388 34.6971 288.334 34.4681L288.377 34.1548L292.722 34.748Z" fill="#4D7DAC"/>
<path d="M303.692 36.4269L303.644 36.7394C302.589 36.6609 302.32 36.7471 302.129 37.9762L301.2 43.9553C301.025 45.0803 301.265 45.1816 302.27 45.4444L302.215 45.7985L298.007 45.1447L298.055 44.8322C299.062 44.9459 299.272 44.8292 299.44 43.7459L299.861 41.0376L299.465 40.9761L295.569 44.766L292.986 44.3647L293.035 44.0522C293.669 44.0868 294.274 43.6261 294.645 43.2996L297.6 40.6223C295.986 40.1583 294.837 39.041 295.07 37.541C295.397 35.4368 297.234 35.4235 299.401 35.7601L303.692 36.4269ZM299.952 40.4543L300.46 37.1835C300.541 36.6627 300.435 36.5183 299.935 36.4406C298.581 36.2302 297.202 36.3147 296.947 37.9605C296.749 39.2313 297.556 40.0821 299.118 40.3248L299.952 40.4543Z" fill="#4D7DAC"/>
<defs>
<radialGradient id="paint0_radial_93_701" cx="0" cy="0" r="1" gradientUnits="userSpaceOnUse" gradientTransform="translate(186.037 41.2852) scale(137.108 41.2852)">
<stop stop-color="#F6E4AB"/>
<stop offset="1" stop-color="#F7D17C"/>
</radialGradient>
</defs>
</svg>
