<svg width="38" height="32" viewBox="0 0 38 32" fill="none" xmlns="http://www.w3.org/2000/svg">
<path d="M25.4243 20.0662C24.128 20.0662 22.8317 20.0772 21.5355 20.0622C20.8618 20.0542 20.0718 20.5364 19.8041 21.2412C19.5154 22.0002 19.7721 22.8925 20.3746 23.3486C20.6813 23.5812 21.0252 23.7657 21.352 23.9723C21.5806 24.1166 21.8222 24.244 22.0357 24.4084C22.4568 24.7332 22.6593 25.1834 22.7325 25.7037C22.8749 26.7083 23.0272 27.7119 23.1736 28.7165C23.2799 29.4443 23.3891 30.1732 23.4874 30.9021C23.5335 31.245 23.35 31.5598 23.0433 31.7122C22.7505 31.8565 22.3936 31.8114 22.151 31.5728C21.8483 31.275 21.5636 30.9592 21.2668 30.6544C20.3164 29.6759 19.2969 28.7746 18.2673 27.8813C16.9379 26.7283 15.5464 25.6556 14.1199 24.6279C12.579 23.5171 10.989 22.4804 9.35791 21.5069C8.08471 20.747 6.79547 20.0181 5.46413 19.3664C4.44056 18.8651 3.40195 18.3959 2.36635 17.9197C1.97737 17.7412 1.58338 17.5708 1.18338 17.4174C0.553798 17.1768 0.247027 16.3005 0.780367 15.6659C0.94478 15.4694 1.16333 15.3631 1.3909 15.2689C3.13528 14.542 4.8536 13.76 6.52078 12.8697C9.17244 11.4541 11.7198 9.87099 14.161 8.11548C15.6256 7.06177 17.0472 5.95292 18.4136 4.77388C19.3821 3.93773 20.3335 3.08354 21.2267 2.16718C21.5054 1.88145 21.7741 1.58468 22.0468 1.29193C22.2854 1.03627 22.5641 0.900926 22.919 1.01121C23.329 1.13854 23.5425 1.49846 23.4754 1.96165C23.2819 3.29909 23.0844 4.63653 22.8879 5.97397C22.8217 6.42613 22.7686 6.8813 22.6844 7.33046C22.5972 7.79565 22.3515 8.17262 21.9465 8.42828C21.5064 8.706 21.0593 8.97268 20.6132 9.24037C20.1189 9.53613 19.8051 9.96924 19.7159 10.5307C19.5525 11.5704 20.141 12.4306 21.1605 12.6662C21.3089 12.7003 21.4663 12.7143 21.6187 12.7143C24.1531 12.7163 33.8478 12.7143 36.3821 12.7143C36.4613 12.7143 36.5405 12.7153 36.6197 12.7173C37.134 12.7303 37.4869 13.0822 37.4909 13.5996C37.4959 14.3154 37.4909 15.0323 37.4909 15.7481C37.4909 16.8439 37.4919 17.9387 37.4909 19.0346C37.4909 19.1549 37.4849 19.2772 37.4588 19.3945C37.3666 19.8045 37.0257 20.0682 36.5967 20.0682C35.2583 20.0682 26.7606 20.0682 25.4223 20.0682L25.4243 20.0662Z" fill="white"/>
</svg>
