<svg width="184" height="163" viewBox="0 0 184 163" fill="none" xmlns="http://www.w3.org/2000/svg">
<path d="M153.768 88.8675C153.768 86.0547 154.088 83.2443 154.722 80.5103C155.169 78.5736 155.869 76.5382 157.496 75.396C159.119 74.2605 161.254 74.287 163.231 74.3592C163.001 75.9182 162.762 77.4805 162.532 79.0396C163.858 78.0898 165.221 77.2007 166.617 76.3622C167.349 77.7876 168.11 79.3207 167.94 80.9104C167.738 82.7784 166.311 84.2578 164.882 85.4753C162.419 87.5811 159.696 89.3862 156.798 90.8409C156.661 89.9033 156.53 88.9692 156.392 88.0317C155.527 88.3573 154.665 88.6763 153.761 88.8641L153.768 88.8675Z" fill="#85B0DB"/>
<path d="M157.323 94.0647C158.122 94.4971 158.901 94.9696 159.645 95.4923C158.943 96.0608 158.214 96.5822 157.448 97.0597C159.643 98.5232 161.967 99.7997 164.383 100.862C165.621 101.409 166.887 101.902 168.197 102.241C168.991 102.452 169.823 102.606 170.623 102.441C171.588 102.25 172.419 101.612 173.039 100.841C173.659 100.071 174.082 99.1744 174.508 98.2881C172.951 97.6385 171.398 96.9821 169.842 96.3324C171.326 95.8336 172.83 95.3953 174.361 95.0211C174.155 93.7877 173.653 92.6057 172.912 91.5964C172.453 90.9752 171.883 90.407 171.157 90.1463C170.266 89.8273 169.284 90.0178 168.366 90.2323C164.599 91.1097 160.921 92.3435 157.333 94.0614L157.323 94.0647Z" fill="#85B0DB"/>
<path d="M152.8 99.9306C153.419 99.3614 153.988 98.7415 154.509 98.0809C156.803 101.27 158.657 104.775 160.006 108.461C160.223 109.06 160.437 109.683 160.415 110.321C160.385 111.24 159.875 112.075 159.266 112.759C158.549 113.555 157.664 114.2 156.691 114.639C156.549 114.701 156.401 114.761 156.247 114.733C156.072 114.694 155.943 114.536 155.836 114.397C155.069 113.341 154.453 112.168 154.019 110.936C153.317 112.33 152.625 113.721 151.923 115.116C150.956 114.749 150.005 114.316 149.194 113.675C148.383 113.034 147.728 112.153 147.521 111.138C147.29 110.035 147.608 108.9 147.925 107.815C148.824 104.727 149.719 101.646 150.625 98.5613C151.346 99.0468 152.065 99.539 152.794 99.9272L152.8 99.9306Z" fill="#85B0DB"/>
<path d="M147.171 96.0439C147.925 96.3014 148.651 96.6292 149.34 97.0306C146.184 99.2552 142.836 101.213 139.349 102.865C138.271 103.377 137.092 103.871 135.912 103.691C134.989 103.55 134.164 103.003 133.565 102.293C132.966 101.584 132.573 100.718 132.284 99.83L136.228 97.7288C134.697 97.2774 133.155 96.8796 131.6 96.5253C132.046 94.8236 132.617 92.9415 134.134 92.0469C135.088 91.4803 136.257 91.4188 137.365 91.4944C141.2 91.7554 144.803 93.4647 148.613 93.9907C148.172 94.6586 147.741 95.3232 147.175 96.0372L147.171 96.0439Z" fill="#85B0DB"/>
<path d="M149.132 88.7714C148.728 89.4329 148.384 90.1419 148.113 90.8715C145.541 88.6096 142.966 86.3376 140.394 84.0757C139.801 83.5542 139.204 83.0227 138.664 82.4446C138.061 81.7922 137.51 81.0058 137.499 80.1163C137.49 79.5221 137.719 78.9566 138.022 78.4454C138.6 77.4596 139.432 76.6537 140.25 75.8578C141.488 76.9347 142.722 78.0182 143.96 79.0951C143.708 77.67 143.467 76.2416 143.216 74.8165C143.2 74.7157 143.187 74.6082 143.245 74.5281C143.295 74.4613 143.393 74.4352 143.477 74.4191C144.855 74.1611 146.302 74.2494 147.635 74.6758C148.097 74.8271 148.556 75.0186 148.919 75.3302C149.553 75.8888 149.819 76.7401 150.034 77.5574C151.08 81.4926 151.553 85.5744 151.453 89.6418C150.652 89.3436 149.846 89.0421 149.136 88.7647L149.132 88.7714Z" fill="#85B0DB"/>
<path d="M151.769 95.8502C152.845 96.3978 154.16 95.9706 154.707 94.8959C155.255 93.8212 154.827 92.506 153.752 91.9583C152.677 91.4106 151.362 91.8379 150.814 92.9126C150.267 93.9873 150.694 95.3025 151.769 95.8502Z" fill="#FBE28A"/>
<path d="M27.7675 65.8675C27.7681 63.0547 28.0876 60.2443 28.7221 57.5103C29.1695 55.5736 29.8693 53.5382 31.496 52.396C33.1192 51.2605 35.2543 51.287 37.2312 51.3592C37.0015 52.9182 36.7617 54.4805 36.532 56.0396C37.8584 55.0898 39.2213 54.2007 40.6174 53.3622C41.3489 54.7876 42.1098 56.3207 41.9403 57.9104C41.7385 59.7784 40.3108 61.2578 38.8817 62.4753C36.4187 64.5811 33.6961 66.3862 30.7981 67.8409C30.6606 66.9033 30.5298 65.9692 30.3924 65.0317C29.5271 65.3573 28.6653 65.6763 27.7608 65.8641L27.7675 65.8675Z" fill="#85B0DB"/>
<path d="M31.3226 71.0647C32.1218 71.4971 32.9005 71.9696 33.6454 72.4923C32.9429 73.0608 32.2138 73.5822 31.4482 74.0597C33.6432 75.5232 35.9671 76.7997 38.3833 77.8622C39.6215 78.4087 40.8869 78.9017 42.1971 79.2407C42.9913 79.4516 43.8227 79.6057 44.623 79.4406C45.5879 79.25 46.4185 78.6119 47.0386 77.8413C47.6587 77.0707 48.0816 76.1744 48.5078 75.2881C46.9514 74.6385 45.3984 73.9821 43.8421 73.3324C45.3263 72.8336 46.8303 72.3953 48.3606 72.0211C48.1548 70.7877 47.6532 69.6057 46.912 68.5964C46.4532 67.9752 45.8833 67.407 45.1567 67.1463C44.266 66.8273 43.2843 67.0178 42.3661 67.2323C38.5995 68.1097 34.9208 69.3435 31.3327 71.0614L31.3226 71.0647Z" fill="#85B0DB"/>
<path d="M26.8004 76.9306C27.419 76.3614 27.9876 75.7415 28.5095 75.0809C30.8025 78.2704 32.6568 81.7754 34.0062 85.4612C34.2233 86.0603 34.437 86.6829 34.4155 87.3205C34.3852 88.24 33.8755 89.0752 33.2661 89.7586C32.5485 90.5553 31.6641 91.1997 30.6906 91.6387C30.5492 91.7014 30.401 91.7606 30.2468 91.7326C30.0725 91.6943 29.9427 91.5356 29.8363 91.3972C29.0686 90.3407 28.4527 89.1679 28.0186 87.9361C27.3168 89.3304 26.625 90.7214 25.9231 92.1157C24.9555 91.7491 24.0052 91.3155 23.1941 90.6749C22.383 90.0343 21.7281 89.1532 21.5207 88.1379C21.2905 87.0352 21.6077 85.8998 21.9246 84.8147C22.8236 81.7269 23.7192 78.6457 24.6249 75.5613C25.3465 76.0468 26.0647 76.539 26.7937 76.9272L26.8004 76.9306Z" fill="#85B0DB"/>
<path d="M21.1713 73.0439C21.9248 73.3014 22.651 73.6292 23.3396 74.0306C20.1841 76.2552 16.8359 78.2133 13.3489 79.8648C12.2708 80.3768 11.0921 80.8712 9.91168 80.691C8.98946 80.5497 8.16422 80.0029 7.56513 79.2935C6.96604 78.584 6.57289 77.7184 6.28399 76.83L10.2275 74.7288C8.69655 74.2774 7.15512 73.8796 5.59993 73.5253C6.04556 71.8236 6.61674 69.9415 8.13412 69.0469C9.08841 68.4803 10.2572 68.4188 11.3646 68.4944C15.2 68.7554 18.8033 70.4647 22.6133 70.9907C22.1719 71.6586 21.7407 72.3232 21.1747 73.0372L21.1713 73.0439Z" fill="#85B0DB"/>
<path d="M23.1324 65.7714C22.7281 66.4329 22.3837 67.1419 22.1131 67.8715C19.5413 65.6096 16.9662 63.3376 14.3944 61.0757C13.8006 60.5542 13.2036 60.0227 12.6639 59.4446C12.0611 58.7922 11.5095 58.0058 11.4993 57.1163C11.4902 56.5221 11.7194 55.9566 12.0219 55.4454C12.5999 54.4596 13.4318 53.6537 14.2501 52.8578C15.4877 53.9347 16.7219 55.0182 17.9596 56.0951C17.7082 54.67 17.4669 53.2416 17.2155 51.8165C17.1995 51.7157 17.1869 51.6082 17.2445 51.5281C17.2954 51.4613 17.3929 51.4352 17.477 51.4191C18.8554 51.1611 20.3017 51.2494 21.6348 51.6758C22.097 51.8271 22.5555 52.0186 22.9192 52.3302C23.553 52.8888 23.8186 53.7401 24.0342 54.5574C25.0796 58.4926 25.5531 62.5744 25.4527 66.6418C24.6525 66.3436 23.8456 66.0421 23.1359 65.7647L23.1324 65.7714Z" fill="#85B0DB"/>
<path d="M25.7694 72.8502C26.8445 73.3978 28.1599 72.9706 28.7074 71.8959C29.2549 70.8212 28.8271 69.506 27.752 68.9583C26.6769 68.4106 25.3616 68.8379 24.8141 69.9126C24.2666 70.9873 24.6943 72.3025 25.7694 72.8502Z" fill="#FBE28A"/>
<path d="M39.9412 31.5862C40.1395 27.9375 40.7514 24.3145 41.7666 20.8124C42.4829 18.3317 43.5338 15.7406 45.7241 14.3732C47.9095 13.0143 50.6771 13.1986 53.2365 13.4312C52.829 15.4374 52.4082 17.4472 52.0007 19.4534C53.788 18.3145 55.6184 17.2569 57.4883 16.2673C58.337 18.1678 59.2163 20.2099 58.8848 22.2601C58.4918 24.6691 56.5359 26.4878 54.5966 27.9668C51.2537 30.5253 47.5951 32.6756 43.7337 34.3589C43.6213 33.1331 43.5172 31.9122 43.4048 30.6864C42.2596 31.0481 41.1192 31.4013 39.9327 31.5813L39.9412 31.5862Z" fill="#4D7DAC"/>
<path d="M44.1876 38.5777C45.1939 39.1947 46.1709 39.8624 47.1004 40.5926C46.1492 41.2808 45.1669 41.9059 44.1402 42.4715C46.8846 44.5242 49.8095 46.3433 52.8691 47.8912C54.4368 48.6872 56.0437 49.4156 57.7194 49.9474C58.7348 50.2767 59.8025 50.535 60.8522 50.3771C62.1173 50.1976 63.2395 49.4282 64.098 48.4722C64.9565 47.5161 65.568 46.3832 66.1831 45.2635C64.2099 44.3115 62.2416 43.3509 60.2683 42.3988C62.2287 41.8561 64.2103 41.3932 66.2218 41.0152C66.0415 39.4008 65.4739 37.8323 64.5832 36.471C64.0318 35.6331 63.3324 34.8559 62.4082 34.4667C61.2752 33.9903 59.9883 34.1685 58.7823 34.3822C53.8346 35.2557 48.9761 36.5978 44.2009 38.5741L44.1876 38.5777Z" fill="#4D7DAC"/>
<path d="M37.9094 45.8691C38.7518 45.1742 39.5329 44.41 40.2563 43.5897C43.0068 47.8882 45.1659 52.5651 46.6573 57.441C46.8969 58.2335 47.1303 59.0561 47.0576 59.8816C46.9538 61.0722 46.2339 62.1198 45.3954 62.9636C44.4086 63.9466 43.2161 64.7204 41.9225 65.2214C41.7346 65.2928 41.5382 65.3592 41.3401 65.312C41.1167 65.2502 40.9595 65.0351 40.8312 64.8481C39.9095 63.4237 39.1931 61.8591 38.7165 60.2307C37.7081 61.99 36.713 63.7458 35.7046 65.5052C34.4753 64.9617 33.2731 64.3325 32.2659 63.4445C31.2588 62.5566 30.4711 61.3676 30.2734 60.0361C30.0522 58.5895 30.5435 57.1389 31.0308 55.7536C32.4139 51.8113 33.7921 47.8774 35.1836 43.94C36.0855 44.6205 36.9826 45.3094 37.901 45.8642L37.9094 45.8691Z" fill="#4D7DAC"/>
<path d="M30.8806 40.4319C31.8399 40.8188 32.7588 41.2951 33.6239 41.8641C29.3744 44.5282 24.8936 46.8329 20.2544 48.7303C18.8199 49.3187 17.2562 49.8772 15.7376 49.5605C14.5512 49.3124 13.5192 48.5452 12.7919 47.5828C12.0646 46.6204 11.6154 45.4699 11.3031 44.2973L16.5661 41.8487C14.6119 41.1555 12.6404 40.5312 10.6479 39.9624C11.3455 37.7862 12.2186 35.3851 14.2498 34.3312C15.5275 33.6632 17.048 33.6655 18.4791 33.8414C23.4361 34.4494 27.99 36.9198 32.8953 37.8698C32.2759 38.7052 31.6698 39.537 30.8855 40.4234L30.8806 40.4319Z" fill="#4D7DAC"/>
<path d="M33.9354 31.136C33.3644 31.9656 32.8679 32.8611 32.4657 33.7886C29.2884 30.6738 26.1077 27.5457 22.9305 24.4309C22.1969 23.7128 21.4598 22.9813 20.8004 22.1935C20.0642 21.3048 19.404 20.2461 19.4532 19.0914C19.4832 18.32 19.8201 17.6026 20.2485 16.9607C21.0676 15.7226 22.2032 14.7356 23.3206 13.7606C24.8504 15.2445 26.3753 16.7368 27.9051 18.2206C27.6791 16.3544 27.4665 14.4845 27.2405 12.6183C27.2268 12.4863 27.218 12.346 27.2984 12.2461C27.369 12.1631 27.4974 12.1361 27.6076 12.1211C29.4137 11.8833 31.2837 12.0995 32.983 12.7463C33.5719 12.9749 34.1533 13.2555 34.6031 13.6853C35.386 14.4545 35.6708 15.5774 35.893 16.6527C36.9725 21.8308 37.3001 27.1589 36.884 32.428C35.8669 31.985 34.8415 31.5371 33.9403 31.1275L33.9354 31.136Z" fill="#4D7DAC"/>
<path d="M36.8587 40.5036C38.2149 41.2896 39.9511 40.8278 40.7368 39.4722C41.5225 38.1166 41.0601 36.3805 39.704 35.5945C38.3478 34.8085 36.6115 35.2703 35.8259 36.6259C35.0402 37.9815 35.5026 39.7176 36.8587 40.5036Z" fill="#FBE28A"/>
<path d="M146.941 120.586C147.14 116.938 147.751 113.314 148.767 109.812C149.483 107.332 150.534 104.741 152.724 103.373C154.909 102.014 157.677 102.199 160.236 102.431C159.829 104.437 159.408 106.447 159.001 108.453C160.788 107.314 162.618 106.257 164.488 105.267C165.337 107.168 166.216 109.21 165.885 111.26C165.492 113.669 163.536 115.488 161.597 116.967C158.254 119.525 154.595 121.676 150.734 123.359C150.621 122.133 150.517 120.912 150.405 119.686C149.26 120.048 148.119 120.401 146.933 120.581L146.941 120.586Z" fill="#4D7DAC"/>
<path d="M151.188 127.578C152.194 128.195 153.171 128.862 154.1 129.593C153.149 130.281 152.167 130.906 151.14 131.472C153.885 133.524 156.81 135.343 159.869 136.891C161.437 137.687 163.044 138.416 164.719 138.947C165.735 139.277 166.803 139.535 167.852 139.377C169.117 139.198 170.24 138.428 171.098 137.472C171.956 136.516 172.568 135.383 173.183 134.264C171.21 133.311 169.242 132.351 167.268 131.399C169.229 130.856 171.21 130.393 173.222 130.015C173.041 128.401 172.474 126.832 171.583 125.471C171.032 124.633 170.332 123.856 169.408 123.467C168.275 122.99 166.988 123.168 165.782 123.382C160.835 124.256 155.976 125.598 151.201 127.574L151.188 127.578Z" fill="#4D7DAC"/>
<path d="M144.909 134.869C145.752 134.174 146.533 133.41 147.256 132.59C150.007 136.888 152.166 141.565 153.657 146.441C153.897 147.233 154.13 148.056 154.058 148.882C153.954 150.072 153.234 151.12 152.395 151.964C151.409 152.947 150.216 153.72 148.922 154.221C148.735 154.293 148.538 154.359 148.34 154.312C148.117 154.25 147.96 154.035 147.831 153.848C146.91 152.424 146.193 150.859 145.717 149.231C144.708 150.99 143.713 152.746 142.705 154.505C141.475 153.962 140.273 153.333 139.266 152.445C138.259 151.557 137.471 150.368 137.273 149.036C137.052 147.589 137.544 146.139 138.031 144.754C139.414 140.811 140.792 136.877 142.184 132.94C143.086 133.62 143.983 134.309 144.901 134.864L144.909 134.869Z" fill="#4D7DAC"/>
<path d="M137.881 129.432C138.84 129.819 139.759 130.295 140.624 130.864C136.374 133.528 131.894 135.833 127.254 137.73C125.82 138.319 124.256 138.877 122.738 138.561C121.551 138.312 120.519 137.545 119.792 136.583C119.065 135.62 118.615 134.47 118.303 133.297L123.566 130.849C121.612 130.156 119.64 129.531 117.648 128.962C118.346 126.786 119.219 124.385 121.25 123.331C122.527 122.663 124.048 122.665 125.479 122.841C130.436 123.449 134.99 125.92 139.895 126.87C139.276 127.705 138.67 128.537 137.885 129.423L137.881 129.432Z" fill="#4D7DAC"/>
<path d="M140.935 120.136C140.364 120.966 139.868 121.861 139.466 122.789C136.288 119.674 133.108 116.546 129.93 113.431C129.197 112.713 128.46 111.981 127.8 111.193C127.064 110.305 126.404 109.246 126.453 108.091C126.483 107.32 126.82 106.603 127.249 105.961C128.068 104.723 129.203 103.736 130.321 102.761C131.85 104.244 133.375 105.737 134.905 107.221C134.679 105.354 134.466 103.485 134.241 101.618C134.227 101.486 134.218 101.346 134.298 101.246C134.369 101.163 134.497 101.136 134.608 101.121C136.414 100.883 138.284 101.099 139.983 101.746C140.572 101.975 141.153 102.256 141.603 102.685C142.386 103.455 142.671 104.577 142.893 105.653C143.973 110.831 144.3 116.159 143.884 121.428C142.867 120.985 141.841 120.537 140.94 120.128L140.935 120.136Z" fill="#4D7DAC"/>
<path d="M143.859 129.504C145.215 130.29 146.951 129.828 147.737 128.472C148.523 127.117 148.06 125.38 146.704 124.594C145.348 123.809 143.612 124.27 142.826 125.626C142.04 126.982 142.503 128.718 143.859 129.504Z" fill="#FBE28A"/>
</svg>
