<svg width="226" height="181" viewBox="0 0 226 181" fill="none" xmlns="http://www.w3.org/2000/svg">
<path d="M188.941 31.5862C189.14 27.9375 189.751 24.3145 190.767 20.8124C191.483 18.3317 192.534 15.7406 194.724 14.3732C196.909 13.0143 199.677 13.1986 202.236 13.4312C201.829 15.4374 201.408 17.4472 201.001 19.4534C202.788 18.3145 204.618 17.2569 206.488 16.2673C207.337 18.1678 208.216 20.2099 207.885 22.2601C207.492 24.6691 205.536 26.4878 203.597 27.9668C200.254 30.5253 196.595 32.6756 192.734 34.3589C192.621 33.1331 192.517 31.9122 192.405 30.6864C191.26 31.0481 190.119 31.4013 188.933 31.5813L188.941 31.5862Z" fill="#4D7DAC"/>
<path d="M193.188 38.5777C194.194 39.1947 195.171 39.8624 196.1 40.5926C195.149 41.2808 194.167 41.9059 193.14 42.4715C195.885 44.5242 198.81 46.3433 201.869 47.8912C203.437 48.6872 205.044 49.4156 206.719 49.9474C207.735 50.2767 208.803 50.535 209.852 50.3771C211.117 50.1976 212.24 49.4282 213.098 48.4722C213.956 47.5161 214.568 46.3832 215.183 45.2635C213.21 44.3115 211.242 43.3509 209.268 42.3988C211.229 41.8561 213.21 41.3932 215.222 41.0152C215.041 39.4008 214.474 37.8323 213.583 36.471C213.032 35.6331 212.332 34.8559 211.408 34.4667C210.275 33.9903 208.988 34.1685 207.782 34.3822C202.835 35.2557 197.976 36.5978 193.201 38.5741L193.188 38.5777Z" fill="#4D7DAC"/>
<path d="M186.909 45.8691C187.752 45.1742 188.533 44.41 189.256 43.5897C192.007 47.8882 194.166 52.5651 195.657 57.441C195.897 58.2335 196.13 59.0561 196.058 59.8816C195.954 61.0722 195.234 62.1198 194.395 62.9636C193.409 63.9466 192.216 64.7204 190.922 65.2214C190.735 65.2928 190.538 65.3592 190.34 65.312C190.117 65.2502 189.96 65.0351 189.831 64.8481C188.91 63.4237 188.193 61.8591 187.717 60.2307C186.708 61.99 185.713 63.7458 184.705 65.5052C183.475 64.9617 182.273 64.3325 181.266 63.4445C180.259 62.5566 179.471 61.3676 179.273 60.0361C179.052 58.5895 179.544 57.1389 180.031 55.7536C181.414 51.8113 182.792 47.8774 184.184 43.94C185.086 44.6205 185.983 45.3094 186.901 45.8642L186.909 45.8691Z" fill="#4D7DAC"/>
<path d="M179.881 40.4319C180.84 40.8188 181.759 41.2951 182.624 41.8641C178.374 44.5282 173.894 46.8329 169.254 48.7303C167.82 49.3187 166.256 49.8772 164.738 49.5605C163.551 49.3124 162.519 48.5452 161.792 47.5828C161.065 46.6204 160.615 45.4699 160.303 44.2973L165.566 41.8487C163.612 41.1555 161.64 40.5312 159.648 39.9624C160.346 37.7862 161.219 35.3851 163.25 34.3312C164.527 33.6632 166.048 33.6655 167.479 33.8414C172.436 34.4494 176.99 36.9198 181.895 37.8698C181.276 38.7052 180.67 39.537 179.885 40.4234L179.881 40.4319Z" fill="#4D7DAC"/>
<path d="M182.935 31.136C182.364 31.9656 181.868 32.8611 181.466 33.7886C178.288 30.6738 175.108 27.5457 171.93 24.4309C171.197 23.7128 170.46 22.9813 169.8 22.1935C169.064 21.3048 168.404 20.2461 168.453 19.0914C168.483 18.32 168.82 17.6026 169.249 16.9607C170.068 15.7226 171.203 14.7356 172.321 13.7606C173.85 15.2445 175.375 16.7368 176.905 18.2206C176.679 16.3544 176.466 14.4845 176.241 12.6183C176.227 12.4863 176.218 12.346 176.298 12.2461C176.369 12.1631 176.497 12.1361 176.608 12.1211C178.414 11.8833 180.284 12.0995 181.983 12.7463C182.572 12.9749 183.153 13.2555 183.603 13.6853C184.386 14.4545 184.671 15.5774 184.893 16.6527C185.973 21.8308 186.3 27.1589 185.884 32.428C184.867 31.985 183.841 31.5371 182.94 31.1275L182.935 31.136Z" fill="#4D7DAC"/>
<path d="M185.859 40.5036C187.215 41.2896 188.951 40.8278 189.737 39.4722C190.523 38.1166 190.06 36.3805 188.704 35.5945C187.348 34.8085 185.612 35.2703 184.826 36.6259C184.04 37.9815 184.503 39.7176 185.859 40.5036Z" fill="#FBE28A"/>
<path d="M58.8578 138.901C58.7879 135.248 59.1322 131.589 59.8876 128.022C60.4199 125.496 61.2778 122.834 63.3618 121.31C65.4415 119.794 68.2153 119.775 70.7848 119.819C70.5256 121.85 70.2535 123.885 69.9943 125.916C71.6932 124.649 73.4411 123.46 75.2333 122.336C76.2192 124.169 77.246 126.141 77.0658 128.21C76.8507 130.641 75.0336 132.598 73.2081 134.216C70.062 137.013 66.5711 139.426 62.8436 141.388C62.6415 140.174 62.4482 138.964 62.2461 137.749C61.1305 138.194 60.0191 138.63 58.8491 138.897L58.8578 138.901Z" fill="#4D7DAC"/>
<path d="M63.6059 145.562C64.6549 146.103 65.6782 146.698 66.6588 147.358C65.7607 148.114 64.8269 148.809 63.8445 149.449C66.7322 151.294 69.7827 152.894 72.9476 154.213C74.5695 154.892 76.2255 155.5 77.9358 155.908C78.9725 156.162 80.0564 156.341 81.0916 156.106C82.3401 155.835 83.4029 154.985 84.1889 153.968C84.9749 152.952 85.5016 151.777 86.0329 150.615C83.9951 149.811 81.9616 148.997 79.9238 148.192C81.839 147.507 83.7814 146.9 85.7596 146.376C85.4613 144.779 84.7801 143.256 83.792 141.964C83.1805 141.169 82.426 140.445 81.4757 140.125C80.3108 139.733 79.0405 140.005 77.8534 140.307C72.9832 141.541 68.2362 143.236 63.619 145.557L63.6059 145.562Z" fill="#4D7DAC"/>
<path d="M57.8799 153.294C58.669 152.54 59.3919 151.72 60.0532 150.849C63.1117 154.934 65.6082 159.44 67.4535 164.193C67.7506 164.966 68.0438 165.769 68.0319 166.598C68.0157 167.793 67.3746 168.89 66.6004 169.793C65.6883 170.846 64.5559 171.705 63.3025 172.3C63.1203 172.385 62.9294 172.466 62.7284 172.433C62.501 172.388 62.3285 172.185 62.1868 172.008C61.163 170.655 60.3337 169.147 59.7389 167.558C58.8623 169.387 57.9988 171.211 57.1223 173.039C55.8563 172.588 54.6112 172.048 53.5416 171.237C52.4719 170.425 51.5992 169.297 51.3043 167.984C50.9775 166.557 51.361 165.074 51.7453 163.657C52.8353 159.624 53.921 155.6 55.0198 151.571C55.9693 152.183 56.9145 152.804 57.8711 153.29L57.8799 153.294Z" fill="#4D7DAC"/>
<path d="M50.4709 148.388C51.4561 148.703 52.4075 149.111 53.312 149.615C49.2695 152.584 44.9699 155.211 40.4824 157.444C39.095 158.136 37.5765 158.808 36.0388 158.603C34.8374 158.443 33.7518 157.753 32.9559 156.847C32.1599 155.941 31.6275 154.826 31.2299 153.68L36.2991 150.851C34.2993 150.304 32.2872 149.826 30.2584 149.405C30.7944 147.183 31.4889 144.724 33.4372 143.524C34.6625 142.764 36.179 142.655 37.6192 142.725C42.6074 142.968 47.3304 145.097 52.2922 145.685C51.7357 146.563 51.1923 147.437 50.4752 148.379L50.4709 148.388Z" fill="#4D7DAC"/>
<path d="M52.8352 138.893C52.3266 139.762 51.8973 140.692 51.5641 141.646C48.1669 138.773 44.7651 135.887 41.3678 133.013C40.5835 132.351 39.7947 131.676 39.0793 130.938C38.2798 130.106 37.5437 129.099 37.5081 127.944C37.4814 127.172 37.7647 126.432 38.1448 125.76C38.8708 124.465 39.9309 123.398 40.9738 122.343C42.6084 123.711 44.2387 125.087 45.8732 126.455C45.5109 124.61 45.1616 122.761 44.7993 120.916C44.7759 120.786 44.7568 120.646 44.8297 120.541C44.894 120.453 45.0201 120.417 45.1288 120.394C46.9127 120.024 48.7935 120.102 50.5356 120.623C51.1397 120.807 51.7401 121.045 52.2203 121.44C53.0575 122.15 53.424 123.249 53.7245 124.305C55.1812 129.39 55.8989 134.679 55.8707 139.965C54.8239 139.598 53.7683 139.226 52.8395 138.884L52.8352 138.893Z" fill="#4D7DAC"/>
<path d="M56.4382 148.021C57.8484 148.705 59.5461 148.117 60.2302 146.707C60.9142 145.298 60.3256 143.6 58.9155 142.916C57.5053 142.232 55.8076 142.819 55.1235 144.229C54.4395 145.639 55.0281 147.336 56.4382 148.021Z" fill="#FBE28A"/>
<path d="M27.7675 97.8675C27.7681 95.0547 28.0876 92.2443 28.7221 89.5103C29.1695 87.5736 29.8693 85.5382 31.496 84.396C33.1192 83.2605 35.2543 83.287 37.2312 83.3592C37.0015 84.9182 36.7617 86.4805 36.532 88.0396C37.8584 87.0898 39.2213 86.2007 40.6174 85.3622C41.3489 86.7876 42.1098 88.3207 41.9403 89.9104C41.7385 91.7784 40.3108 93.2578 38.8817 94.4753C36.4187 96.5811 33.6961 98.3862 30.7981 99.8409C30.6606 98.9033 30.5298 97.9692 30.3924 97.0317C29.5271 97.3573 28.6653 97.6763 27.7608 97.8641L27.7675 97.8675Z" fill="#85B0DB"/>
<path d="M31.3226 103.065C32.1218 103.497 32.9005 103.97 33.6454 104.492C32.9429 105.061 32.2138 105.582 31.4482 106.06C33.6432 107.523 35.9671 108.8 38.3833 109.862C39.6215 110.409 40.8869 110.902 42.1971 111.241C42.9913 111.452 43.8227 111.606 44.623 111.441C45.5879 111.25 46.4185 110.612 47.0386 109.841C47.6587 109.071 48.0816 108.174 48.5078 107.288C46.9514 106.638 45.3984 105.982 43.8421 105.332C45.3263 104.834 46.8303 104.395 48.3606 104.021C48.1548 102.788 47.6532 101.606 46.912 100.596C46.4532 99.9752 45.8833 99.407 45.1567 99.1463C44.266 98.8273 43.2843 99.0178 42.3661 99.2323C38.5995 100.11 34.9208 101.344 31.3327 103.061L31.3226 103.065Z" fill="#85B0DB"/>
<path d="M26.8004 108.931C27.419 108.361 27.9876 107.741 28.5095 107.081C30.8025 110.27 32.6568 113.775 34.0062 117.461C34.2233 118.06 34.437 118.683 34.4155 119.321C34.3852 120.24 33.8755 121.075 33.2661 121.759C32.5485 122.555 31.6641 123.2 30.6906 123.639C30.5492 123.701 30.401 123.761 30.2468 123.733C30.0725 123.694 29.9427 123.536 29.8363 123.397C29.0686 122.341 28.4527 121.168 28.0186 119.936C27.3168 121.33 26.625 122.721 25.9231 124.116C24.9555 123.749 24.0052 123.316 23.1941 122.675C22.383 122.034 21.7281 121.153 21.5207 120.138C21.2905 119.035 21.6077 117.9 21.9246 116.815C22.8236 113.727 23.7192 110.646 24.6249 107.561C25.3465 108.047 26.0647 108.539 26.7937 108.927L26.8004 108.931Z" fill="#85B0DB"/>
<path d="M21.1713 105.044C21.9248 105.301 22.651 105.629 23.3396 106.031C20.1841 108.255 16.8359 110.213 13.3489 111.865C12.2708 112.377 11.0921 112.871 9.91168 112.691C8.98946 112.55 8.16422 112.003 7.56513 111.293C6.96604 110.584 6.57289 109.718 6.28399 108.83L10.2275 106.729C8.69655 106.277 7.15512 105.88 5.59993 105.525C6.04556 103.824 6.61674 101.942 8.13412 101.047C9.08841 100.48 10.2572 100.419 11.3646 100.494C15.2 100.755 18.8033 102.465 22.6133 102.991C22.1719 103.659 21.7407 104.323 21.1747 105.037L21.1713 105.044Z" fill="#85B0DB"/>
<path d="M23.1324 97.7714C22.7281 98.4329 22.3837 99.1419 22.1131 99.8715C19.5413 97.6096 16.9662 95.3376 14.3944 93.0757C13.8006 92.5542 13.2036 92.0227 12.6639 91.4446C12.0611 90.7922 11.5095 90.0058 11.4993 89.1163C11.4902 88.5221 11.7194 87.9566 12.0219 87.4454C12.5999 86.4596 13.4318 85.6537 14.2501 84.8578C15.4877 85.9347 16.7219 87.0182 17.9596 88.0951C17.7082 86.67 17.4669 85.2416 17.2155 83.8165C17.1995 83.7157 17.1869 83.6082 17.2445 83.5281C17.2954 83.4613 17.3929 83.4352 17.477 83.4191C18.8554 83.1611 20.3017 83.2494 21.6348 83.6758C22.097 83.8271 22.5555 84.0186 22.9192 84.3302C23.553 84.8888 23.8186 85.7401 24.0342 86.5574C25.0796 90.4926 25.5531 94.5744 25.4527 98.6418C24.6525 98.3436 23.8456 98.0421 23.1359 97.7647L23.1324 97.7714Z" fill="#85B0DB"/>
<path d="M25.7694 104.85C26.8445 105.398 28.1599 104.971 28.7074 103.896C29.2549 102.821 28.8271 101.506 27.752 100.958C26.6769 100.411 25.3616 100.838 24.8141 101.913C24.2666 102.987 24.6943 104.302 25.7694 104.85Z" fill="#FBE28A"/>
<path d="M153.047 15.5117C153.048 13.6836 153.255 11.8571 153.668 10.0802C153.958 8.82159 154.413 7.49876 155.47 6.75645C156.525 6.01848 157.913 6.03567 159.198 6.08261C159.049 7.09584 158.893 8.1112 158.743 9.12443C159.605 8.50714 160.491 7.92932 161.399 7.38437C161.874 8.31077 162.368 9.30712 162.258 10.3403C162.127 11.5543 161.199 12.5158 160.27 13.3071C158.67 14.6757 156.9 15.8488 155.017 16.7942C154.928 16.1849 154.843 15.5778 154.753 14.9685C154.191 15.1801 153.631 15.3874 153.043 15.5094L153.047 15.5117Z" fill="#85B0DB"/>
<path d="M155.358 18.8894C155.877 19.1704 156.383 19.4775 156.867 19.8172C156.411 20.1867 155.937 20.5255 155.439 20.8358C156.866 21.787 158.376 22.6166 159.947 23.3071C160.751 23.6623 161.574 23.9827 162.425 24.2031C162.941 24.3401 163.482 24.4402 164.002 24.333C164.629 24.2091 165.169 23.7944 165.572 23.2935C165.975 22.7927 166.25 22.2102 166.527 21.6342C165.515 21.212 164.506 20.7854 163.494 20.3632C164.459 20.039 165.436 19.7542 166.431 19.5109C166.297 18.7093 165.971 17.9411 165.489 17.2852C165.191 16.8815 164.821 16.5122 164.349 16.3428C163.77 16.1355 163.132 16.2593 162.535 16.3987C160.087 16.9689 157.696 17.7708 155.364 18.8872L155.358 18.8894Z" fill="#85B0DB"/>
<path d="M152.419 22.7017C152.821 22.3318 153.19 21.9288 153.529 21.4995C155.02 23.5724 156.225 25.8504 157.102 28.2458C157.243 28.6352 157.382 29.0398 157.368 29.4542C157.348 30.0517 157.017 30.5946 156.621 31.0387C156.154 31.5565 155.58 31.9753 154.947 32.2606C154.855 32.3013 154.759 32.3398 154.659 32.3216C154.545 32.2967 154.461 32.1936 154.392 32.1036C153.893 31.417 153.493 30.6548 153.21 29.8542C152.754 30.7604 152.305 31.6644 151.849 32.5706C151.22 32.3323 150.602 32.0505 150.075 31.6342C149.548 31.2179 149.122 30.6452 148.987 29.9854C148.838 29.2688 149.044 28.5308 149.25 27.8256C149.834 25.8188 150.416 23.8163 151.005 21.8117C151.474 22.1273 151.941 22.4472 152.414 22.6995L152.419 22.7017Z" fill="#85B0DB"/>
<path d="M148.76 20.1757C149.25 20.343 149.722 20.5561 150.17 20.8169C148.119 22.2628 145.943 23.5353 143.677 24.6086C142.976 24.9414 142.21 25.2627 141.443 25.1456C140.843 25.0537 140.307 24.6984 139.918 24.2373C139.528 23.7762 139.273 23.2136 139.085 22.6363L141.648 21.2707C140.653 20.9773 139.651 20.7188 138.64 20.4885C138.93 19.3826 139.301 18.1594 140.287 17.578C140.908 17.2097 141.667 17.1698 142.387 17.2189C144.88 17.3885 147.221 18.4994 149.698 18.8413C149.411 19.2754 149.13 19.7073 148.763 20.1713L148.76 20.1757Z" fill="#85B0DB"/>
<path d="M150.035 15.4492C149.772 15.8791 149.548 16.3399 149.372 16.8141C147.701 15.3441 146.027 13.8675 144.356 12.3975C143.97 12.0585 143.582 11.7131 143.231 11.3374C142.84 10.9134 142.481 10.4023 142.474 9.82419C142.469 9.43803 142.617 9.0705 142.814 8.73824C143.19 8.0976 143.73 7.57384 144.262 7.05655C145.067 7.75642 145.869 8.46064 146.673 9.16051C146.51 8.23433 146.353 7.30601 146.189 6.37982C146.179 6.31429 146.171 6.24443 146.208 6.19236C146.241 6.14898 146.305 6.13202 146.359 6.12153C147.255 5.95388 148.195 6.01126 149.062 6.28841C149.362 6.3867 149.66 6.51114 149.896 6.71365C150.308 7.07675 150.481 7.62998 150.621 8.16115C151.3 10.7187 151.608 13.3715 151.543 16.0149C151.023 15.8211 150.498 15.6251 150.037 15.4449L150.035 15.4492Z" fill="#85B0DB"/>
<path d="M151.749 20.0498C152.447 20.4057 153.302 20.1281 153.658 19.4296C154.014 18.7312 153.736 17.8764 153.037 17.5204C152.339 17.1645 151.484 17.4421 151.128 18.1406C150.772 18.839 151.05 19.6938 151.749 20.0498Z" fill="#FBE28A"/>
</svg>
