<svg width="296" height="257" viewBox="0 0 296 257" fill="none" xmlns="http://www.w3.org/2000/svg">
<path d="M30.1821 32.6582C27.1783 31.1762 24.3452 29.3548 21.7594 27.2371C19.9267 25.7394 18.1215 23.9199 17.7583 21.5811C17.4006 19.2494 18.5533 16.9832 19.6716 14.9098C21.2157 15.9763 22.7579 17.0552 24.302 18.1217C23.9862 16.2048 23.7545 14.281 23.5943 12.3483C25.5019 12.3179 27.5399 12.3127 29.1484 13.331C31.0372 14.5303 31.8653 16.8342 32.4129 19.0017C33.3647 22.7413 33.8585 26.5998 33.8858 30.461C32.8121 30.114 31.7456 29.7617 30.6719 29.4147C30.564 30.5103 30.4508 31.5987 30.1749 32.6636L30.1821 32.6582Z" fill="#4D7DAC"/>
<path d="M37.6051 31.5987C38.4878 30.9729 39.4026 30.39 40.3531 29.8698C40.5903 30.9196 40.7632 31.9727 40.8699 33.0419C43.589 31.4685 46.1763 29.6589 48.5835 27.638C49.8193 26.6035 51.0123 25.5116 52.0645 24.2909C52.7079 23.5538 53.3104 22.7469 53.5556 21.8053C53.8602 20.6744 53.6162 19.4512 53.1197 18.3831C52.6233 17.315 51.8888 16.3913 51.1668 15.4694C49.6532 16.7894 48.1343 18.1023 46.6208 19.4223C46.8697 17.5744 47.1938 15.7374 47.6001 13.9059C46.1744 13.476 44.6478 13.3892 43.1795 13.6493C42.2746 13.8121 41.3675 14.1214 40.7064 14.7602C39.8966 15.5434 39.583 16.6923 39.3285 17.7858C38.2817 22.2707 37.662 26.8493 37.6069 31.5862L37.6051 31.5987Z" fill="#4D7DAC"/>
<path d="M41.4881 39.5178C41.206 38.5574 40.8434 37.6236 40.4127 36.7183C45.0268 35.9492 49.7468 35.8149 54.3939 36.315C55.1481 36.3986 55.9256 36.4983 56.5952 36.8571C57.5612 37.3737 58.1848 38.358 58.5937 39.3687C59.0667 40.5547 59.2891 41.8386 59.2452 43.1095C59.2376 43.2936 59.2229 43.483 59.1117 43.633C58.9791 43.799 58.7412 43.854 58.5373 43.8947C57.0046 44.1582 55.4277 44.1983 53.8835 44.0131C55.0029 45.497 56.1242 46.9685 57.2436 48.4524C56.3425 49.2927 55.379 50.0793 54.2676 50.6081C53.1562 51.137 51.8703 51.3724 50.6768 51.0591C49.3778 50.7243 48.3323 49.7874 47.3403 48.8775C44.516 46.2911 41.697 43.7118 38.8798 41.1201C39.7784 40.6051 40.6824 40.0973 41.481 39.5232L41.4881 39.5178Z" fill="#4D7DAC"/>
<path d="M34.3724 43.4826C35.0443 42.8135 35.7768 42.2106 36.5681 41.6865C37.2822 46.2282 37.6099 50.8354 37.5372 55.4293C37.5162 56.8504 37.4235 58.3696 36.6093 59.5354C35.9726 60.4459 34.9541 61.0393 33.8808 61.3055C32.8076 61.5716 31.676 61.5356 30.5751 61.3763L30.408 56.058C29.1196 57.4552 27.8828 58.892 26.6854 60.3663C25.1026 58.9941 23.3935 57.3929 23.2372 55.3011C23.1346 53.9835 23.6845 52.7029 24.3485 51.56C26.6474 47.6012 30.3706 44.6532 32.939 40.8612C33.4199 41.6843 33.9026 42.495 34.367 43.4754L34.3724 43.4826Z" fill="#4D7DAC"/>
<path d="M27.6383 37.5579C28.1318 38.3381 28.7076 39.0793 29.3444 39.7526C25.5741 41.308 21.7914 42.8615 18.0211 44.417C17.1515 44.7764 16.2694 45.1341 15.3677 45.406C14.3534 45.7062 13.2232 45.8811 12.2677 45.4235C11.6284 45.1203 11.1451 44.5777 10.7584 43.9853C10.0101 42.8488 9.5875 41.536 9.16844 40.2428C10.9704 39.4882 12.7777 38.7408 14.5796 37.9861C12.9252 37.504 11.2726 37.0094 9.6182 36.5273C9.50208 36.4913 9.3806 36.4482 9.32541 36.3444C9.28092 36.255 9.30442 36.137 9.33145 36.0388C9.78193 34.4308 10.638 32.9326 11.7955 31.7335C12.2005 31.3195 12.6465 30.9306 13.1708 30.7064C14.1013 30.3237 15.1503 30.4883 16.1367 30.6886C20.89 31.6447 25.4988 33.2888 29.7899 35.5383C29.05 36.2359 28.3029 36.9388 27.633 37.5507L27.6383 37.5579Z" fill="#4D7DAC"/>
<path d="M36.5872 38.4698C37.7384 37.6101 37.9749 35.9802 37.1155 34.8295C36.256 33.6788 34.6261 33.4429 33.475 34.3026C32.3238 35.1624 32.0873 36.7922 32.9467 37.9429C33.8061 39.0937 35.436 39.3296 36.5872 38.4698Z" fill="#FBE28A"/>
<path d="M254.182 219.658C251.178 218.176 248.345 216.355 245.759 214.237C243.927 212.739 242.121 210.92 241.758 208.581C241.401 206.249 242.553 203.983 243.672 201.91C245.216 202.976 246.758 204.055 248.302 205.122C247.986 203.205 247.754 201.281 247.594 199.348C249.502 199.318 251.54 199.313 253.148 200.331C255.037 201.53 255.865 203.834 256.413 206.002C257.365 209.741 257.859 213.6 257.886 217.461C256.812 217.114 255.746 216.762 254.672 216.415C254.564 217.51 254.451 218.599 254.175 219.664L254.182 219.658Z" fill="#4D7DAC"/>
<path d="M261.605 218.599C262.488 217.973 263.403 217.39 264.353 216.87C264.59 217.92 264.763 218.973 264.87 220.042C267.589 218.468 270.176 216.659 272.583 214.638C273.819 213.603 275.012 212.512 276.064 211.291C276.708 210.554 277.31 209.747 277.556 208.805C277.86 207.674 277.616 206.451 277.12 205.383C276.623 204.315 275.889 203.391 275.167 202.469C273.653 203.789 272.134 205.102 270.621 206.422C270.87 204.574 271.194 202.737 271.6 200.906C270.174 200.476 268.648 200.389 267.18 200.649C266.275 200.812 265.367 201.121 264.706 201.76C263.897 202.543 263.583 203.692 263.329 204.786C262.282 209.271 261.662 213.849 261.607 218.586L261.605 218.599Z" fill="#4D7DAC"/>
<path d="M265.488 226.518C265.206 225.557 264.843 224.624 264.413 223.718C269.027 222.949 273.747 222.815 278.394 223.315C279.148 223.399 279.926 223.498 280.595 223.857C281.561 224.374 282.185 225.358 282.594 226.369C283.067 227.555 283.289 228.839 283.245 230.109C283.238 230.294 283.223 230.483 283.112 230.633C282.979 230.799 282.741 230.854 282.537 230.895C281.005 231.158 279.428 231.198 277.883 231.013C279.003 232.497 280.124 233.968 281.244 235.452C280.343 236.293 279.379 237.079 278.268 237.608C277.156 238.137 275.87 238.372 274.677 238.059C273.378 237.724 272.332 236.787 271.34 235.878C268.516 233.291 265.697 230.712 262.88 228.12C263.778 227.605 264.682 227.097 265.481 226.523L265.488 226.518Z" fill="#4D7DAC"/>
<path d="M258.372 230.483C259.044 229.813 259.777 229.211 260.568 228.687C261.282 233.228 261.61 237.835 261.537 242.429C261.516 243.85 261.423 245.37 260.609 246.535C259.973 247.446 258.954 248.039 257.881 248.305C256.808 248.572 255.676 248.536 254.575 248.376L254.408 243.058C253.12 244.455 251.883 245.892 250.685 247.366C249.103 245.994 247.394 244.393 247.237 242.301C247.135 240.984 247.685 239.703 248.349 238.56C250.647 234.601 254.371 231.653 256.939 227.861C257.42 228.684 257.903 229.495 258.367 230.475L258.372 230.483Z" fill="#4D7DAC"/>
<path d="M251.638 224.558C252.132 225.338 252.708 226.079 253.344 226.753C249.574 228.308 245.791 229.862 242.021 231.417C241.151 231.776 240.269 232.134 239.368 232.406C238.353 232.706 237.223 232.881 236.268 232.424C235.628 232.12 235.145 231.578 234.758 230.985C234.01 229.849 233.587 228.536 233.168 227.243C234.97 226.488 236.778 225.741 238.58 224.986C236.925 224.504 235.273 224.009 233.618 223.527C233.502 223.491 233.381 223.448 233.325 223.344C233.281 223.255 233.304 223.137 233.331 223.039C233.782 221.431 234.638 219.933 235.796 218.733C236.2 218.32 236.646 217.931 237.171 217.706C238.101 217.324 239.15 217.488 240.137 217.689C244.89 218.645 249.499 220.289 253.79 222.538C253.05 223.236 252.303 223.939 251.633 224.551L251.638 224.558Z" fill="#4D7DAC"/>
<path d="M260.587 225.47C261.738 224.61 261.975 222.98 261.115 221.83C260.256 220.679 258.626 220.443 257.475 221.303C256.324 222.162 256.087 223.792 256.947 224.943C257.806 226.094 259.436 226.33 260.587 225.47Z" fill="#FBE28A"/>
<path d="M67.3034 18.3119C67.3038 16.1538 67.5489 13.9976 68.0357 11.9C68.379 10.4141 68.9159 8.85246 70.1639 7.97615C71.4093 7.10496 73.0474 7.12525 74.5642 7.18067C74.3879 8.37681 74.204 9.57546 74.0277 10.7716C75.0454 10.0429 76.0911 9.36074 77.1622 8.71742C77.7234 9.81106 78.3072 10.9873 78.1771 12.2069C78.0223 13.6402 76.927 14.7752 75.8305 15.7093C73.9408 17.325 71.8519 18.7099 69.6285 19.8259C69.523 19.1066 69.4227 18.3899 69.3172 17.6706C68.6534 17.9205 67.9922 18.1652 67.2982 18.3093L67.3034 18.3119Z" fill="#85B0DB"/>
<path d="M70.0309 22.2994C70.6441 22.6311 71.2416 22.9936 71.813 23.3946C71.2741 23.8308 70.7147 24.2309 70.1273 24.5972C71.8114 25.7201 73.5944 26.6995 75.4481 27.5146C76.3981 27.9339 77.369 28.3122 78.3742 28.5723C78.9835 28.734 79.6214 28.8522 80.2354 28.7256C80.9758 28.5794 81.613 28.0898 82.0887 27.4986C82.5645 26.9073 82.8889 26.2196 83.2159 25.5397C82.0218 25.0413 80.8304 24.5377 79.6363 24.0392C80.775 23.6565 81.9289 23.3203 83.103 23.0331C82.9451 22.0868 82.5603 21.1799 81.9916 20.4056C81.6396 19.929 81.2024 19.493 80.6449 19.293C79.9615 19.0483 79.2083 19.1945 78.5039 19.359C75.614 20.0322 72.7916 20.9788 70.0386 22.2968L70.0309 22.2994Z" fill="#85B0DB"/>
<path d="M66.5614 26.7999C67.0359 26.3632 67.4722 25.8875 67.8726 25.3807C69.6319 27.8278 71.0546 30.517 72.0898 33.3448C72.2565 33.8045 72.4204 34.2822 72.4039 34.7713C72.3807 35.4768 71.9896 36.1176 71.5221 36.6419C70.9715 37.2532 70.293 37.7476 69.5461 38.0844C69.4375 38.1325 69.3239 38.1779 69.2055 38.1564C69.0718 38.1271 68.9722 38.0053 68.8906 37.8991C68.3016 37.0885 67.8291 36.1887 67.496 35.2436C66.9575 36.3133 66.4268 37.3806 65.8883 38.4503C65.1459 38.1691 64.4168 37.8364 63.7945 37.3449C63.1722 36.8534 62.6698 36.1774 62.5106 35.3985C62.334 34.5524 62.5774 33.6813 62.8205 32.8488C63.5102 30.4797 64.1974 28.1157 64.8922 25.7493C65.4459 26.1218 65.9969 26.4994 66.5562 26.7973L66.5614 26.7999Z" fill="#85B0DB"/>
<path d="M62.2426 23.8178C62.8207 24.0154 63.3778 24.2669 63.9061 24.5748C61.4852 26.2817 58.9163 27.784 56.241 29.0511C55.4138 29.4439 54.5095 29.8232 53.6038 29.685C52.8962 29.5765 52.2631 29.1571 51.8035 28.6127C51.3438 28.0684 51.0422 27.4042 50.8205 26.7227L53.8461 25.1106C52.6715 24.7642 51.4889 24.459 50.2957 24.1872C50.6376 22.8816 51.0758 21.4376 52.24 20.7512C52.9722 20.3165 53.8689 20.2693 54.7185 20.3273C57.6612 20.5276 60.4257 21.839 63.3489 22.2426C63.0103 22.755 62.6794 23.2649 62.2452 23.8127L62.2426 23.8178Z" fill="#85B0DB"/>
<path d="M63.7472 18.2382C63.4369 18.7457 63.1728 19.2896 62.9651 19.8495C60.992 18.114 59.0162 16.3709 57.0431 14.6355C56.5875 14.2354 56.1294 13.8276 55.7154 13.384C55.2529 12.8835 54.8297 12.2802 54.8219 11.5977C54.8149 11.1418 54.9907 10.7079 55.2228 10.3157C55.6663 9.5594 56.3045 8.9411 56.9324 8.33043C57.8819 9.15664 58.8288 9.98799 59.7784 10.8142C59.5855 9.72081 59.4004 8.62491 59.2076 7.53152C59.1952 7.45417 59.1855 7.37169 59.2298 7.31022C59.2688 7.25902 59.3437 7.23899 59.4081 7.22661C60.4657 7.0287 61.5754 7.09644 62.5982 7.42361C62.9528 7.53964 63.3046 7.68656 63.5836 7.92562C64.0698 8.35427 64.2737 9.00737 64.439 9.63442C65.2411 12.6536 65.6044 15.7853 65.5273 18.906C64.9134 18.6772 64.2943 18.4458 63.7498 18.233L63.7472 18.2382Z" fill="#85B0DB"/>
<path d="M65.7703 23.6692C66.5952 24.0894 67.6044 23.7616 68.0244 22.9371C68.4445 22.1126 68.1163 21.1035 67.2915 20.6833C66.4666 20.2631 65.4574 20.5909 65.0374 21.4154C64.6173 22.2399 64.9455 23.249 65.7703 23.6692Z" fill="#FBE28A"/>
<path d="M274.303 174.312C274.304 172.154 274.549 169.998 275.036 167.9C275.379 166.414 275.916 164.852 277.164 163.976C278.409 163.105 280.047 163.125 281.564 163.181C281.388 164.377 281.204 165.575 281.028 166.772C282.045 166.043 283.091 165.361 284.162 164.717C284.723 165.811 285.307 166.987 285.177 168.207C285.022 169.64 283.927 170.775 282.831 171.709C280.941 173.325 278.852 174.71 276.628 175.826C276.523 175.107 276.423 174.39 276.317 173.671C275.653 173.92 274.992 174.165 274.298 174.309L274.303 174.312Z" fill="#85B0DB"/>
<path d="M277.031 178.299C277.644 178.631 278.242 178.994 278.813 179.395C278.274 179.831 277.715 180.231 277.127 180.597C278.811 181.72 280.594 182.699 282.448 183.515C283.398 183.934 284.369 184.312 285.374 184.572C285.983 184.734 286.621 184.852 287.235 184.726C287.976 184.579 288.613 184.09 289.089 183.499C289.564 182.907 289.889 182.22 290.216 181.54C289.022 181.041 287.83 180.538 286.636 180.039C287.775 179.657 288.929 179.32 290.103 179.033C289.945 178.087 289.56 177.18 288.992 176.406C288.64 175.929 288.202 175.493 287.645 175.293C286.962 175.048 286.208 175.194 285.504 175.359C282.614 176.032 279.792 176.979 277.039 178.297L277.031 178.299Z" fill="#85B0DB"/>
<path d="M273.561 182.8C274.036 182.363 274.472 181.888 274.873 181.381C276.632 183.828 278.055 186.517 279.09 189.345C279.256 189.804 279.42 190.282 279.404 190.771C279.381 191.477 278.99 192.118 278.522 192.642C277.971 193.253 277.293 193.748 276.546 194.084C276.438 194.132 276.324 194.178 276.206 194.156C276.072 194.127 275.972 194.005 275.891 193.899C275.302 193.088 274.829 192.189 274.496 191.244C273.958 192.313 273.427 193.381 272.888 194.45C272.146 194.169 271.417 193.836 270.795 193.345C270.172 192.853 269.67 192.177 269.511 191.398C269.334 190.552 269.577 189.681 269.82 188.849C270.51 186.48 271.197 184.116 271.892 181.749C272.446 182.122 272.997 182.499 273.556 182.797L273.561 182.8Z" fill="#85B0DB"/>
<path d="M269.243 179.818C269.821 180.015 270.378 180.267 270.906 180.575C268.485 182.282 265.916 183.784 263.241 185.051C262.414 185.444 261.509 185.823 260.604 185.685C259.896 185.577 259.263 185.157 258.803 184.613C258.344 184.068 258.042 183.404 257.821 182.723L260.846 181.111C259.672 180.764 258.489 180.459 257.296 180.187C257.638 178.882 258.076 177.438 259.24 176.751C259.972 176.316 260.869 176.269 261.718 176.327C264.661 176.528 267.426 177.839 270.349 178.243C270.01 178.755 269.679 179.265 269.245 179.813L269.243 179.818Z" fill="#85B0DB"/>
<path d="M270.747 174.238C270.437 174.746 270.173 175.29 269.965 175.849C267.992 174.114 266.016 172.371 264.043 170.635C263.588 170.235 263.129 169.828 262.715 169.384C262.253 168.883 261.83 168.28 261.822 167.598C261.815 167.142 261.991 166.708 262.223 166.316C262.666 165.559 263.305 164.941 263.932 164.33C264.882 165.157 265.829 165.988 266.778 166.814C266.586 165.721 266.4 164.625 266.208 163.532C266.195 163.454 266.186 163.372 266.23 163.31C266.269 163.259 266.344 163.239 266.408 163.227C267.466 163.029 268.575 163.096 269.598 163.424C269.953 163.54 270.305 163.687 270.584 163.926C271.07 164.354 271.274 165.007 271.439 165.634C272.241 168.654 272.604 171.785 272.527 174.906C271.913 174.677 271.294 174.446 270.75 174.233L270.747 174.238Z" fill="#85B0DB"/>
<path d="M272.77 179.669C273.595 180.089 274.604 179.762 275.024 178.937C275.444 178.113 275.116 177.103 274.291 176.683C273.467 176.263 272.457 176.591 272.037 177.415C271.617 178.24 271.945 179.249 272.77 179.669Z" fill="#FBE28A"/>
</svg>
