<svg width="209" height="154" viewBox="0 0 209 154" fill="none" xmlns="http://www.w3.org/2000/svg">
<path d="M22.4231 34.548C20.3249 33.1008 18.3926 31.417 16.6792 29.5374C15.4645 28.2076 14.306 26.6385 14.2905 24.8375C14.2782 23.0425 15.3961 21.4633 16.4668 20.0256C17.5117 20.9988 18.5539 21.9812 19.5989 22.9545C19.5725 21.4764 19.6102 20.0023 19.7027 18.5295C21.1424 18.7169 22.6775 18.9378 23.7763 19.8819C25.0662 20.9932 25.4355 22.8192 25.6088 24.5116C25.913 27.4322 25.8594 30.3918 25.454 33.302C24.6839 32.9224 23.9198 32.5395 23.1496 32.1598C22.9476 32.9728 22.7423 33.7798 22.4171 34.5512L22.4231 34.548Z" fill="#4D7DAC"/>
<path d="M28.1289 34.5689C28.8626 34.195 29.6157 33.8571 30.3887 33.5702C30.4515 34.3867 30.4655 35.1988 30.428 36.0155C32.6488 35.1307 34.7964 34.0535 36.8317 32.7974C37.8763 32.1548 38.895 31.4643 39.8218 30.6612C40.3875 30.1772 40.9301 29.6361 41.2186 28.9542C41.5727 28.1362 41.5238 27.1884 41.2679 26.3294C41.0119 25.4705 40.5607 24.694 40.1188 23.9202C38.8336 24.7472 37.5452 25.5682 36.26 26.3951C36.6512 25.0313 37.0978 23.6838 37.6057 22.3497C36.5796 21.8688 35.4398 21.6351 34.3056 21.6689C33.6063 21.6917 32.8892 21.8246 32.321 22.2326C31.6249 22.7331 31.2621 23.5635 30.9499 24.3588C29.6671 27.6201 28.6956 30.9991 28.1317 34.5596L28.1289 34.5689Z" fill="#4D7DAC"/>
<path d="M30.1793 40.9597C30.0728 40.2054 29.9027 39.4623 29.6783 38.7332C33.2372 38.663 36.8059 39.0824 40.2496 39.9714C40.8083 40.1175 41.3827 40.2784 41.8473 40.6223C42.5177 41.1178 42.8786 41.9277 43.0751 42.7338C43.3003 43.679 43.3262 44.6702 43.153 45.6222C43.127 45.76 43.095 45.901 42.9948 46.0017C42.8766 46.112 42.6914 46.1272 42.5334 46.1354C41.3503 46.1648 40.1586 46.021 39.0164 45.7113C39.6956 46.952 40.3775 48.1836 41.0567 49.4243C40.2856 49.9576 39.4734 50.4436 38.5783 50.7192C37.6832 50.9949 36.689 51.0303 35.8249 50.6628C34.8838 50.2674 34.1999 49.4468 33.5533 48.6523C31.7121 46.3934 29.874 44.1405 28.0387 41.8784C28.7721 41.5897 29.5087 41.3071 30.1733 40.9629L30.1793 40.9597Z" fill="#4D7DAC"/>
<path d="M24.3844 43.1601C24.964 42.7304 25.5821 42.3573 26.2357 42.0499C26.2724 45.5483 26.0111 49.0533 25.4497 52.5042C25.2772 53.5718 25.0398 54.7055 24.2982 55.4935C23.7185 56.1088 22.8861 56.4432 22.0487 56.5253C21.2113 56.6073 20.3632 56.4554 19.5519 56.214L20.0126 52.1913C18.8884 53.1013 17.7988 54.0466 16.7346 55.0246C15.6942 53.8169 14.584 52.4228 14.697 50.8306C14.765 49.8273 15.3203 48.9236 15.9463 48.1364C18.1137 45.4092 21.2422 43.6002 23.5942 41.0283C23.8655 41.7011 24.1396 42.3647 24.3811 43.1541L24.3844 43.1601Z" fill="#4D7DAC"/>
<path d="M19.9675 37.9565C20.253 38.5985 20.6048 39.22 21.01 39.7971C17.9997 40.5525 14.9802 41.305 11.97 42.0604C11.2755 42.2351 10.5719 42.4071 9.86305 42.5124C9.06623 42.6266 8.19593 42.6336 7.52702 42.1837C7.07908 41.8849 6.77502 41.4231 6.54924 40.9344C6.11111 39.9962 5.93772 38.9611 5.76481 37.9412C7.20477 37.5718 8.64796 37.2083 10.0879 36.8389C8.89543 36.2934 7.70569 35.7387 6.51321 35.1933C6.42974 35.1534 6.34304 35.1075 6.31293 35.0233C6.28929 34.9511 6.31999 34.8648 6.35119 34.7938C6.8677 33.6328 7.67748 32.5992 8.68126 31.824C9.03181 31.557 9.41051 31.3134 9.83001 31.2023C10.5728 31.0168 11.3445 31.2565 12.0651 31.516C15.5386 32.7601 18.8274 34.5063 21.8102 36.6732C21.1761 37.1168 20.5361 37.5637 19.9642 37.9505L19.9675 37.9565Z" fill="#4D7DAC"/>
<path d="M26.6048 39.6301C27.5664 39.1097 27.9242 37.9086 27.404 36.9474C26.8838 35.9862 25.6826 35.6289 24.721 36.1493C23.7595 36.6696 23.4017 37.8707 23.9219 38.8319C24.442 39.7931 25.6432 40.1505 26.6048 39.6301Z" fill="#FBE28A"/>
<path d="M170.42 92.9434C167.663 91.0417 165.124 88.829 162.872 86.3589C161.276 84.6114 159.754 82.5495 159.733 80.1827C159.717 77.8239 161.186 75.7486 162.593 73.8592C163.966 75.1382 165.336 76.4292 166.709 77.7082C166.674 75.7658 166.724 73.8287 166.846 71.8932C168.737 72.1395 170.755 72.4298 172.199 73.6704C173.894 75.1308 174.379 77.5304 174.607 79.7544C175.007 83.5924 174.936 87.4817 174.403 91.3061C173.391 90.8072 172.387 90.304 171.375 89.8051C171.11 90.8735 170.84 91.934 170.413 92.9477L170.42 92.9434Z" fill="#4D7DAC"/>
<path d="M177.919 92.9709C178.883 92.4796 179.872 92.0355 180.888 91.6585C180.971 92.7315 180.989 93.7987 180.94 94.872C183.858 93.7092 186.68 92.2937 189.355 90.643C190.728 89.7985 192.067 88.8911 193.284 87.8357C194.028 87.1997 194.741 86.4886 195.12 85.5925C195.585 84.5176 195.521 83.272 195.185 82.1433C194.848 81.0145 194.255 79.9941 193.675 78.9773C191.986 80.064 190.293 81.1429 188.604 82.2296C189.118 80.4373 189.705 78.6667 190.372 76.9134C189.024 76.2814 187.526 75.9743 186.036 76.0188C185.117 76.0487 184.174 76.2234 183.428 76.7596C182.513 77.4172 182.036 78.5085 181.626 79.5536C179.94 83.8394 178.663 88.2798 177.922 92.9588L177.919 92.9709Z" fill="#4D7DAC"/>
<path d="M180.613 101.369C180.473 100.378 180.25 99.4015 179.955 98.4434C184.632 98.3511 189.321 98.9022 193.847 100.07C194.581 100.263 195.336 100.474 195.946 100.926C196.827 101.577 197.301 102.641 197.56 103.701C197.856 104.943 197.89 106.245 197.662 107.496C197.628 107.677 197.586 107.863 197.454 107.995C197.299 108.14 197.055 108.16 196.848 108.171C195.293 108.209 193.727 108.02 192.226 107.613C193.119 109.244 194.015 110.862 194.907 112.493C193.894 113.194 192.827 113.832 191.65 114.194C190.474 114.557 189.168 114.603 188.032 114.12C186.795 113.601 185.897 112.522 185.047 111.478C182.627 108.51 180.212 105.549 177.8 102.576C178.764 102.197 179.732 101.826 180.605 101.373L180.613 101.369Z" fill="#4D7DAC"/>
<path d="M172.998 104.261C173.76 103.696 174.572 103.206 175.431 102.802C175.479 107.399 175.136 112.005 174.398 116.54C174.171 117.943 173.859 119.433 172.885 120.468C172.123 121.277 171.029 121.716 169.928 121.824C168.828 121.932 167.714 121.732 166.647 121.415L167.253 116.129C165.775 117.325 164.344 118.567 162.945 119.852C161.578 118.265 160.119 116.433 160.267 114.341C160.357 113.022 161.087 111.835 161.909 110.8C164.757 107.216 168.869 104.839 171.959 101.459C172.316 102.343 172.676 103.216 172.994 104.253L172.998 104.261Z" fill="#4D7DAC"/>
<path d="M167.193 97.4227C167.569 98.2663 168.031 99.083 168.563 99.8415C164.608 100.834 160.64 101.823 156.684 102.816C155.771 103.045 154.847 103.271 153.915 103.41C152.868 103.56 151.724 103.569 150.845 102.978C150.257 102.585 149.857 101.978 149.56 101.336C148.985 100.103 148.757 98.7428 148.529 97.4026C150.422 96.9171 152.318 96.4394 154.211 95.9539C152.643 95.2371 151.08 94.5082 149.513 93.7915C149.403 93.7391 149.289 93.6788 149.25 93.5681C149.219 93.4731 149.259 93.3598 149.3 93.2665C149.979 91.7408 151.043 90.3825 152.362 89.3638C152.823 89.0129 153.32 88.6927 153.872 88.5468C154.848 88.3031 155.862 88.618 156.809 88.9591C161.373 90.594 165.695 92.8886 169.615 95.7363C168.782 96.3192 167.941 96.9065 167.189 97.4148L167.193 97.4227Z" fill="#4D7DAC"/>
<path d="M175.916 99.6219C177.179 98.9381 177.65 97.3597 176.966 96.0966C176.282 94.8335 174.704 94.3639 173.44 95.0477C172.177 95.7316 171.706 97.3099 172.39 98.573C173.074 99.8362 174.652 100.306 175.916 99.6219Z" fill="#FBE28A"/>
<path d="M95.0473 15.5117C95.0477 13.6836 95.2553 11.8571 95.6677 10.0802C95.9584 8.82159 96.4133 7.49876 97.4704 6.75645C98.5254 6.01848 99.913 6.03567 101.198 6.08261C101.049 7.09584 100.893 8.1112 100.743 9.12443C101.605 8.50714 102.491 7.92932 103.399 7.38437C103.874 8.31077 104.368 9.30712 104.258 10.3403C104.127 11.5543 103.199 12.5158 102.27 13.3071C100.67 14.6757 98.9003 15.8488 97.0169 16.7942C96.9275 16.1849 96.8425 15.5778 96.7532 14.9685C96.1909 15.1801 95.6308 15.3874 95.0429 15.5094L95.0473 15.5117Z" fill="#85B0DB"/>
<path d="M97.3577 18.8894C97.8771 19.1704 98.3833 19.4775 98.8674 19.8172C98.4108 20.1867 97.937 20.5255 97.4394 20.8358C98.8659 21.787 100.376 22.6166 101.947 23.3071C102.751 23.6623 103.574 23.9827 104.425 24.2031C104.941 24.3401 105.482 24.4402 106.002 24.333C106.629 24.2091 107.169 23.7944 107.572 23.2935C107.975 22.7927 108.25 22.2102 108.527 21.6342C107.515 21.212 106.506 20.7854 105.494 20.3632C106.459 20.039 107.436 19.7542 108.431 19.5109C108.297 18.7093 107.971 17.9411 107.489 17.2852C107.191 16.8815 106.821 16.5122 106.349 16.3428C105.77 16.1355 105.132 16.2593 104.535 16.3987C102.087 16.9689 99.6963 17.7708 97.3643 18.8872L97.3577 18.8894Z" fill="#85B0DB"/>
<path d="M94.4187 22.7017C94.8208 22.3318 95.1903 21.9288 95.5295 21.4995C97.0198 23.5724 98.2249 25.8504 99.1018 28.2458C99.243 28.6352 99.3818 29.0398 99.3679 29.4542C99.3482 30.0517 99.0169 30.5946 98.6209 31.0387C98.1545 31.5565 97.5797 31.9753 96.947 32.2606C96.8551 32.3013 96.7588 32.3398 96.6586 32.3216C96.5453 32.2967 96.461 32.1936 96.3918 32.1036C95.8928 31.417 95.4926 30.6548 95.2105 29.8542C94.7543 30.7604 94.3047 31.6644 93.8486 32.5706C93.2198 32.3323 92.6022 32.0505 92.075 31.6342C91.5479 31.2179 91.1222 30.6452 90.9875 29.9854C90.8378 29.2688 91.044 28.5308 91.2499 27.8256C91.8342 25.8188 92.4162 23.8163 93.0049 21.8117C93.4738 22.1273 93.9406 22.4472 94.4144 22.6995L94.4187 22.7017Z" fill="#85B0DB"/>
<path d="M90.7604 20.1757C91.2501 20.343 91.722 20.5561 92.1696 20.8169C90.1188 22.2628 87.9427 23.5353 85.6765 24.6086C84.9759 24.9414 84.2098 25.2627 83.4426 25.1456C82.8433 25.0537 82.3069 24.6984 81.9176 24.2373C81.5282 23.7762 81.2727 23.2136 81.085 22.6363L83.6479 21.2707C82.6529 20.9773 81.6511 20.7188 80.6404 20.4885C80.93 19.3826 81.3012 18.1594 82.2874 17.578C82.9076 17.2097 83.6672 17.1698 84.3869 17.2189C86.8796 17.3885 89.2214 18.4994 91.6975 18.8413C91.4107 19.2754 91.1304 19.7073 90.7626 20.1713L90.7604 20.1757Z" fill="#85B0DB"/>
<path d="M92.0349 15.4492C91.7721 15.8791 91.5483 16.3399 91.3725 16.8141C89.701 15.3441 88.0274 13.8675 86.356 12.3975C85.9701 12.0585 85.5821 11.7131 85.2313 11.3374C84.8395 10.9134 84.4811 10.4023 84.4744 9.82419C84.4686 9.43803 84.6175 9.0705 84.8141 8.73824C85.1897 8.0976 85.7304 7.57384 86.2622 7.05655C87.0665 7.75642 87.8687 8.46064 88.673 9.16051C88.5097 8.23433 88.3528 7.30601 88.1895 6.37982C88.179 6.31429 88.1708 6.24443 88.2083 6.19236C88.2414 6.14898 88.3048 6.13202 88.3594 6.12153C89.2552 5.95388 90.1952 6.01126 91.0616 6.28841C91.362 6.3867 91.66 6.51114 91.8963 6.71365C92.3082 7.07675 92.4809 7.62998 92.621 8.16115C93.3004 10.7187 93.6081 13.3715 93.5428 16.0149C93.0228 15.8211 92.4984 15.6251 92.0371 15.4449L92.0349 15.4492Z" fill="#85B0DB"/>
<path d="M93.7487 20.0498C94.4474 20.4057 95.3023 20.1281 95.6581 19.4296C96.0139 18.7312 95.7359 17.8764 95.0372 17.5204C94.3385 17.1645 93.4836 17.4421 93.1278 18.1406C92.772 18.839 93.05 19.6938 93.7487 20.0498Z" fill="#FBE28A"/>
<path d="M106.303 129.312C106.304 127.154 106.549 124.998 107.036 122.9C107.379 121.414 107.916 119.852 109.164 118.976C110.409 118.105 112.047 118.125 113.564 118.181C113.388 119.377 113.204 120.575 113.028 121.772C114.045 121.043 115.091 120.361 116.162 119.717C116.723 120.811 117.307 121.987 117.177 123.207C117.022 124.64 115.927 125.775 114.831 126.709C112.941 128.325 110.852 129.71 108.628 130.826C108.523 130.107 108.423 129.39 108.317 128.671C107.653 128.92 106.992 129.165 106.298 129.309L106.303 129.312Z" fill="#85B0DB"/>
<path d="M109.031 133.299C109.644 133.631 110.242 133.994 110.813 134.395C110.274 134.831 109.715 135.231 109.127 135.597C110.811 136.72 112.594 137.699 114.448 138.515C115.398 138.934 116.369 139.312 117.374 139.572C117.983 139.734 118.621 139.852 119.235 139.726C119.976 139.579 120.613 139.09 121.089 138.499C121.564 137.907 121.889 137.22 122.216 136.54C121.022 136.041 119.83 135.538 118.636 135.039C119.775 134.657 120.929 134.32 122.103 134.033C121.945 133.087 121.56 132.18 120.992 131.406C120.64 130.929 120.202 130.493 119.645 130.293C118.962 130.048 118.208 130.194 117.504 130.359C114.614 131.032 111.792 131.979 109.039 133.297L109.031 133.299Z" fill="#85B0DB"/>
<path d="M105.561 137.8C106.036 137.363 106.472 136.888 106.873 136.381C108.632 138.828 110.055 141.517 111.09 144.345C111.256 144.804 111.42 145.282 111.404 145.771C111.381 146.477 110.99 147.118 110.522 147.642C109.971 148.253 109.293 148.748 108.546 149.084C108.438 149.132 108.324 149.178 108.206 149.156C108.072 149.127 107.972 149.005 107.891 148.899C107.302 148.088 106.829 147.189 106.496 146.244C105.958 147.313 105.427 148.381 104.888 149.45C104.146 149.169 103.417 148.836 102.795 148.345C102.172 147.853 101.67 147.177 101.511 146.398C101.334 145.552 101.577 144.681 101.82 143.849C102.51 141.48 103.197 139.116 103.892 136.749C104.446 137.122 104.997 137.499 105.556 137.797L105.561 137.8Z" fill="#85B0DB"/>
<path d="M101.243 134.818C101.821 135.015 102.378 135.267 102.906 135.575C100.485 137.282 97.9163 138.784 95.241 140.051C94.4138 140.444 93.5095 140.823 92.6038 140.685C91.8962 140.577 91.2631 140.157 90.8035 139.613C90.3438 139.068 90.0422 138.404 89.8205 137.723L92.8461 136.111C91.6715 135.764 90.4889 135.459 89.2957 135.187C89.6376 133.882 90.0758 132.438 91.24 131.751C91.9722 131.316 92.8689 131.269 93.7185 131.327C96.6612 131.528 99.4257 132.839 102.349 133.243C102.01 133.755 101.679 134.265 101.245 134.813L101.243 134.818Z" fill="#85B0DB"/>
<path d="M102.747 129.238C102.437 129.746 102.173 130.29 101.965 130.849C99.992 129.114 98.0162 127.371 96.0431 125.635C95.5875 125.235 95.1294 124.828 94.7154 124.384C94.2529 123.883 93.8297 123.28 93.8219 122.598C93.8149 122.142 93.9907 121.708 94.2228 121.316C94.6663 120.559 95.3045 119.941 95.9324 119.33C96.8819 120.157 97.8288 120.988 98.7784 121.814C98.5855 120.721 98.4004 119.625 98.2076 118.532C98.1952 118.454 98.1855 118.372 98.2298 118.31C98.2688 118.259 98.3437 118.239 98.4081 118.227C99.4657 118.029 100.575 118.096 101.598 118.424C101.953 118.54 102.305 118.687 102.584 118.926C103.07 119.354 103.274 120.007 103.439 120.634C104.241 123.654 104.604 126.785 104.527 129.906C103.913 129.677 103.294 129.446 102.75 129.233L102.747 129.238Z" fill="#85B0DB"/>
<path d="M104.77 134.669C105.595 135.089 106.604 134.762 107.024 133.937C107.444 133.113 107.116 132.103 106.291 131.683C105.467 131.263 104.457 131.591 104.037 132.415C103.617 133.24 103.945 134.249 104.77 134.669Z" fill="#FBE28A"/>
</svg>
