<svg width="38" height="38" fill="none" xmlns="http://www.w3.org/2000/svg"><path fill-rule="evenodd" clip-rule="evenodd" d="M18.24 38c-8.598 0-12.898 0-15.569-2.671C0 32.658 0 28.359 0 19.759v-1.52C0 9.642 0 5.343 2.671 2.672 5.342 0 9.641 0 18.24 0h1.52c8.598 0 12.898 0 15.569 2.671C38 5.342 38 9.641 38 18.24v1.52c0 8.598 0 12.898-2.671 15.569C32.658 38 28.359 38 19.76 38h-1.52Z" fill="#07F"/><path d="M21.974 23.418a2.293 2.293 0 0 1-1.742-2.222V8.821a1.84 1.84 0 0 1 2.29-1.778l7.365 1.84a2.293 2.293 0 0 1 1.741 2.222V23.48a1.84 1.84 0 0 1-2.29 1.778l-7.364-1.84ZM8.113 29.116a2.293 2.293 0 0 1-1.741-2.222V14.52a1.84 1.84 0 0 1 2.29-1.777l7.364 1.84a2.293 2.293 0 0 1 1.742 2.221v12.375a1.84 1.84 0 0 1-2.29 1.778l-7.365-1.84Z" fill="#fff"/><path d="M15.043 26.267a2.293 2.293 0 0 1-1.742-2.222V11.67a1.84 1.84 0 0 1 2.29-1.777l7.365 1.84a2.293 2.293 0 0 1 1.742 2.221V26.33a1.84 1.84 0 0 1-2.29 1.778l-7.365-1.84Z" fill="#fff"/><path d="M19.864 27.474a.748.748 0 0 1-.564-.7l-.32-9.45c-.093-1.251-1.021-2.246-1.991-2.539a.13.13 0 0 0-.145.053.11.11 0 0 0 .025.149c.24.185.9.79.9 1.835l-.002 10.12 2.097.532ZM26.796 24.623a.744.744 0 0 1-.563-.697l-.321-9.45c-.093-1.251-1.021-2.246-1.991-2.539a.13.13 0 0 0-.145.053.11.11 0 0 0 .025.149c.24.185.9.79.9 1.835l-.003 10.124 2.098.525Z" fill="#2B71F6"/></svg>