<svg width="51" height="55" viewBox="0 0 51 55" fill="none" xmlns="http://www.w3.org/2000/svg">
<path d="M25.5039 51.6535C25.0064 50.8585 24.9444 49.9385 24.9289 49.0386C24.8731 45.9097 24.8437 42.7793 24.8437 39.6504C24.8437 31.1329 24.8654 22.6153 24.8561 14.0977C24.8561 13.8075 24.6903 13.454 24.4873 13.2364C23.8379 12.5433 23.1142 11.9197 22.4618 11.2281C22.2851 11.0414 22.1239 10.6678 22.189 10.4502C22.9949 7.78437 23.8441 5.13093 24.6825 2.47439C24.9196 1.72574 25.1567 0.977099 25.4667 0C25.679 0.405967 25.8185 0.602004 25.8882 0.819652C26.9172 4.01182 27.9463 7.20398 28.9396 10.4069C29.0078 10.6292 28.8854 11.0105 28.7149 11.188C28.0764 11.8564 27.3976 12.4877 26.7018 13.0974C26.3221 13.4309 26.1858 13.7843 26.1858 14.2968C26.1889 25.4817 26.1811 36.6682 26.1408 47.8531C26.1362 49.1189 25.9239 50.3846 25.8076 51.6519C25.7069 51.6519 25.6046 51.6519 25.5039 51.6519V51.6535Z" fill="white"/>
<path d="M45.1157 28.2232C45.156 28.0395 45.1606 27.9361 45.2009 27.8496C45.717 26.7074 45.7805 26.5329 44.6957 25.8754C42.5261 24.5602 40.2681 23.3933 38.0443 22.1661C37.8056 22.0349 37.5561 21.9191 37.1532 21.7154C38.503 21.155 39.0098 20.1332 39.3181 18.9554C39.9101 16.6956 38.9214 15.3619 36.555 15.152C34.9572 15.01 33.7205 15.6644 32.5799 16.6662C30.9326 18.1126 30.0492 19.9896 29.4231 22.0318C28.8606 23.8687 28.2546 25.6932 27.6642 27.5208C27.6022 27.7122 27.5108 27.8928 27.3558 28.2587C27.2954 27.9314 27.2427 27.7833 27.2427 27.6351C27.2504 24.7624 27.2783 21.8898 27.2628 19.0171C27.2597 18.5016 27.4581 18.2932 27.8905 18.0354C28.8993 17.4334 29.8803 16.7666 30.7884 16.0226C31.7245 15.2554 32.0995 14.1672 32.2204 12.974C32.2405 12.7717 32.566 12.4291 32.7365 12.4383C34.7651 12.5387 36.789 12.6776 38.6518 13.6362C40.9082 14.7985 41.9852 16.6879 42.0906 19.1484C42.1294 20.0375 42.0534 20.9466 41.9047 21.825C41.8132 22.3683 41.9868 22.6353 42.4052 22.8839C43.8573 23.7452 43.8496 23.7467 44.9716 22.4918C45.297 22.1275 45.655 21.7941 45.999 21.4468C46.0889 21.5101 46.1772 21.5718 46.2671 21.6351C45.9603 22.2263 45.6782 22.8314 45.3404 23.4041C44.8879 24.1681 44.9204 24.253 45.7511 24.4861C47.2094 24.8952 48.4879 24.483 49.7029 23.7035C50.1027 23.4473 50.5196 23.2188 51 22.9348C50.7195 24.3981 46.8359 27.8635 45.1188 28.2247L45.1157 28.2232Z" fill="white"/>
<path d="M13.6221 21.6536C11.1131 23.1 8.63353 24.5432 6.13847 25.9587C5.4163 26.3693 5.34656 26.8787 5.7123 27.5533C5.81458 27.7431 5.85021 27.97 5.97574 28.3729C3.3505 27.2059 1.57297 25.3721 0 23.3022C0.0449421 23.2327 0.0883322 23.1617 0.133274 23.0923C0.522256 23.3022 0.920539 23.4967 1.29867 23.7251C2.50126 24.4537 3.75809 24.8705 5.19004 24.5494C5.94321 24.3812 6.02224 24.2716 5.70919 23.5924C5.4039 22.9302 5.1017 22.2664 4.79795 21.6042C4.85684 21.5625 4.91573 21.5209 4.97307 21.4792C5.52943 21.9963 6.13073 22.4748 6.62819 23.0429C7.05592 23.5322 7.45883 23.5646 7.96714 23.2528C8.14226 23.1447 8.32048 23.0398 8.50954 22.958C9.10154 22.7033 9.25187 22.3405 9.07675 21.6799C8.30963 18.7825 9.4332 15.5194 11.6431 14.0591C13.0983 13.0959 14.7519 12.7347 16.4535 12.5448C17.0671 12.4769 17.687 12.4183 18.3007 12.4399C18.496 12.446 18.8416 12.7208 18.8478 12.8844C18.9423 15.1427 20.2921 16.552 22.1642 17.4272C23.4613 18.0339 23.8364 18.8103 23.7666 20.1918C23.6427 22.6492 23.7449 25.1175 23.7496 27.581C23.7496 27.72 23.7232 27.8589 23.5543 28.0302C23.232 27.1303 22.8879 26.2381 22.5904 25.3289C22.0247 23.6016 21.5521 21.8419 20.9198 20.1409C20.2116 18.2345 18.9671 16.7048 17.1508 15.72C15.6104 14.8849 14.0436 14.8865 12.5295 15.8111C11.7593 16.2819 11.4385 16.9703 11.5486 17.9011C11.7361 19.4988 12.2212 20.9034 13.6206 21.6552L13.6221 21.6536Z" fill="white"/>
<path d="M7.94081 26.3662C9.00857 25.6562 9.16044 25.633 9.83457 26.3153C13.729 30.2607 17.6127 34.2201 21.4963 38.1763C21.5459 38.2272 21.5691 38.306 21.6032 38.3677C20.8175 39.3973 20.5881 39.3973 19.7079 38.4912C15.9699 34.643 12.2211 30.8056 8.47701 26.9621C8.30344 26.7845 8.14382 26.5931 7.94081 26.3662Z" fill="white"/>
<path d="M43.1894 26.6209C42.7554 26.959 42.2673 27.2569 41.8799 27.652C38.3945 31.2085 34.9278 34.7819 31.4548 38.3492C31.2937 38.5144 31.0968 38.6456 30.9496 38.8215C30.556 39.2892 30.2399 39.2321 29.8152 38.8076C29.3472 38.3399 29.6014 38.1099 29.9454 37.7595C33.3827 34.2648 36.8029 30.7547 40.2309 27.2523C40.5533 26.9219 40.8989 26.6147 41.2383 26.2999C42.0038 25.5898 42.2177 25.6052 43.1909 26.6225L43.1894 26.6209Z" fill="white"/>
<path d="M27.3434 44.8555C28.4251 46.1799 29.4185 47.3839 30.3933 48.6018C30.5126 48.7515 30.5916 48.9784 30.5932 49.1714C30.6071 51.0561 30.6025 52.9424 30.6025 55C30.3964 54.7175 30.2367 54.5462 30.1329 54.3471C29.2558 52.6692 28.3724 50.9944 27.534 49.2964C27.3728 48.9707 27.3605 48.5524 27.3527 48.1757C27.3295 47.1323 27.345 46.0873 27.345 44.8539L27.3434 44.8555Z" fill="white"/>
<path d="M20.4471 54.8333C20.4471 53.7975 20.5633 52.7463 20.4223 51.7307C20.1341 49.6314 20.8066 47.9488 22.3099 46.5148C22.7655 46.0811 23.1436 45.5671 23.6721 45.124C23.5435 46.6877 24.0518 48.2684 23.2707 49.7657C22.3843 51.4636 21.5288 53.1786 20.6594 54.8858C20.5881 54.8673 20.5168 54.8503 20.4456 54.8317L20.4471 54.8333Z" fill="white"/>
<path d="M27.2768 38.5282C28.4034 39.8496 29.4727 41.0428 30.4522 42.3023C30.6598 42.5694 30.5653 43.088 30.5699 43.4909C30.5839 44.5128 30.5746 45.5362 30.5746 46.6815C30.3747 46.5117 30.1763 46.3867 30.0337 46.2138C29.2201 45.2228 28.4003 44.2349 27.627 43.2131C27.4271 42.9491 27.3031 42.5663 27.2907 42.2329C27.2504 41.0675 27.2752 39.9005 27.2752 38.5267L27.2768 38.5282Z" fill="white"/>
<path d="M20.4378 46.538C20.4378 45.2583 20.4316 43.9787 20.444 42.7006C20.4456 42.5323 20.4951 42.327 20.6005 42.2036C21.5908 41.0381 22.5981 39.8866 23.6643 38.6564C23.6643 40.1367 23.7062 41.4734 23.6334 42.804C23.6163 43.1235 23.2289 43.4323 22.9887 43.7286C22.2061 44.698 21.411 45.6597 20.6222 46.6244C20.5602 46.5951 20.4983 46.5673 20.4363 46.538H20.4378Z" fill="white"/>
</svg>
