<svg width="44" height="60" viewBox="0 0 44 60" fill="none" xmlns="http://www.w3.org/2000/svg">
<path d="M37.0402 0.716254C38.3659 0.716254 39.6469 0.716254 40.9278 0.716254C41.6726 0.716254 42.4191 0.76102 43.1621 0.717976C43.8 0.680097 44.0034 0.895317 44 1.54442C43.9603 8.26791 43.9483 14.9914 43.9327 21.7149C43.9293 22.9735 43.9189 24.2338 43.9586 25.4907C43.9758 26.0245 43.7862 26.2035 43.2707 26.1983C41.4381 26.1777 39.6038 26.1656 37.7694 26.1846C37.2367 26.1897 37.0626 25.9831 37.0643 25.4821C37.0695 24.0238 37.0436 22.5637 37.0436 21.1054C37.0402 14.3543 37.0436 7.60331 37.0436 0.714532L37.0402 0.716254Z" fill="white"/>
<path d="M6.88911 0.702479C6.88911 3.51928 6.88911 6.20868 6.88911 8.89807C6.89256 14.3388 6.88225 19.7796 6.9219 25.2187C6.92707 25.9935 6.69949 26.2052 5.95644 26.1863C4.2652 26.1433 2.57224 26.1501 0.882719 26.1949C0.212083 26.2121 -0.00171367 26.0176 1.03276e-05 25.3289C0.0155263 17.3691 -0.00515157 9.40771 0.0103644 1.448C0.0103644 1.20007 0.28793 0.738636 0.44309 0.735193C2.55672 0.686983 4.67205 0.702479 6.88739 0.702479H6.88911Z" fill="white"/>
<path d="M21.5673 1.62879C21.8931 1.62879 22.1465 1.65806 22.3931 1.62362C23.0723 1.52548 23.2154 1.8199 23.1671 2.45523C23.0775 3.59332 23.0464 4.74001 23.0723 5.88154C23.0792 6.16908 23.3378 6.52204 23.5826 6.72004C25.0066 7.87362 25.548 9.3113 25.4928 11.1587C25.3842 14.8209 25.4532 18.4883 25.448 22.1522C25.448 22.3244 25.4807 22.5017 25.448 22.667C25.2859 23.4762 22.5309 24.7951 21.7965 24.4232C21.7448 24.3974 21.6965 24.3664 21.6466 24.3388C20.0651 23.4791 19.2703 22.1562 19.2622 20.3702C19.2536 17.2486 19.3226 14.1253 19.2243 11.009C19.1743 9.4146 19.6553 8.17149 20.8156 7.12466C21.3759 6.61846 21.8379 6.16736 21.6241 5.18423C21.3828 4.07197 21.569 2.86501 21.569 1.63051L21.5673 1.62879Z" fill="white"/>
<path d="M13.1559 4.55579C16.5039 4.83299 18.1848 2.61192 19.9001 0.294422C19.9294 0.509642 19.9795 0.714532 19.9812 0.922865C19.9915 1.69422 19.9191 2.47417 20.0036 3.23692C20.1863 4.89325 19.8933 6.32404 18.5003 7.42424C17.8882 7.90806 17.7124 8.61915 17.7193 9.42149C17.7503 13.1956 17.7348 16.9697 17.7348 20.7438C17.7348 21.0486 17.7348 21.3516 17.7348 21.9008C16.2556 20.9229 14.8368 20.3908 13.1541 20.7576V4.55751L13.1559 4.55579Z" fill="white"/>
<path d="M30.8096 20.4167C29.4804 20.8678 28.2891 21.2724 27.0237 21.7011C27.0237 21.5152 27.0237 21.1966 27.0237 20.8764C27.0237 17.3605 26.9668 13.843 27.0496 10.3289C27.0875 8.70007 26.5272 7.42424 25.3652 6.38258C24.817 5.89015 24.6515 5.35813 24.6928 4.64704C24.7618 3.45041 24.7377 2.2469 24.7601 1.04683C24.7653 0.778237 24.7963 0.509642 24.8342 0C26.2393 2.51033 27.9736 4.23898 30.8079 4.6677V20.4149L30.8096 20.4167Z" fill="white"/>
<path d="M17.5021 23.6243C18.4399 24.1925 19.4416 24.7762 20.4191 25.396C22.7861 26.8991 21.9345 26.8475 24.3429 25.4063C25.1032 24.9518 25.8531 24.48 26.6065 24.0134C27.1237 23.6932 27.4616 23.75 27.7495 24.3612C28.1322 25.1791 28.627 25.9435 29.1201 26.8147C28.3788 27.3915 27.6392 28.0114 26.8548 28.5692C25.6911 29.3957 24.4825 30.1636 23.3171 30.9883C22.762 31.3809 22.2431 31.4687 21.6655 31.0709C19.7588 29.7607 17.84 28.4659 15.9522 27.1281C15.8091 27.0265 15.7643 26.572 15.8643 26.3843C16.3315 25.5114 16.8676 24.6746 17.5021 23.6209V23.6243Z" fill="white"/>
<path d="M35.6006 22.8495C34.5455 22.1711 33.5439 21.5479 32.5698 20.8833C32.4267 20.7851 32.3457 20.501 32.3457 20.303C32.3509 15.3547 32.3733 10.4046 32.3837 5.45627C32.3837 4.87948 32.6216 4.67975 33.206 4.51274C34.0042 4.28547 34.7231 3.78271 35.5248 3.37466C35.5472 3.4573 35.611 3.58127 35.6093 3.70524C35.5903 6.07955 35.5489 8.45386 35.5506 10.8282C35.5506 11.4704 35.3782 11.8543 34.68 11.9232C34.4938 11.9421 34.1645 12.1901 34.1818 12.2658C34.2352 12.4879 34.3973 12.8116 34.5749 12.8547C35.611 13.1078 35.5351 13.8809 35.5369 14.666C35.5438 17.1832 35.5748 19.7004 35.5972 22.2176C35.5989 22.4329 35.5972 22.6481 35.5972 22.8512L35.6006 22.8495Z" fill="white"/>
<path d="M8.4976 3.58988C9.34409 3.92218 10.1406 4.29063 10.9733 4.54029C11.5336 4.70902 11.5525 5.04649 11.5508 5.5062C11.5405 9.99311 11.5439 14.48 11.5439 18.9669C11.5439 18.9962 11.5405 19.0238 11.5439 19.053C11.7025 20.1791 11.5577 21.0709 10.2613 21.5324C9.62682 21.7579 9.13719 22.3881 8.47517 22.9201C8.47517 22.4174 8.47517 21.9886 8.47517 21.5599C8.47689 19.0737 8.48896 16.5875 8.47517 14.1012C8.47172 13.5985 8.51831 13.2404 9.11999 13.1061C9.36652 13.051 9.70096 12.7187 9.71303 12.4966C9.7251 12.2865 9.36821 12.0541 9.1734 11.8337C8.94755 11.5754 8.52862 11.3223 8.52345 11.0606C8.47345 8.552 8.49415 6.04167 8.49415 3.5916L8.4976 3.58988Z" fill="white"/>
<path d="M20.8777 35.4907H23.9102V52.4122H20.8777V35.4907Z" fill="white"/>
<path d="M26.191 55.5871V60H18.5468V55.5871H26.191Z" fill="white"/>
<path d="M22.2275 34.6694C21.2742 34.666 20.488 34.3492 19.8002 33.7018C19.0502 32.9976 18.2244 32.3709 17.5038 31.6408C17.2538 31.3877 17.2211 30.9229 17.09 30.5544C17.5366 30.551 18.0693 30.3908 18.4123 30.5768C19.3399 31.0761 20.2053 31.6977 21.0587 32.3192C21.9724 32.9838 22.7741 32.9804 23.6844 32.2469C24.5033 31.5875 25.4411 31.0744 26.3462 30.5269C26.5789 30.3857 26.8806 30.3013 27.153 30.2927C27.703 30.2755 28.0202 30.7817 27.6444 31.1295C26.4134 32.2658 25.1394 33.3643 23.8016 34.3698C23.4188 34.6574 22.7603 34.5799 22.2293 34.6694H22.2275Z" fill="white"/>
<path d="M20.8983 53.3127C21.7431 53.3127 22.5413 53.3299 23.3395 53.3075C23.9085 53.292 23.9636 53.6243 23.9998 54.072C24.0412 54.5833 23.8119 54.7314 23.3568 54.7211C22.8723 54.7107 22.3862 54.7245 21.9 54.728C20.6742 54.7366 20.6311 54.6798 20.8983 53.3127Z" fill="white"/>
</svg>
