<svg width="60" height="49" viewBox="0 0 60 49" fill="none" xmlns="http://www.w3.org/2000/svg">
<path d="M47.1102 39.5238C48.6504 40.7381 51.6169 46.4601 52.0448 49C51.6764 48.666 51.4146 48.4177 51.1402 48.1813C49.5694 46.8318 47.762 46.318 45.6586 46.7307C42.47 47.3558 39.9693 46.0542 37.7015 44.1035C39.8862 44.6413 42.0439 45.9086 44.3712 44.2234C43.1398 42.6511 41.7297 41.3547 40.13 40.2534C39.3337 39.7037 38.4472 39.2704 37.5968 38.7942C37.1364 38.5356 36.6038 38.3678 36.806 37.6536C36.8475 37.5046 36.499 37.097 36.295 37.0747C35.8545 37.0233 35.2948 37.0028 34.9589 37.2169C33.9189 37.878 33.7041 38.9809 33.6048 40.0702C33.4874 41.3495 33.7998 42.557 34.4967 43.6685C34.5996 43.8329 34.6791 44.0127 34.6592 44.3484C34.3125 44.1891 33.9316 44.0778 33.6282 43.8637C32.2614 42.8995 31.3117 41.6527 30.8874 40.0702C30.5263 38.7206 30.2194 37.3539 29.7933 36.0231C28.7785 32.8513 27.2655 29.9158 24.6745 27.6311C23.9198 26.9666 22.8455 26.6052 21.876 26.1993C21.5492 26.0623 21.0869 26.2147 20.6861 26.2336C20.6157 26.3243 20.5453 26.4168 20.473 26.5076C21.2603 27.6499 22.0475 28.7923 22.9466 30.0956C22.1666 29.6572 21.486 29.3181 20.8522 28.9122C15.84 25.7043 12.5973 21.3251 11.0607 15.7657C10.3024 13.0186 9.49895 10.2698 8.46799 7.60832C7.08856 4.0494 4.67635 1.36223 0.584994 0.396289C0.460412 0.367174 0.357498 0.252427 0 0.0160788C0.566941 0.0160788 0.870269 -0.0233127 1.15916 0.0212166C5.93301 0.766226 9.89979 3.06291 13.2346 6.20907C16.9522 9.71661 20.3665 13.5136 23.909 17.189C23.9758 17.2592 23.992 17.3722 24.1166 17.6599C23.25 17.1342 22.5693 16.7009 21.8687 16.3018C21.4336 16.0535 20.9876 15.8017 20.511 15.6476C19.276 15.2502 18.1403 16.1871 18.6079 17.326C18.9438 18.1481 19.5685 19.0489 20.3358 19.4856C21.8597 20.354 23.5786 20.9123 25.2054 21.6213C26.8899 22.3561 28.5619 23.1148 30.2356 23.8684C31.0048 24.2143 31.3135 24.7709 31.2178 25.5964C31.1564 26.1257 31.2323 26.6737 31.2955 27.2098C31.5916 29.7377 33.4495 30.695 35.7642 31.2208C36.5153 31.3904 37.2899 31.5805 37.9615 31.9213C39.1496 32.5242 39.4728 33.461 38.9726 34.6222C38.7361 35.1737 39.0322 35.3141 39.4674 35.4819C40.0975 35.7251 41.0111 35.8245 40.3719 36.8555C40.3214 36.936 40.5236 37.2049 40.6626 37.335C42.4519 39.0169 44.2358 40.7056 46.0648 42.348C46.2851 42.545 46.9549 42.6477 47.0813 42.5124C47.3648 42.2093 47.576 41.7246 47.5652 41.3204C47.5508 40.7724 47.3016 40.2294 47.1084 39.5204L47.1102 39.5238Z" fill="white"/>
<path d="M36.8403 17.5829C37.5986 16.6906 38.3335 15.7777 39.1225 14.9111C42.5133 11.1844 45.8915 7.43705 50.0045 4.38851C52.6243 2.44635 55.4843 0.904951 58.7596 0.165079C59.1387 0.0794462 59.5396 0.0760205 59.9314 0.0349166C59.9549 0.108561 59.9765 0.180494 60 0.254139C59.7942 0.382589 59.6028 0.55043 59.3771 0.632637C55.7371 1.96509 53.6174 4.66082 52.368 7.98168C51.3424 10.7082 50.548 13.5187 49.7626 16.3189C47.9642 22.7346 43.4468 27.2646 37.9308 30.0716C38.1349 29.8284 38.3425 29.5887 38.5429 29.3437C39.0196 28.7597 39.5576 28.21 39.9422 27.5746C40.148 27.2355 40.0885 26.7491 40.1481 26.3295C39.6949 26.2832 39.2164 26.1239 38.7939 26.2096C37.5752 26.4545 36.6489 27.1824 35.8364 28.0473C35.6775 28.2168 35.5403 28.4069 35.3796 28.5748C34.6375 29.3472 34.2024 29.3283 33.6535 28.4446C32.6677 26.8604 32.46 25.1169 32.6948 23.3357C32.7363 23.0172 33.2003 22.6335 33.5632 22.4897C35.1088 21.8697 36.7446 21.4329 38.2396 20.7273C39.5035 20.1296 40.7276 19.3641 41.7712 18.4649C42.7011 17.6651 42.7137 16.6221 42.1612 16.0209C41.6322 15.4455 40.6753 15.4335 39.5974 16.0192C39.1297 16.2727 38.6856 16.5656 38.2396 16.8533C37.8081 17.1307 37.3892 17.4253 36.9649 17.7113C36.9234 17.6685 36.8836 17.624 36.8421 17.5812L36.8403 17.5829Z" fill="white"/>
<path d="M23.4973 43.9836C21.0364 46.0354 18.4671 47.2531 15.2225 46.729C12.8067 46.3385 10.7032 46.8729 9.14687 48.8253C9.09632 47.2719 12.0231 41.293 13.7889 39.6917C13.6824 40.089 13.5054 40.4829 13.4874 40.8837C13.4621 41.4215 13.3448 42.1785 13.6535 42.461C14.1916 42.9509 14.8434 42.4439 15.2947 42.038C16.9251 40.5686 18.5285 39.07 20.1246 37.5663C20.3304 37.3727 20.6066 37.0542 20.5615 36.8486C20.3773 35.9923 20.8992 35.7251 21.5762 35.4237C21.8146 35.3175 22.0294 34.8157 21.9807 34.54C21.6647 32.7759 21.7514 32.5293 23.4197 31.7415C23.8711 31.5291 24.3766 31.4161 24.8623 31.2739C25.3859 31.1215 25.7452 31.2808 26.0792 31.7244C27.484 33.5826 28.3705 35.6446 28.9049 37.8574C29.0855 38.6058 29.2408 39.3594 29.4159 40.1096C29.7969 41.728 28.2026 43.9014 26.2454 44.2114C27.1463 42.9423 27.4208 41.591 27.2854 40.2072C27.2041 39.38 26.9441 38.539 26.6029 37.7701C26.2688 37.0199 25.4563 36.7613 24.7161 37.0662C24.4904 37.1586 24.2123 37.5183 24.243 37.717C24.3297 38.2753 24.0191 38.5082 23.5858 38.6932C21.0653 39.7653 19.1026 41.5139 17.2592 43.3996C16.5315 44.1446 16.6218 44.5317 17.6726 44.8485C19.3825 45.364 20.9876 44.8999 22.5476 44.2302C22.7661 44.136 22.9755 44.0247 23.1904 43.9254C23.2084 43.9168 23.2409 43.9339 23.4955 43.987L23.4973 43.9836Z" fill="white"/>
</svg>
