<svg width="49" height="69" viewBox="0 0 49 69" fill="none" xmlns="http://www.w3.org/2000/svg">
<path d="M39.1417 27.0353C39.0553 27.4669 39.0487 27.6793 38.9707 27.8633C37.5229 31.2786 35.6534 34.3127 32.1701 36.0454C29.4804 37.3818 28.3065 39.598 28.959 42.8076C28.6735 42.5969 28.5108 42.5149 28.4012 42.3878C27.048 40.8223 25.4608 39.4759 24.4513 37.5942C23.5215 35.8615 22.0937 34.5268 20.4633 33.4245C19.6447 32.8692 18.8494 32.2772 18.1239 31.5563C19.7526 32.2588 21.4063 32.9094 23.0052 33.6771C25.8841 35.0603 28.632 34.6288 31.3399 33.2155C31.4013 33.1837 31.4395 33.1034 31.5973 32.9194C31.1041 32.9646 30.7405 32.993 30.3786 33.0332C26.5416 33.4613 23.1098 32.3926 19.8091 30.4424C17.5146 29.0876 15.0374 28.0389 12.61 26.925C10.7189 26.0569 8.78633 26.3044 6.8803 26.9668C6.44862 27.1156 6.0103 27.2444 5.48565 27.2227C6.23112 26.3881 6.97826 25.5534 7.7337 24.7071C5.1154 24.013 2.55687 23.3356 0 22.6582C0.0149427 22.5596 0.0315458 22.4609 0.0464885 22.3622H6.18962C5.30135 20.7933 4.35996 19.39 3.68754 17.8647C3.02009 16.3477 2.62328 14.7085 2.10859 13.1229C2.21983 13.0744 2.33273 13.0243 2.44397 12.9758C2.78599 13.5277 3.16288 14.0613 3.46506 14.6333C4.07771 15.7957 4.94107 16.6889 6.05015 17.3813C6.63292 17.7459 7.21402 18.1523 7.68555 18.6474C8.02259 19.002 8.29488 19.5105 8.39118 19.9922C8.69502 21.4992 9.37408 22.7703 10.5645 23.717C11.4478 24.4194 12.4075 25.0266 13.4717 25.5384C13.1546 25.2005 12.8508 24.8526 12.5204 24.5282C10.0316 22.0829 8.82452 19.0003 8.4194 15.6201C8.04418 12.489 9.55339 9.98689 11.5325 7.73729C11.6304 7.62522 11.8048 7.57839 12.1169 7.40445C10.3404 12.5208 11.2618 17.1689 13.6128 21.6296C13.6909 21.6229 13.7689 21.6162 13.8469 21.6095C13.8469 21.4908 13.8652 21.367 13.8436 21.2516C12.4805 13.9877 16.266 7.19203 23.1098 4.55105C25.8493 3.49399 28.6967 2.99222 31.5989 2.85172C33.7656 2.74635 35.5521 1.96192 37.0381 0.401416C37.2307 0.199035 37.488 0.0602123 37.8832 0C37.5345 1.79633 37.1875 3.59267 36.8305 5.43082C35.6301 5.25854 34.3351 5.01937 33.0284 4.89393C26.7027 4.28344 21.3482 6.32731 17.2539 11.2196C14.8481 14.093 14.2869 17.5368 15.308 21.1897C15.3595 21.3704 15.4608 21.5393 15.5537 21.7065C15.5737 21.7417 15.6517 21.7433 15.8443 21.8102C15.8891 21.4958 15.9705 21.2014 15.9688 20.9071C15.9505 18.6324 16.1763 16.3962 17.1559 14.3155C18.9308 10.5505 22.0024 8.35279 25.8659 7.15523C29.7012 5.96437 33.5597 6.21191 37.4133 7.03983C38.7067 7.31747 39.9918 7.64028 41.2619 8.00824C43.5963 8.68563 45.6717 8.08852 47.6258 6.7973C48.0509 6.51631 48.461 6.21023 48.9093 5.89412C49.8141 9.70088 43.7407 18.0654 40.0881 18.1189C40.1246 17.5787 40.2607 17.025 40.181 16.5065C39.9021 14.6784 39.0969 13.0711 37.5943 12.0007C33.8901 9.36135 29.7892 8.36282 25.3529 9.61223C20.9381 10.8549 17.7902 15.1902 17.6391 19.8115C17.5179 23.4878 18.6851 26.5603 21.833 28.5239C26.804 31.6249 33.2559 31.7871 38.265 27.7512C38.4958 27.5655 38.7249 27.3782 39.1417 27.0404V27.0353Z" fill="white"/>
<path d="M28.8893 11.7498C33.4485 11.8401 37.1194 15.2521 37.0447 20.3133C36.9783 24.8443 33.0882 28.3717 28.5008 28.2413C24.0346 28.1141 20.5645 24.5081 20.5463 20.1762C20.5247 14.6199 25.059 11.6176 28.8876 11.7498H28.8893ZM28.285 24.5282C27.9894 24.0197 27.8217 23.6869 27.6142 23.3808C26.9119 22.3505 26.193 21.3302 25.484 20.3049C25.1304 19.7931 25.1071 19.3265 25.5272 18.7963C26.2146 17.9282 26.8388 17.0083 27.4797 16.1018C27.7553 15.7121 28.001 15.3023 28.3198 14.8106C28.016 14.7738 27.8815 14.732 27.7553 14.747C25.8028 14.9711 24.3251 15.9462 23.4369 17.7058C23.0666 18.44 22.5818 18.8849 21.7998 19.0589C21.476 19.1308 21.1689 19.2863 20.6276 19.4871C21.5275 19.942 22.3112 20.1644 22.8458 20.6579C23.3937 21.1646 23.6228 22.0026 24.1209 22.583C25.1437 23.7738 26.4453 24.4629 28.2866 24.5298L28.285 24.5282ZM36.4487 19.6911C36.4437 19.5991 36.437 19.5055 36.4321 19.4135C36.1946 19.3098 35.9572 19.1157 35.7215 19.1208C34.7867 19.1358 34.3019 18.5671 33.8387 17.8613C33.05 16.6554 32.0007 15.7171 30.6841 15.125C30.3155 14.9594 29.8954 14.9076 29.4986 14.8039C29.5302 15.207 29.6464 15.416 29.7842 15.6117C30.528 16.6788 31.2602 17.756 32.0289 18.8046C32.4424 19.37 32.5104 19.8416 32.0372 20.4354C31.4196 21.2115 30.8999 22.0662 30.3321 22.884C30.0283 23.3222 29.7095 23.7504 29.3974 24.1819C29.4472 24.2505 29.4953 24.3191 29.5451 24.3877C29.9818 24.2689 30.4417 24.2003 30.8534 24.0231C32.0522 23.5062 33.0019 22.6649 33.6826 21.551C34.1093 20.8535 34.619 20.3501 35.4525 20.1862C35.8028 20.1176 36.1183 19.8634 36.4487 19.6928V19.6911Z" fill="white"/>
<path d="M27.302 69C26.012 67.2288 24.8116 65.5846 23.5514 63.8535C23.8768 63.6194 24.1774 63.4002 24.4795 63.1862C24.7253 63.0105 25.0972 62.8951 25.2018 62.6576C25.6185 61.7176 26.188 61.9552 26.9218 62.2345C27.9961 62.6426 29.1433 62.85 30.2258 63.238C31.1523 63.5709 31.134 63.7164 30.5396 64.5209C29.4737 65.9626 28.436 67.4261 27.302 69Z" fill="white"/>
<path d="M26.1747 42.2189C26.9335 43.0953 27.7171 43.9517 28.4344 44.8599C28.6552 45.1392 28.7847 45.564 28.793 45.927C28.8295 47.4256 28.8129 48.9259 28.7897 50.4262C28.7864 50.6871 28.7332 51.0283 28.5672 51.1939C27.7354 52.0251 26.8587 52.8096 25.836 53.7629V42.5049L26.1764 42.2189H26.1747Z" fill="white"/>
<path d="M28.632 61.1958C27.747 60.6706 26.8554 60.1588 25.9871 59.6085C25.8642 59.5299 25.8011 59.2707 25.7995 59.0951C25.7829 57.9025 25.7845 56.7117 25.7995 55.5191C25.8011 55.3402 25.8659 55.111 25.9871 54.9939C26.892 54.1242 27.8167 53.2779 28.8378 52.3279V60.97C28.7698 61.0453 28.7 61.1189 28.632 61.1941V61.1958Z" fill="white"/>
</svg>
