<svg width="45" height="56" viewBox="0 0 45 56" fill="none" xmlns="http://www.w3.org/2000/svg">
<path d="M12.1432 10.4748C12.0028 10.9404 11.8638 11.3396 11.762 11.7488C11.2346 13.8675 12.3668 15.8776 14.4535 16.4619C14.7014 16.5313 15.2073 16.4214 15.2833 16.2536C16.4184 13.7258 18.538 12.9839 21.0532 12.9145C21.0962 12.9145 21.1392 12.8812 21.2324 12.8436C21.2768 11.5796 21.5247 10.3302 20.3381 9.27446C19.3291 8.3764 18.5151 7.24839 17.6523 6.19269C17.5319 6.04518 17.5119 5.63447 17.6251 5.49708C19.0783 3.74723 20.5659 2.02774 22.0378 0.295234C22.3875 -0.116922 22.6483 -0.0894455 23.0066 0.32705C24.4427 1.99592 25.9002 3.64744 27.3749 5.28161C27.7275 5.67207 27.7948 5.89767 27.3835 6.33586C26.2728 7.52316 25.241 8.78421 24.1747 10.0135C23.8737 10.3605 23.7863 10.6931 23.8995 11.1892C24.0156 11.6997 23.878 12.2695 23.8522 12.7756C24.8913 12.9969 25.9059 13.1415 26.8747 13.438C28.0313 13.7923 28.8998 14.5428 29.4373 15.6824C29.9116 16.6889 30.2699 16.7743 31.233 16.258C33.1936 15.2066 33.8887 13.3758 33.1277 11.2716C33.0402 11.0316 32.9442 10.7944 32.8525 10.5558C32.9026 10.5138 32.9542 10.4704 33.0044 10.4285C33.2337 10.6917 33.5175 10.9231 33.6808 11.2224C34.5637 12.8349 34.5078 14.4243 33.5304 15.9933C32.2735 18.0107 30.644 19.6825 28.8511 21.2082C28.2678 21.7042 27.7103 22.2306 27.1098 22.7035C26.7142 23.0145 26.2642 23.2545 25.7798 23.4657C26.6454 21.6869 27.0138 19.8155 27.233 17.9124C27.4838 15.7446 25.9747 14.1003 23.8321 14.2898C23.8321 14.9159 23.7691 15.5667 23.8622 16.1929C23.9009 16.4518 24.2463 16.7106 24.51 16.8769C25.069 17.2298 25.6652 17.5234 26.3273 17.8864C26.0478 18.2291 25.8429 18.5111 25.6064 18.7656C24.8053 19.6304 24.4527 20.6167 24.4584 21.8329C24.5 30.2236 24.4011 38.6171 24.5444 47.0049C24.596 50.0577 23.8078 52.8257 22.806 55.6038C22.7745 55.6934 22.7214 55.7758 22.6684 55.8554C22.6455 55.8901 22.5953 55.906 22.452 56C22.303 55.6457 22.1396 55.3174 22.0249 54.9718C21.6451 53.8351 21.2281 52.7071 20.93 51.5487C20.7365 50.7938 20.6491 49.9897 20.6462 49.2074C20.6233 41.2491 20.6262 33.2909 20.6233 25.3327C20.6233 24.2263 20.5659 23.1171 20.6419 22.0166C20.7422 20.5806 20.2119 19.4439 19.2417 18.4605C19.1084 18.3246 18.9837 18.1799 18.8576 18.0368C18.8433 18.0209 18.8447 17.9919 18.8175 17.882C19.332 17.6087 19.8522 17.2862 20.4069 17.049C21.0762 16.7627 21.3384 16.2927 21.2854 15.5812C21.2539 15.1589 21.2797 14.7323 21.2797 14.3129C19.3535 14.1813 17.8114 15.4409 17.8286 17.1589C17.8472 19.0014 18.2113 20.7816 18.9078 22.4895C19.0411 22.8163 19.1686 23.1475 19.3664 23.6479C19.0568 23.4874 18.8834 23.4353 18.7573 23.3268C16.5144 21.428 14.1482 19.6565 12.4098 17.2298C11.4696 15.9167 10.614 14.5587 10.829 12.8089C10.9508 11.8183 11.4324 10.8783 12.1418 10.4777L12.1432 10.4748ZM22.581 9.87317C23.653 8.52101 24.5989 7.35974 25.4903 6.15798C25.615 5.99023 25.5706 5.53035 25.4258 5.35391C24.6863 4.44862 23.8837 3.59683 23.1155 2.71467C22.6985 2.23454 22.303 2.30251 21.9146 2.72768C21.2052 3.50138 20.523 4.29966 19.7949 5.05456C19.3377 5.5289 19.2646 5.93093 19.7261 6.45878C20.6605 7.52894 21.552 8.63671 22.5795 9.87173L22.581 9.87317Z" fill="white"/>
<path d="M45 21.282C43.0982 23.3225 40.8395 24.692 38.2097 25.418C35.5096 26.1642 32.8826 26.1454 30.419 24.4635C30.8346 25.6233 31.577 26.4983 32.4999 27.1866C33.4014 27.8606 34.386 28.4217 35.4637 29.1144C35.1642 29.1361 35.008 29.178 34.8618 29.1549C32.4598 28.7803 30.2484 27.9734 28.5043 26.1801C28.1574 25.8244 27.8622 25.4035 27.6042 24.9755C27.0123 23.9892 27.1198 23.3312 28.0414 22.6066C28.7536 22.047 29.5189 21.5524 30.2771 21.0564C31.8607 20.0209 32.8439 18.4402 33.989 16.9999C34.3143 16.5892 34.793 16.2941 35.2244 15.9789C35.8378 15.5306 36.5171 15.1647 37.0861 14.6687C37.817 14.0309 37.7854 13.1314 37.6593 12.255C37.5948 11.8125 37.4573 11.3801 37.4601 10.8349C37.7152 11.1125 38.0219 11.3598 38.2183 11.6751C39.8607 14.3042 38.1065 16.7497 36.0886 17.6492C35.5268 17.8994 34.9191 18.0469 34.333 18.245C33.8729 18.4012 33.4616 18.6094 33.4014 19.3947C35.1484 19.2819 36.8439 19.3036 38.492 19.0303C40.1 18.7642 41.6607 18.1973 43.263 17.8329C40.391 21.0303 36.4999 21.7216 32.4397 22.2523C36.8998 24.5821 40.9427 23.0651 45 21.2805V21.282Z" fill="white"/>
<path d="M0.153359 21.1214C1.11071 21.5235 2.06378 21.9414 3.0283 22.3261C5.71835 23.4006 8.45138 23.7679 11.2504 22.7614C11.6789 22.6066 12.0945 22.4158 12.5144 22.1265C8.44996 21.7577 4.61909 20.9363 1.78715 17.6449C4.96735 18.9609 8.24789 19.4482 11.7377 19.1489C11.4353 18.4171 10.8677 18.2407 10.326 18.0223C9.64235 17.7475 8.92434 17.5321 8.29088 17.1647C6.21279 15.9615 5.62375 13.6853 6.81328 11.5927C6.99242 11.2774 7.25899 11.0113 7.62874 10.8103C7.52555 11.3352 7.42238 11.8602 7.31776 12.3852C7.11425 13.4018 7.40089 14.2507 8.22353 14.8711C8.71654 15.2428 9.27115 15.5262 9.77562 15.8834C10.2314 16.2059 10.7788 16.4908 11.0755 16.9362C12.4786 19.0447 14.2271 20.7382 16.3639 22.1019C18.2213 23.2878 18.3073 24.0731 16.8096 25.7101C16.0056 26.5894 14.9967 27.3573 13.9404 27.901C12.8555 28.4607 11.6044 28.6964 10.4191 29.0479C10.164 29.1231 9.87451 29.0826 9.56065 29.0146C11.557 27.8215 13.6767 26.7991 14.7143 24.3464C14.4922 24.4158 14.3804 24.4245 14.2987 24.4794C11.805 26.1613 9.14074 26.0716 6.41342 25.2387C4.3124 24.598 2.43783 23.5278 0.768193 22.0947C0.488725 21.8546 0.255104 21.5611 0 21.2921C0.0501608 21.2357 0.100329 21.1778 0.150489 21.1214H0.153359Z" fill="white"/>
<path d="M24.7121 5.83693C24.6304 5.9801 24.5774 6.12038 24.4857 6.22306C23.9783 6.79574 23.4595 7.35685 22.9507 7.92664C22.6283 8.28818 22.3459 8.21153 22.065 7.87313C21.5749 7.28599 21.0518 6.72343 20.6046 6.10592C20.4928 5.95118 20.5215 5.54915 20.6462 5.39151C21.0733 4.8492 21.5821 4.37341 22.0421 3.85424C22.3703 3.48402 22.6856 3.49559 23.0095 3.83255C23.5039 4.34883 23.9955 4.86945 24.4756 5.40019C24.5817 5.51733 24.6333 5.68509 24.7135 5.83693H24.7121Z" fill="white"/>
</svg>
