<svg width="46" height="48" viewBox="0 0 46 48" fill="none" xmlns="http://www.w3.org/2000/svg">
<path d="M36.2363 22.0916C34.1512 16.1914 29.0098 13.7998 24.4968 14.5684C19.5086 15.4176 15.867 19.6808 15.681 24.7248C15.4916 29.8249 18.8061 34.3437 23.7357 35.6131C27.5841 36.604 33.4624 35.3785 36.1984 28.433C35.3892 33.6837 29.726 39.267 22.255 38.9764C15.0766 38.6962 9.39109 32.3898 9.48752 24.7914C9.57016 18.2661 14.9372 11.0336 23.6789 11.3329C29.7329 11.5395 35.57 16.6834 36.2363 22.0951V22.0916Z" fill="white"/>
<path d="M2.63632 16.7097C2.79645 17.3329 3.09776 17.958 3.08399 18.5778C3.06161 19.5845 2.91181 20.6052 2.67591 21.5856C1.90625 24.7896 2.61736 27.752 3.98106 30.6233C4.12053 30.9174 4.37365 31.1555 4.72319 31.4146C4.7714 29.55 5.19668 27.8395 6.02144 26.2533L6.2625 26.2866C6.32449 27.1707 6.36064 28.0584 6.4519 28.939C6.85137 32.803 8.62316 35.902 11.676 38.1885C13.1637 39.3038 14.7529 40.3017 16.3766 41.2034C18.1157 42.1663 19.9443 42.52 21.8279 40.9162V48C21.778 47.9772 21.7419 47.972 21.7298 47.9527C19.7221 44.4441 16.2888 42.8736 12.9191 41.1841C9.65798 39.5489 6.48462 37.7561 3.80715 35.1876C0.37897 31.8979 -0.962343 26.227 0.730226 22.0426C0.96784 21.4526 1.2709 20.8906 1.56189 20.3233C2.07155 19.3324 2.48824 18.3239 2.26956 17.1631C2.24718 17.0406 2.30916 16.9022 2.33327 16.7727C2.43486 16.7517 2.53645 16.7307 2.63632 16.7097Z" fill="white"/>
<path d="M43.456 16.5626C43.5886 16.9268 43.685 17.0598 43.6729 17.1806C43.5438 18.5007 44.0449 19.6633 44.6837 20.7242C47.0288 24.6233 46.2832 31.679 42.1026 35.3399C39.6266 37.5092 36.8837 39.1987 33.9962 40.6921C32.3157 41.5623 30.6145 42.3974 28.9736 43.3394C27.1794 44.3688 25.6814 45.7502 24.6397 47.5938C24.5708 47.7164 24.4658 47.8232 24.3659 47.923C24.3367 47.9527 24.2643 47.9405 24.1473 47.9562V41.2296C24.359 41.2944 24.5553 41.3242 24.7241 41.41C26.2014 42.1541 27.6684 42.1908 29.1785 41.4695C32.1108 40.0671 34.802 38.3321 36.882 35.7566C39.1721 32.9203 39.773 29.5728 39.6679 26.0309C40.5237 26.7067 40.9042 28.0303 41.2021 31.595C41.5361 31.2151 41.8116 31.0015 41.9563 30.7178C43.4508 27.7905 44.1568 24.7511 43.2804 21.4578C42.9463 20.2008 42.6588 18.9087 43.0892 17.5991C43.1805 17.3207 43.2838 17.0476 43.4543 16.5626H43.456Z" fill="white"/>
<path d="M41.6791 26.691C41.0127 25.2781 39.8263 24.1296 39.661 22.4663C38.9189 14.9851 33.6949 10.0444 27.1071 8.38984C26.8041 8.31281 26.4993 8.24103 26.0344 8.12722C26.978 7.2028 28.1953 7.5267 29.3972 7.04348C26.3684 5.65509 24.8016 3.41406 24.6759 0C24.9755 0.287132 25.2251 0.451707 25.3749 0.682813C26.6887 2.69098 28.6034 3.94806 30.6386 5.04406C34.0702 6.89466 37.1007 9.20397 39.3305 12.5077C41.5654 15.8185 42.2679 19.525 42.2145 23.445C42.2008 24.506 42.1112 25.5652 42.0578 26.6245C41.9322 26.6472 41.8047 26.6682 41.6791 26.691Z" fill="white"/>
<path d="M4.08782 26.7032C3.97074 26.3636 3.86571 26.1885 3.85366 26.0064C3.49207 20.824 4.14466 15.906 7.36966 11.6166C9.57878 8.67698 12.4715 6.64079 15.6328 4.93376C17.7024 3.81675 19.6137 2.5124 20.8259 0.379924C20.8999 0.248614 21.0686 0.173329 21.2167 0.0525239C21.5387 1.95039 20.6192 5.33119 16.7451 7.01021C17.9263 7.3026 18.9645 7.56172 20.0028 7.81908C19.9925 7.91188 19.9821 8.00467 19.9735 8.09921C19.3864 8.24453 18.7889 8.35658 18.2138 8.54041C11.9205 10.5556 7.73813 14.6385 6.52251 21.3668C6.22119 23.0301 5.66848 24.464 4.80584 25.8383C4.63366 26.1132 4.39087 26.3426 4.08955 26.7032H4.08782Z" fill="white"/>
</svg>
