<svg width="13" height="49" viewBox="0 0 13 49" fill="none" xmlns="http://www.w3.org/2000/svg">
<path d="M5.05995 4.52316C5.05995 4.52316 5.06094 4.52316 5.06193 4.52316C5.19834 4.51516 5.48603 5.12448 5.54803 5.22684C5.76529 5.58428 5.96569 5.94931 6.1636 6.31355C6.55992 7.04362 6.92698 7.78368 7.25932 8.53414C7.92151 10.0319 8.44382 11.572 8.76921 13.1413C8.82774 13.4235 8.87983 13.707 8.92546 13.9909C9.51176 17.6476 8.98647 21.3607 8.21863 24.9955C7.62141 27.821 6.87787 30.6266 5.9895 33.4021C5.91559 33.6332 5.82035 33.9011 5.50141 33.9211C5.11947 33.945 4.61154 33.7483 4.2425 33.6728C4.20331 33.6648 4.16462 33.6544 4.12494 33.6476C3.85213 33.5984 3.57783 33.554 3.307 33.5001C3.08676 33.4561 2.98756 33.231 3.11553 33.083C3.13389 33.0619 3.16861 33.0463 3.17654 33.0235C4.31442 29.8653 5.38534 26.6707 6.13979 23.4318C6.79305 20.6275 7.19037 17.774 7.08571 14.9173C6.96319 11.5816 6.15963 8.28665 5.07284 5.07451C5.02721 4.93937 4.77473 4.54155 5.05995 4.52316Z" fill="white"/>
<path d="M2.30851 0.0390702C2.32782 0.0164145 2.36601 0.00273552 2.42737 0.000170719C2.65737 -0.00966102 3.16285 0.407974 3.36538 0.526382C3.98844 0.891012 4.59819 1.27787 5.19121 1.68952C6.3721 2.5094 7.48777 3.42675 8.4923 4.45523C10.104 6.10568 11.4226 8.05621 12.1749 10.2436C13.3772 13.7394 13.0845 17.5669 12.4396 21.2055C11.8204 24.6975 10.8914 28.1279 9.80406 31.5023C9.41572 32.7074 8.93427 33.9017 8.59314 35.1127C8.5425 35.2923 8.4408 35.432 8.23741 35.4308C7.75853 35.4278 7.27965 35.4205 6.8012 35.3974C6.58537 35.3872 6.48024 35.2487 6.50727 35.0311C6.65102 33.8808 6.9235 32.7334 7.1359 31.5904C7.35775 30.3982 7.57874 29.2056 7.79973 28.0134C8.47857 24.35 9.15612 20.6656 9.21319 16.9407C9.27026 13.2157 8.67767 9.41427 6.94195 6.11466C6.32533 4.94254 5.57054 3.84609 4.73165 2.82145C4.31113 2.30764 3.86872 1.81178 3.41087 1.33088C3.27871 1.19238 2.15746 0.213049 2.30851 0.0390702Z" fill="white"/>
<path d="M0.770033 35.4398C1.29804 35.4015 1.82604 35.4917 2.34571 35.5815C4.91406 36.0252 7.4824 36.4693 10.0507 36.913C10.2279 36.9437 10.4158 36.9791 10.5433 37.0909C10.7409 37.264 10.7179 37.5451 10.6813 37.7876C10.6663 37.8877 10.6479 37.9943 10.5725 38.0703C10.4625 38.1817 10.2724 38.1908 10.1045 38.1919C9.68735 38.1945 9.26978 38.197 8.85263 38.1996C8.56133 38.2014 8.2667 38.2029 7.98415 38.1408C7.8933 38.121 7.80245 38.0944 7.70911 38.0999C7.23319 38.1276 7.35071 38.8412 7.36822 39.1074C7.41239 39.7885 7.38614 40.478 7.38989 41.1605C7.39072 41.2956 7.32737 41.4826 7.17527 41.4596C7.12818 41.4523 7.08942 41.4238 7.05316 41.3964C5.71294 40.3794 4.3723 39.3627 3.03208 38.3456C2.95998 38.2909 2.88622 38.2346 2.84246 38.1605C2.79662 38.0834 2.78745 37.994 2.78537 37.907C2.7787 37.6269 3.07 37.1734 2.84329 36.9627C2.67243 36.8038 2.33404 36.7417 2.09817 36.7059C1.72436 36.6493 1.2822 36.6391 1.00757 36.3751C0.755447 36.1322 0.755864 35.7678 0.770033 35.4398Z" fill="white"/>
<path d="M1.67688 43.0481C1.74649 42.9483 1.86156 42.9304 2.03961 43.0699C2.69688 43.5851 3.29117 44.1566 3.96312 44.6579C4.63508 45.1592 5.33402 45.6483 5.93778 46.2268C6.31945 46.5925 6.64193 46.9766 6.76411 47.4818C6.85218 47.8471 7.05296 48.6531 6.57895 48.8689C6.46388 48.9212 6.33129 48.9251 6.20344 48.9282C4.48496 48.9696 2.72624 49.0612 1.01061 48.9382C0.747796 48.9195 0.256262 48.9548 0.0881561 48.7281C-0.135354 48.4273 0.121777 47.7538 0.247265 47.4526C0.410162 47.0629 0.975094 46.6457 0.898854 46.2041C0.65735 44.8057 2.52404 46.2129 2.76128 45.4452C2.8129 45.2787 2.66894 45.1196 2.53588 44.9966C2.37345 44.8463 2.21056 44.6954 2.04813 44.545C1.90986 44.4173 1.76922 44.2861 1.6854 44.1231C1.59496 43.9474 1.51588 43.2791 1.67688 43.0481Z" fill="white"/>
<path d="M5.78623 41.4619C6.18406 41.5364 6.63567 41.6432 6.79461 41.9254C6.85314 42.0293 6.86266 42.1443 6.86885 42.2568C6.90644 42.9211 6.86552 43.5879 6.74655 44.2465C6.73703 44.3005 6.72513 44.3565 6.6823 44.4006C6.61235 44.4719 6.4753 44.4903 6.36061 44.468C6.24592 44.4456 6.14885 44.3906 6.0551 44.337C4.83923 43.6418 3.62099 42.9449 2.50934 42.1585C2.3899 42.074 2.26093 41.963 2.30186 41.8437C2.33136 41.7579 2.44129 41.7021 2.54884 41.6638C3.03852 41.4892 3.52772 41.5772 4.03976 41.6187C4.59416 41.6635 5.35604 41.7948 5.78623 41.4619Z" fill="white"/>
<path d="M5.35294 41.4585C4.86186 41.4963 4.43008 41.1713 3.97607 40.9838C3.68735 40.8644 3.37857 40.7987 3.08505 40.6906C2.71783 40.5554 2.29958 40.3394 2.29783 39.9093C2.29696 39.6702 2.23939 39.1225 2.61054 39.2092C2.87222 39.2706 3.23813 39.6831 3.45402 39.8471C4.11389 40.3485 4.80821 40.8305 5.35294 41.4585Z" fill="white"/>
</svg>
