<svg width="33" height="59" viewBox="0 0 33 59" fill="none" xmlns="http://www.w3.org/2000/svg">
<path d="M13.103 8.57831C12.4792 9.11489 11.8444 9.63899 11.2317 10.188C9.61899 11.6356 8.36311 13.3285 8.0035 15.515C7.54846 18.2852 8.97031 21.0985 11.6107 22.6125C11.3935 22.2201 11.2483 21.9844 11.1266 21.7363C10.5955 20.6437 9.98965 19.5789 9.56504 18.4461C9.0602 17.1039 9.42812 15.8547 10.3672 14.7926C10.7172 14.3975 11.1072 14.0328 11.5124 13.6945C11.9979 13.2897 12.1445 12.8834 11.7033 12.3524C11.5249 12.1375 11.399 11.8796 11.2012 11.5635C12.7807 11.7701 13.5055 13.4713 12.6383 14.6443C12.3658 15.0131 12.0228 15.3278 11.7254 15.6786C11.2275 16.2651 11.251 16.975 11.7739 17.5338C12.3492 18.1494 12.7904 18.1729 13.5069 17.5837C14.3381 16.8987 14.7434 15.9726 14.7724 14.9216C14.836 12.6408 14.8582 10.3572 14.8527 8.07501C14.8527 7.74086 14.6507 7.38037 14.4654 7.08089C14.0906 6.47498 13.6507 5.91068 13.2635 5.31171C13.1819 5.18692 13.1293 4.93735 13.1985 4.83752C14.2759 3.26106 15.3727 1.69986 16.4709 0.137264C16.5068 0.0845769 16.5815 0.0596198 16.6728 0C16.7517 0.0637793 16.8582 0.11508 16.9162 0.199657C17.8775 1.60557 18.818 3.02397 19.7959 4.4188C20.1154 4.87357 20.197 5.19663 19.7627 5.66111C19.2966 6.15886 18.9563 6.77863 18.5787 7.35542C18.4819 7.50377 18.3975 7.6965 18.3989 7.86842C18.4114 10.3808 18.3906 12.8945 18.4861 15.4041C18.5262 16.4661 19.1749 17.2814 20.0711 17.8665C20.558 18.1854 20.9356 17.9927 21.2938 17.6377C21.6728 17.262 22.132 16.8779 21.8055 16.2873C21.5317 15.7909 21.161 15.3417 20.7862 14.9119C19.7198 13.6848 20.2717 11.9406 22.0158 11.4941C21.7917 11.8546 21.6202 12.1319 21.4473 12.4065C21.1652 12.8571 21.1582 13.2425 21.6202 13.6113C22.0503 13.9552 22.4418 14.3503 22.8249 14.7483C23.8235 15.7881 24.154 17.0415 23.6603 18.3809C23.2329 19.5373 22.616 20.6229 22.0752 21.7363C21.9826 21.9276 21.8498 22.1009 21.7364 22.2825C21.8055 22.3491 21.8747 22.417 21.9439 22.4836C22.4611 22.033 23.0517 21.6434 23.4846 21.1234C25.7543 18.3989 25.9701 15.4651 23.9535 12.552C23.0752 11.2848 21.8581 10.2518 20.7917 9.11767C20.6396 8.95544 20.4639 8.81541 20.3768 8.51731C20.9342 8.74608 21.5013 8.95128 22.0462 9.2064C23.9756 10.1132 25.8788 11.0754 26.8138 13.1677C27.0904 13.7874 27.1886 14.4862 27.4127 15.1337C27.5164 15.4318 27.3878 15.9628 27.9797 15.8991C28.5869 15.8339 28.8926 15.4609 28.7626 14.8633C28.486 13.6016 28.1664 12.3496 27.8442 11.0116C28.3656 11.3707 29.0046 11.7104 29.5233 12.1846C31.692 14.1659 32.7169 16.7268 32.9326 19.5927C33.0668 21.3799 32.9603 23.1865 32.9534 24.9848C32.9534 25.1318 32.8925 25.2774 32.7487 25.4147C32.6449 24.5675 32.5952 23.7093 32.4209 22.876C32.2632 22.1162 32.0723 21.33 31.7183 20.6506C30.7653 18.8218 28.8151 19.1282 27.7875 20.2083C27.0572 20.9751 27.356 22.2701 28.4043 22.9106C28.9617 23.2517 29.5662 23.5124 30.0323 23.7495C28.9299 24.6368 27.7667 25.4563 26.746 26.4254C25.735 27.3849 24.8663 28.4941 23.9936 29.4716C24.3753 28.6036 24.811 27.6553 25.2094 26.6916C25.3477 26.3561 25.4569 25.9831 25.4652 25.624C25.4722 25.3107 25.3975 24.7907 25.2204 24.7228C24.9203 24.6063 24.4445 24.6687 24.1624 24.8476C23.7253 25.1235 23.3781 25.5505 23.0102 25.9304C21.2136 27.7925 20.0075 30.0345 18.8955 32.3333C19.374 32.4789 19.9923 32.4858 20.2219 32.7895C20.428 33.0626 20.197 33.6588 20.1818 34.1136C20.1652 34.6127 20.3671 35.281 20.1195 35.5639C19.8803 35.837 19.1901 35.7178 18.6977 35.7649C17.8568 35.8467 17.7862 35.8869 16.7821 36.9753C16.5331 36.8173 16.2288 36.6925 16.0145 36.4762C15.41 35.8689 14.7033 35.7095 13.8734 35.7719C12.4377 35.8772 12.4391 35.8509 12.4599 34.427C12.4696 33.8308 12.4613 33.2346 12.4613 32.551C13.0629 32.5247 13.6659 32.4969 14.3948 32.465C14.1265 31.9132 13.9038 31.4473 13.6729 30.9843C12.6023 28.8476 11.2746 26.8941 9.55673 25.2219C9.37693 25.0472 9.19159 24.8143 8.97029 24.7588C8.63696 24.6743 8.21927 24.616 7.93573 24.7533C7.77114 24.8337 7.67848 25.3564 7.76423 25.6102C8.15426 26.7596 8.6162 27.884 9.05603 29.0154C9.11274 29.161 9.19437 29.2969 9.2248 29.473C7.51528 27.2296 5.61486 25.2011 2.97589 23.834C3.58861 23.5415 4.09621 23.3391 4.56508 23.0687C5.26078 22.6666 5.84863 22.1578 5.83895 21.2496C5.82927 20.3955 5.30506 19.7924 4.3438 19.5165C3.18891 19.1837 2.13635 19.4166 1.69929 20.3775C1.21243 21.4493 0.960715 22.6333 0.671645 23.7855C0.519503 24.3942 0.508432 25.0389 0.422679 25.7585C-0.378141 24.6382 0.0146795 19.4152 1.13223 16.6006C2.02019 14.3642 3.28573 12.3718 5.31336 11.0061L5.51391 11.1267C5.31751 11.6189 5.07962 12.0987 4.93439 12.6047C4.7131 13.3756 4.52361 14.159 4.37838 14.9493C4.27188 15.5275 4.62872 15.766 5.16675 15.8464C5.79606 15.9393 5.74074 15.5053 5.79607 15.1185C6.04918 13.3687 6.89702 11.9503 8.28151 10.8799C9.70888 9.77764 11.3506 9.08162 13.1003 8.57831H13.103ZM16.1058 5.43372C16.1058 5.91206 16.1058 6.32247 16.1058 6.73149C16.0975 10.5763 16.0961 14.4224 16.0656 18.2672C16.0643 18.5112 15.8997 18.819 15.7129 18.9868C14.4004 20.164 15.0062 21.1165 16.1154 21.685C16.706 21.9872 17.6064 21.6087 18.0034 20.9501C18.3132 20.4371 18.1458 19.7314 17.6991 19.2475C17.4792 19.0104 17.2676 18.6499 17.2662 18.3435C17.244 14.3365 17.2593 10.3295 17.2662 6.32385C17.2662 6.03546 17.2662 5.74707 17.2662 5.43372H16.1058ZM16.6203 31.195C15.1376 28.2709 13.4972 25.7058 10.7255 24.1238C10.7725 24.3082 10.8665 24.4552 10.9883 24.5758C13.3354 26.8816 15.1984 29.5007 16.2261 32.6661C16.2855 32.8477 16.4903 32.9808 16.7226 33.2415C17.9024 29.692 19.9148 26.8344 22.3201 24.2153C19.7987 25.9568 17.9536 28.2584 16.6217 31.195H16.6203Z" fill="white"/>
<path d="M20.392 54.6907C19.0642 56.227 17.9093 57.565 16.67 59C15.3768 57.6038 14.1196 56.2464 12.9343 54.9667C13.4059 54.4273 13.854 53.881 14.3519 53.3847C14.428 53.3084 14.7876 53.4054 14.9273 53.5261C15.2385 53.7951 15.4889 54.1334 15.7696 54.437C16.4916 55.219 16.659 55.2218 17.4003 54.4245C17.6659 54.1389 17.8996 53.8228 18.1527 53.5247C18.4764 53.1448 18.7281 53.1406 19.0835 53.5594C19.4487 53.9906 19.9439 54.3122 20.3934 54.6907H20.392Z" fill="white"/>
<path d="M14.3893 42.3592C15.4916 43.0912 16.41 43.9231 17.4888 44.3557C18.5939 44.7994 18.8816 45.3887 18.8028 46.5006C18.7475 47.2729 18.7101 47.8969 17.883 48.1963C17.6991 48.2629 17.5151 48.4168 17.4017 48.579C16.9052 49.2889 16.4584 49.0116 15.8733 48.6428C14.677 47.8913 14.1694 46.9291 14.363 45.4899C14.4985 44.4805 14.3893 43.4379 14.3893 42.3592Z" fill="white"/>
<path d="M14.4405 36.3681C14.7047 36.522 14.9149 36.6065 15.0795 36.7466C16.0864 37.5965 17.1721 38.2981 18.4307 38.7265C18.5967 38.7834 18.6783 39.0912 18.7917 39.288C18.8111 39.3213 18.7848 39.3782 18.7834 39.4239C18.7323 41.5467 18.7378 41.555 17.002 42.782C16.8568 42.8846 16.5055 42.8569 16.345 42.7488C15.76 42.3494 15.2081 41.8974 14.6604 41.4454C14.5511 41.3553 14.4515 41.1792 14.4501 41.042C14.4349 39.5154 14.4405 37.9903 14.4405 36.3681Z" fill="white"/>
<path d="M16.5912 54.1042C15.8416 53.2931 15.1818 52.5943 14.5442 51.8761C14.435 51.7527 14.3699 51.5489 14.3672 51.3811C14.3506 50.4674 14.3589 49.5523 14.3589 48.4736C14.7489 48.7468 15.0228 48.9645 15.3201 49.1392C16.3575 49.7506 17.3934 50.3662 18.4529 50.9375C18.7793 51.1136 19.0877 51.2577 18.7834 51.6252C18.1016 52.4488 17.3699 53.2321 16.5912 54.1056V54.1042Z" fill="white"/>
<path d="M18.7143 42.5144V44.0368C18.2274 43.8219 17.8415 43.6514 17.2454 43.3893C17.8277 43.0427 18.2164 42.8112 18.7143 42.5158V42.5144Z" fill="white"/>
<path d="M17.4626 49.4165C17.8526 49.1808 18.2426 48.9437 18.7405 48.6428V50.1735C18.2675 49.9905 17.8747 49.838 17.4819 49.6855C17.475 49.5953 17.4681 49.5066 17.4612 49.4165H17.4626Z" fill="white"/>
<path d="M18.854 36.7507C18.7876 37.0627 18.789 37.6007 18.6437 37.6423C18.3063 37.7421 17.8996 37.6034 17.5207 37.5605C17.493 37.4537 17.4667 37.3469 17.439 37.2402C17.8263 37.0142 18.2136 36.7896 18.5995 36.5636C18.6838 36.6259 18.7682 36.687 18.8526 36.7493L18.854 36.7507Z" fill="white"/>
</svg>
